<svg fill="none" height="931" viewBox="0 0 1095 931" width="1095" xmlns="http://www.w3.org/2000/svg"><rect fill="#d9d9d9" height="409" rx="16" width="347" x="83"/><rect fill="#3901f1" height="76" rx="16" width="432" x="329" y="472"/><rect fill="#0069eb" height="76" rx="16" width="432" x="329" y="561"/><text fill="#000" font-family="Inter" font-size="20" font-weight="bold" letter-spacing="0em"><tspan x="105.154" y="40.2727">Before-render</tspan></text><text fill="#000" font-family="Inter" font-size="20" letter-spacing="0em"><tspan x="23.4902" y="586.273">requestAnimationFrame()</tspan></text><text fill="#fff" font-family="Inter" font-size="20" letter-spacing="0em"><tspan x="497.424" y="517.273">Rendering</tspan></text><text fill="#fff" font-family="Inter" font-size="20" letter-spacing="0em"><tspan x="425.072" y="606.273">Commit changes to DOM</tspan></text><rect fill="#ac7ff4" height="51" rx="6" width="309" x="102" y="122"/><rect fill="#ac7ff4" height="51" rx="6" width="309" x="102" y="122"/><rect fill="#ac7ff4" height="51" rx="6" width="309" x="102" y="122"/><rect fill="#006ce9" height="51" rx="6" width="309" x="102" y="182"/><rect fill="#006ce9" height="51" rx="6" width="309" x="102" y="242"/><rect fill="#18b6f6" height="51" rx="6" width="147" x="102" y="339"/><rect fill="#18b6f6" height="51" rx="6" width="147" x="264" y="339"/><rect fill="#d9d9d9" height="202" rx="16" width="347" x="678" y="692"/><text fill="#000" font-family="Inter" font-size="20" font-weight="bold" letter-spacing="0em"><tspan x="694.381" y="735.273">After-render</tspan></text><rect fill="#ef6c41" height="51" rx="6" width="309" x="697" y="760"/><text fill="#fff" font-family="Inter" font-size="17" letter-spacing="0em"><tspan x="716.47" y="791.682">useClientEffect$()</tspan></text><rect fill="#ef6c41" height="51" rx="6" width="309" x="697" y="820"/><rect fill="#ac7ff4" height="51" rx="6" width="309" x="102" y="62"/><g font-family="Inter" letter-spacing="0em"><text fill="#fff" font-size="17"><tspan x="124.46" y="93.6818">useMount$()</tspan></text><text fill="#fff" font-size="17"><tspan x="124.114" y="153.682">useServerMount$()</tspan></text><text fill="#fff" font-size="17"><tspan x="124.291" y="214.682">useWatch$()</tspan></text><text fill="#fff" font-size="17"><tspan x="124.291" y="273.682">useWatch$()</tspan></text><text fill="#fff" font-size="17"><tspan x="112.09" y="369.682">useResource$()</tspan></text><text fill="#fff" font-size="17"><tspan x="274.09" y="369.682">useResource$()</tspan></text></g><path d="m150 501.5.416-1.441zm176.502 10.5-15.158-8.382.32 17.318zm-264.002-120c0 37.262 16.9106 63.618 36.2261 81.323 19.2819 17.673 40.9989 26.772 50.8579 29.618l.832-2.882c-9.502-2.743-30.784-11.644-49.663-28.948-18.844-17.273-35.253-42.873-35.253-79.111zm87.084 110.941c19.634 5.668 52.014 8.469 83.624 9.81 31.661 1.342 62.724 1.224 79.82.998l-.04-3c-17.07.226-48.071.344-79.653-.996-31.634-1.341-63.675-4.139-82.919-9.694z" fill="#000"/><path d="m934 608 .282-1.473zm104 81-9.91-14.203 17.25-1.484zm-277.081-89.453c57.806-3.126 115.675-4.056 173.363 6.98l-.564 2.946c-57.312-10.964-114.88-10.054-172.637-6.93zm173.363 6.98c26.332 5.037 50.391 10.427 68.808 20.416 18.52 10.046 31.4 24.775 35.23 48.366l-2.96.481c-3.66-22.53-15.86-36.533-33.7-46.21-17.949-9.735-41.561-15.06-67.942-20.107z" fill="#000"/><path d="m63 390 8.6602-15h-17.3205zm-1.5-328v314.5h3v-314.5z" fill="#000"/><path d="m1039 871 8.66-15h-17.32zm-1.5-111v97.5h3v-97.5z" fill="#000"/><path d="m0 555h1095" stroke="#000" stroke-dasharray="30 11" stroke-width="2"/><text fill="#000" font-family="Inter" font-size="18" letter-spacing="0em" xml:space="preserve"><tspan x="481" y="94.5455">useMount(), </tspan><tspan x="481" y="116.545">useServerMount() and </tspan><tspan x="481" y="138.545">useWatch() run in serie, </tspan><tspan x="481" y="160.545">one after another. </tspan><tspan x="481" y="182.545"></tspan><tspan x="481" y="204.545">No two can run </tspan><tspan x="481" y="226.545">concurrently in the same </tspan><tspan x="481" y="248.545">app.</tspan></text><text fill="#000" font-family="Inter" font-size="18" letter-spacing="0em" xml:space="preserve"><tspan x="481" y="359.545">useResource() however </tspan><tspan x="481" y="381.545">can run concurrently.</tspan></text><path d="m463 62v231" stroke="#000" stroke-width="2"/><path d="m463 339v60" stroke="#000" stroke-width="2"/><text fill="#fff" font-family="Inter" font-size="17" letter-spacing="0em"><tspan x="716.47" y="851.682">useClientEffect$()</tspan></text><path d="m744 0h281v330h-281z" fill="#f7f7f7"/><text fill="#000" font-family="Inter" font-size="19" letter-spacing="0em" xml:space="preserve"><tspan x="788.5" y="90.4091">Prepare” data before </tspan><tspan x="788.5" y="113.409">rendering </tspan><tspan x="760" y="136.409"></tspan><tspan x="788.5" y="159.409">Initializing state </tspan><tspan x="760" y="182.409"></tspan><tspan x="788.5" y="205.409">Calculation computed </tspan><tspan x="788.5" y="228.409">data </tspan><tspan x="760" y="251.409"></tspan><tspan x="788.5" y="274.409">Run in both server and </tspan><tspan x="788.5" y="297.409">browser</tspan></text><text fill="#000" font-family="Inter" font-size="19" font-weight="bold" letter-spacing="0em"><tspan x="768" y="47.4091">Use cases</tspan></text><path d="m83 692h281v239h-281z" fill="#f7f7f7"/><text fill="#000" font-family="Inter" font-size="19" letter-spacing="0em" xml:space="preserve"><tspan x="127.5" y="780.909">Only run in the browser </tspan><tspan x="99" y="803.909"></tspan><tspan x="127.5" y="826.909">Read DOM necesary </tspan><tspan x="99" y="849.909"></tspan><tspan x="127.5" y="872.909">Perform computation </tspan><tspan x="127.5" y="895.909">eagarly in the broswe </tspan></text><text fill="#000" font-family="Inter" font-size="19" font-weight="bold" letter-spacing="0em"><tspan x="107" y="739.409">Use cases</tspan></text></svg>