<svg xmlns="http://www.w3.org/2000/svg" width="1440" height="721" fill="none" aria-hidden="true">
  <g stroke="#fff" stroke-width="1.022" clip-path="url(#a)">
    <path d="M.511.511h44.968v44.968H.511z"/>
    <path d="M45.479.511h44.968v44.968H45.479zm44.968 0h44.968v44.968H90.447z"/>
    <path d="M135.415.511h44.968v44.968h-44.968zm44.968 0h44.968v44.968h-44.968zm44.968 0h44.968v44.968h-44.968zm44.968 0h44.968v44.968h-44.968z"/>
    <path d="M315.287.511h44.968v44.968h-44.968zm44.969 0h44.968v44.968h-44.968zm44.968 0h44.968v44.968h-44.968zm44.968 0h44.968v44.968h-44.968zm44.968 0h44.968v44.968H495.16zm44.968 0h44.968v44.968h-44.968zm44.968 0h44.968v44.968h-44.968zm44.968 0h44.968v44.968h-44.968zm44.968 0H720v44.968h-44.968zm44.968 0h44.968v44.968H720zm44.968 0h44.968v44.968h-44.968zm44.968 0h44.968v44.968h-44.968zm44.968 0h44.968v44.968h-44.968zm44.968 0h44.968v44.968h-44.968zm44.968 0h44.968v44.968H944.84zm44.968 0h44.968v44.968h-44.968zm44.972 0h44.968v44.968h-44.968z"/>
    <path d="M1079.74.511h44.968v44.968h-44.968zm44.97 0h44.968v44.968h-44.968zm44.97 0h44.968v44.968h-44.968zm44.97 0h44.968v44.968h-44.968zm44.97 0h44.968v44.968h-44.968z"/>
    <path d="M1304.58.511h44.968v44.968h-44.968zm44.97 0h44.968v44.968h-44.968zm44.97 0h44.968v44.968h-44.968zM.511 45.479h44.968v44.968H.511z"/>
    <path d="M45.479 45.479h44.968v44.968H45.479zm44.968 0h44.968v44.968H90.447z"/>
    <path d="M135.415 45.479h44.968v44.968h-44.968zm44.968 0h44.968v44.968h-44.968zm44.968 0h44.968v44.968h-44.968zm44.968 0h44.968v44.968h-44.968z"/>
    <path d="M315.287 45.479h44.968v44.968h-44.968zm44.969 0h44.968v44.968h-44.968zm44.968 0h44.968v44.968h-44.968zm44.968 0h44.968v44.968h-44.968zm44.968 0h44.968v44.968H495.16zm44.968 0h44.968v44.968h-44.968zm44.968 0h44.968v44.968h-44.968zm44.968 0h44.968v44.968h-44.968zm44.968 0H720v44.968h-44.968zm44.968 0h44.968v44.968H720zm44.968 0h44.968v44.968h-44.968zm44.968 0h44.968v44.968h-44.968zm44.968 0h44.968v44.968h-44.968zm44.968 0h44.968v44.968h-44.968zm44.968 0h44.968v44.968H944.84zm44.968 0h44.968v44.968h-44.968zm44.972 0h44.968v44.968h-44.968z"/>
    <path d="M1079.74 45.479h44.968v44.968h-44.968zm44.97 0h44.968v44.968h-44.968zm44.97 0h44.968v44.968h-44.968zm44.97 0h44.968v44.968h-44.968zm44.97 0h44.968v44.968h-44.968z"/>
    <path d="M1304.58 45.479h44.968v44.968h-44.968zm44.97 0h44.968v44.968h-44.968zm44.97 0h44.968v44.968h-44.968zM.511 90.447h44.968v44.968H.511z"/>
    <path d="M45.479 90.447h44.968v44.968H45.479zm44.968 0h44.968v44.968H90.447z"/>
    <path d="M135.415 90.447h44.968v44.968h-44.968zm89.937 0v22.995c0 12.135-9.839 21.974-21.974 21.974h-22.995v-44.97h44.969Z"/>
    <path d="M270.32 90.447v44.969h-22.995c-12.136 0-21.974-9.839-21.974-21.974V90.447z"/>
    <path d="M270.319 90.447h44.968v44.968h-44.968z"/>
    <path d="M315.287 90.447h44.968v44.968h-44.968zm44.969 0h44.968v44.968h-44.968zm44.968 0h44.968v44.968h-44.968zm44.968 0h44.968v44.968h-44.968zm44.968 0h44.968v44.968H495.16zm44.968 0h44.968v44.968h-44.968zm89.936 0v22.995c0 12.135-9.838 21.974-21.973 21.974h-22.995v-44.97h44.968Zm44.968 0v44.969h-22.995c-12.135 0-21.973-9.839-21.973-21.974V90.447zm0 0H720v44.968h-44.968zm44.968 0h44.968v44.968H720zm44.968 0h44.968v44.968h-44.968zm44.968 0h44.968v44.968h-44.968zm44.968 0h44.968v44.968h-44.968zm44.968 0h44.968v44.968h-44.968zm44.968 0h44.968v44.968H944.84zm89.94 0v22.995c0 12.135-9.84 21.974-21.98 21.974h-22.992v-44.97h44.972Zm44.96 0v44.969h-22.99c-12.14 0-21.97-9.839-21.97-21.974V90.447zm0 0h44.968v44.968h-44.968zm44.97 0h44.968v44.968h-44.968zm44.97 0h44.968v44.968h-44.968zm44.97 0h44.968v44.968h-44.968zm44.97 0h44.968v44.968h-44.968z"/>
    <path d="M1304.58 90.447h44.968v44.968h-44.968zm44.97 0h44.968v44.968h-44.968zm44.97 0h44.968v44.968h-44.968zM.511 135.415h44.968v44.968H.511z"/>
    <path d="M45.479 135.415h44.968v44.968H45.479zm44.968 0h44.968v44.968H90.447z"/>
    <path d="M135.415 135.415h44.968v44.968h-44.968zm67.963 0c12.135 0 21.974 9.838 21.974 21.974v22.995h-44.969v-44.969z"/>
    <path d="M247.325 135.415h22.995v44.969h-44.969v-22.995c0-12.136 9.838-21.974 21.974-21.974Z"/>
    <path d="M270.319 135.415h44.968v44.968h-44.968z"/>
    <path d="M315.287 135.415h44.968v44.968h-44.968zm44.969 0h44.968v44.968h-44.968zm44.968 0h44.968v44.968h-44.968zm44.968 0h44.968v44.968h-44.968zm44.968 0h44.968v44.968H495.16zm44.968 0h44.968v44.968h-44.968zm67.963 0c12.135 0 21.973 9.838 21.973 21.974v22.995h-44.968v-44.969zm43.946 0h22.995v44.969h-44.968v-22.995c0-12.136 9.838-21.974 21.973-21.974Zm22.995 0H720v44.968h-44.968zm44.968 0h44.968v44.968H720zm44.968 0h44.968v44.968h-44.968zm44.968 0h44.968v44.968h-44.968zm44.968 0h44.968v44.968h-44.968zm44.968 0h44.968v44.968h-44.968zm44.968 0h44.968v44.968H944.84zm67.96 0c12.14 0 21.98 9.838 21.98 21.974v22.995h-44.972v-44.969zm43.95 0h22.99v44.969h-44.96v-22.995c0-12.136 9.83-21.974 21.97-21.974Zm22.99 0h44.968v44.968h-44.968zm44.97 0h44.968v44.968h-44.968zm44.97 0h44.968v44.968h-44.968zm44.97 0h44.968v44.968h-44.968zm44.97 0h44.968v44.968h-44.968z"/>
    <path d="M1304.58 135.415h44.968v44.968h-44.968zm44.97 0h44.968v44.968h-44.968zm44.97 0h44.968v44.968h-44.968zM.511 180.383h44.968v44.968H.511z"/>
    <path d="M45.479 180.383h44.968v44.968H45.479zm44.968 0h44.968v44.968H90.447z"/>
    <path d="M135.415 180.383h44.968v44.968h-44.968zm44.968 0h44.968v44.968h-44.968zm44.968 0h44.968v44.968h-44.968zm44.968 0h44.968v44.968h-44.968z"/>
    <path d="M315.287 180.383h44.968v44.968h-44.968zm44.969 0h44.968v44.968h-44.968zm44.968 0h44.968v44.968h-44.968zm44.968 0h44.968v44.968h-44.968zm44.968 0h44.968v44.968H495.16zm44.968 0h44.968v44.968h-44.968zm44.968 0h44.968v44.968h-44.968zm44.968 0h44.968v44.968h-44.968zm44.968 0H720v44.968h-44.968zm44.968 0h44.968v44.968H720zm44.968 0h44.968v44.968h-44.968zm44.968 0h44.968v44.968h-44.968zm44.968 0h44.968v44.968h-44.968zm44.968 0h44.968v44.968h-44.968zm44.968 0h44.968v44.968H944.84zm44.968 0h44.968v44.968h-44.968zm44.972 0h44.968v44.968h-44.968z"/>
    <path d="M1079.74 180.383h44.968v44.968h-44.968zm44.97 0h44.968v44.968h-44.968zm44.97 0h44.968v44.968h-44.968zm44.97 0h44.968v44.968h-44.968zm44.97 0h44.968v44.968h-44.968z"/>
    <path d="M1304.58 180.383h44.968v44.968h-44.968zm44.97 0h44.968v44.968h-44.968zm44.97 0h44.968v44.968h-44.968zM.511 225.351h44.968v44.968H.511z"/>
    <path d="M45.479 225.351h44.968v44.968H45.479zm44.968 0h44.968v44.968H90.447z"/>
    <path d="M135.415 225.351h44.968v44.968h-44.968zm44.968 0h44.968v44.968h-44.968zm44.968 0h44.968v44.968h-44.968zm44.968 0h44.968v44.968h-44.968z"/>
    <path d="M315.287 225.351h44.968v44.968h-44.968zm44.969 0h44.968v44.968h-44.968zm44.968 0h44.968v44.968h-44.968zm44.968 0h44.968v44.968h-44.968zm44.968 0h44.968v44.968H495.16zm44.968 0h44.968v44.968h-44.968zm44.968 0h44.968v44.968h-44.968zm44.968 0h44.968v44.968h-44.968zm44.968 0H720v44.968h-44.968zm44.968 0h44.968v44.968H720zm44.968 0h44.968v44.968h-44.968zm44.968 0h44.968v44.968h-44.968zm44.968 0h44.968v44.968h-44.968zm89.937 0v22.995c0 12.136-9.838 21.974-21.974 21.974h-22.995v-44.969z"/>
    <path d="M989.809 225.351v44.969h-22.995c-12.136 0-21.974-9.838-21.974-21.974v-22.995z"/>
    <path d="M989.808 225.351h44.968v44.968h-44.968zm44.972 0h44.968v44.968h-44.968z"/>
    <path d="M1079.74 225.351h44.968v44.968h-44.968zm44.97 0h44.968v44.968h-44.968zm44.97 0h44.968v44.968h-44.968zm44.97 0h44.968v44.968h-44.968zm44.97 0h44.968v44.968h-44.968z"/>
    <path d="M1304.58 225.351h44.968v44.968h-44.968zm44.97 0h44.968v44.968h-44.968zm44.97 0h44.968v44.968h-44.968zM.511 270.319h44.968v44.968H.511z"/>
    <path d="M45.479 270.319h44.968v44.968H45.479zm44.968 0h44.968v44.968H90.447z"/>
    <path d="M135.415 270.319h44.968v44.968h-44.968zm44.968 0h44.968v44.968h-44.968zm44.968 0h44.968v44.968h-44.968zm44.968 0h44.968v44.968h-44.968z"/>
    <path d="M315.287 270.319h44.968v44.968h-44.968zm89.937 0v22.995c0 12.136-9.838 21.974-21.974 21.974h-22.995v-44.969z"/>
    <path d="M450.192 270.319v44.969h-22.995c-12.135 0-21.974-9.838-21.974-21.974v-22.995zm0 0h44.968v44.968h-44.968zm44.968 0h44.968v44.968H495.16zm44.968 0h44.968v44.968h-44.968zm44.968 0h44.968v44.968h-44.968zm44.968 0h44.968v44.968h-44.968zm44.968 0H720v44.968h-44.968zm44.968 0h44.968v44.968H720zm44.968 0h44.968v44.968h-44.968zm44.968 0h44.968v44.968h-44.968zm44.968 0h44.968v44.968h-44.968zm67.963 0c12.136 0 21.974 9.838 21.974 21.974v22.995h-44.969v-44.969z"/>
    <path d="M966.814 270.319h22.995v44.969H944.84v-22.995c0-12.136 9.838-21.974 21.974-21.974Z"/>
    <path d="M989.808 270.319h44.968v44.968h-44.968zm44.972 0h44.968v44.968h-44.968z"/>
    <path d="M1079.74 270.319h44.968v44.968h-44.968zm44.97 0h44.968v44.968h-44.968zm44.97 0h44.968v44.968h-44.968zm44.97 0h44.968v44.968h-44.968zm89.94 0v22.995c0 12.136-9.84 21.974-21.98 21.974h-22.99v-44.969z"/>
    <path d="M1349.55 270.319v44.969h-22.99c-12.14 0-21.98-9.838-21.98-21.974v-22.995zm0 0h44.968v44.968h-44.968zm44.97 0h44.968v44.968h-44.968zM.511 315.287h44.968v44.968H.511z"/>
    <path d="M45.479 315.287h44.968v44.968H45.479zm44.968 0h44.968v44.968H90.447z"/>
    <path d="M135.415 315.287h44.968v44.968h-44.968zm44.968 0h44.968v44.968h-44.968zm44.968 0h44.968v44.968h-44.968zm44.968 0h44.968v44.968h-44.968z"/>
    <path d="M315.287 315.287h44.968v44.968h-44.968zm67.963 0c12.136 0 21.974 9.838 21.974 21.974v22.995h-44.969v-44.969z"/>
    <path d="M427.197 315.287h22.995v44.969h-44.969v-22.995c0-12.136 9.839-21.974 21.974-21.974Zm22.995 0h44.968v44.968h-44.968zm44.968 0h44.968v44.968H495.16zm44.968 0h44.968v44.968h-44.968zm44.968 0h44.968v44.968h-44.968zm44.968 0h44.968v44.968h-44.968zm44.968 0H720v44.968h-44.968zm44.968 0h44.968v44.968H720zm44.968 0h44.968v44.968h-44.968zm44.968 0h44.968v44.968h-44.968zm44.968 0h44.968v44.968h-44.968zm44.968 0h44.968v44.968h-44.968zm44.968 0h44.968v44.968H944.84zm44.968 0h44.968v44.968h-44.968zm44.972 0h44.968v44.968h-44.968z"/>
    <path d="M1079.74 315.287h44.968v44.968h-44.968zm44.97 0h44.968v44.968h-44.968zm44.97 0h44.968v44.968h-44.968zm44.97 0h44.968v44.968h-44.968zm67.96 0c12.14 0 21.98 9.838 21.98 21.974v22.995h-44.97v-44.969z"/>
    <path d="M1326.56 315.287h22.99v44.969h-44.97v-22.995c0-12.136 9.84-21.974 21.98-21.974Zm22.99 0h44.968v44.968h-44.968zm44.97 0h44.968v44.968h-44.968zM.511 360.256h44.968v44.968H.511z"/>
    <path d="M45.479 360.256h44.968v44.968H45.479zm44.968 0h44.968v44.968H90.447z"/>
    <path d="M135.415 360.256h44.968v44.968h-44.968zm89.937-.001v22.995c0 12.136-9.839 21.974-21.974 21.974h-22.995v-44.969z"/>
    <path d="M270.32 360.255v44.969h-22.995c-12.136 0-21.974-9.838-21.974-21.974v-22.995z"/>
    <path d="M270.319 360.256h44.968v44.968h-44.968z"/>
    <path d="M315.287 360.256h44.968v44.968h-44.968zm44.969 0h44.968v44.968h-44.968zm44.968 0h44.968v44.968h-44.968zm44.968 0h44.968v44.968h-44.968zm44.968 0h44.968v44.968H495.16zm44.968 0h44.968v44.968h-44.968zm89.936-.001v22.995c0 12.136-9.838 21.974-21.973 21.974h-22.995v-44.969zm44.968 0v44.969h-22.995c-12.135 0-21.973-9.838-21.973-21.974v-22.995zm0 .001H720v44.968h-44.968zm44.968 0h44.968v44.968H720zm44.968 0h44.968v44.968h-44.968zm44.968 0h44.968v44.968h-44.968zm44.968 0h44.968v44.968h-44.968zm44.968 0h44.968v44.968h-44.968zm89.937-.001v22.995c0 12.136-9.838 21.974-21.974 21.974H944.84v-44.969z"/>
    <path d="M1034.78 360.255v44.969h-23c-12.134 0-21.972-9.838-21.972-21.974v-22.995zm0 .001h44.968v44.968h-44.968z"/>
    <path d="M1079.74 360.256h44.968v44.968h-44.968zm44.97 0h44.968v44.968h-44.968zm44.97 0h44.968v44.968h-44.968zm44.97 0h44.968v44.968h-44.968zm44.97 0h44.968v44.968h-44.968z"/>
    <path d="M1304.58 360.256h44.968v44.968h-44.968zm44.97 0h44.968v44.968h-44.968zm44.97 0h44.968v44.968h-44.968zM.511 405.224h44.968v44.968H.511z"/>
    <path d="M45.479 405.224h44.968v44.968H45.479zm44.968 0h44.968v44.968H90.447z"/>
    <path d="M135.415 405.224h44.968v44.968h-44.968zm67.963-.001c12.135 0 21.974 9.839 21.974 21.974v22.995h-44.969v-44.969z"/>
    <path d="M247.325 405.223h22.995v44.969h-44.969v-22.995c0-12.135 9.838-21.974 21.974-21.974Z"/>
    <path d="M270.319 405.224h44.968v44.968h-44.968z"/>
    <path d="M315.287 405.224h44.968v44.968h-44.968zm44.969 0h44.968v44.968h-44.968zm44.968 0h44.968v44.968h-44.968zm44.968 0h44.968v44.968h-44.968zm44.968 0h44.968v44.968H495.16zm44.968 0h44.968v44.968h-44.968zm67.963-.001c12.135 0 21.973 9.839 21.973 21.974v22.995h-44.968v-44.969zm43.946 0h22.995v44.969h-44.968v-22.995c0-12.135 9.838-21.974 21.973-21.974Zm22.995.001H720v44.968h-44.968zm44.968 0h44.968v44.968H720zm44.968 0h44.968v44.968h-44.968zm44.968 0h44.968v44.968h-44.968zm44.968 0h44.968v44.968h-44.968zm44.968 0h44.968v44.968h-44.968zm67.963-.001c12.136 0 21.974 9.839 21.974 21.974v22.995H944.84v-44.969z"/>
    <path d="M1011.78 405.223h23v44.969h-44.972v-22.995c0-12.135 9.838-21.974 21.972-21.974Zm23 .001h44.968v44.968h-44.968z"/>
    <path d="M1079.74 405.224h44.968v44.968h-44.968zm44.97 0h44.968v44.968h-44.968zm44.97 0h44.968v44.968h-44.968zm44.97 0h44.968v44.968h-44.968zm44.97 0h44.968v44.968h-44.968z"/>
    <path d="M1304.58 405.224h44.968v44.968h-44.968zm44.97 0h44.968v44.968h-44.968zm44.97 0h44.968v44.968h-44.968zM.511 450.192h44.968v44.968H.511z"/>
    <path d="M45.479 450.192h44.968v44.968H45.479zm44.968 0h44.968v44.968H90.447z"/>
    <path d="M135.415 450.192h44.968v44.968h-44.968zm44.968 0h44.968v44.968h-44.968zm44.968 0h44.968v44.968h-44.968zm44.968 0h44.968v44.968h-44.968z"/>
    <path d="M315.287 450.192h44.968v44.968h-44.968zm44.969 0h44.968v44.968h-44.968zm44.968 0h44.968v44.968h-44.968zm44.968 0h44.968v44.968h-44.968zm44.968 0h44.968v44.968H495.16zm44.968 0h44.968v44.968h-44.968zm44.968 0h44.968v44.968h-44.968zm44.968 0h44.968v44.968h-44.968zm44.968 0H720v44.968h-44.968zm44.968 0h44.968v44.968H720zm44.968 0h44.968v44.968h-44.968zm44.968 0h44.968v44.968h-44.968zm44.968 0h44.968v44.968h-44.968zm44.968 0h44.968v44.968h-44.968zm44.968 0h44.968v44.968H944.84zm44.968 0h44.968v44.968h-44.968zm44.972 0h44.968v44.968h-44.968z"/>
    <path d="M1079.74 450.192h44.968v44.968h-44.968zm44.97 0h44.968v44.968h-44.968zm44.97 0h44.968v44.968h-44.968zm44.97 0h44.968v44.968h-44.968zm44.97 0h44.968v44.968h-44.968z"/>
    <path d="M1304.58 450.192h44.968v44.968h-44.968zm44.97 0h44.968v44.968h-44.968zm44.97 0h44.968v44.968h-44.968zM.511 495.16h44.968v44.968H.511z"/>
    <path d="M45.479 495.16h44.968v44.968H45.479zm44.968 0h44.968v44.968H90.447z"/>
    <path d="M135.415 495.16h44.968v44.968h-44.968zm44.968 0h44.968v44.968h-44.968zm44.968 0h44.968v44.968h-44.968zm44.968 0h44.968v44.968h-44.968z"/>
    <path d="M315.287 495.16h44.968v44.968h-44.968zm44.969 0h44.968v44.968h-44.968zm44.968 0h44.968v44.968h-44.968zm44.968 0h44.968v44.968h-44.968zm44.968 0h44.968v44.968H495.16zm44.968 0h44.968v44.968h-44.968zm44.968 0h44.968v44.968h-44.968zm44.968 0h44.968v44.968h-44.968zm44.968 0H720v44.968h-44.968zm44.968 0h44.968v44.968H720zm44.968 0h44.968v44.968h-44.968zm89.937-.001v22.996c0 12.135-9.839 21.973-21.974 21.973h-22.995v-44.969z"/>
    <path d="M899.873 495.159v44.969h-22.995c-12.136 0-21.974-9.838-21.974-21.973v-22.996z"/>
    <path d="M899.872 495.16h44.968v44.968h-44.968zm44.968 0h44.968v44.968H944.84zm44.968 0h44.968v44.968h-44.968zm44.972 0h44.968v44.968h-44.968z"/>
    <path d="M1079.74 495.16h44.968v44.968h-44.968zm44.97 0h44.968v44.968h-44.968zm44.97 0h44.968v44.968h-44.968zm44.97 0h44.968v44.968h-44.968zm44.97 0h44.968v44.968h-44.968z"/>
    <path d="M1304.58 495.16h44.968v44.968h-44.968zm44.97 0h44.968v44.968h-44.968zm44.97 0h44.968v44.968h-44.968zM.511 540.128h44.968v44.968H.511z"/>
    <path d="M45.479 540.128h44.968v44.968H45.479zm44.968 0h44.968v44.968H90.447z"/>
    <path d="M135.415 540.128h44.968v44.968h-44.968zm44.968 0h44.968v44.968h-44.968zm44.968 0h44.968v44.968h-44.968zm44.968 0h44.968v44.968h-44.968z"/>
    <path d="M315.287 540.128h44.968v44.968h-44.968zm44.969 0h44.968v44.968h-44.968zm44.968 0h44.968v44.968h-44.968zm44.968 0h44.968v44.968h-44.968zm44.968 0h44.968v44.968H495.16zm44.968 0h44.968v44.968h-44.968zm44.968 0h44.968v44.968h-44.968zm44.968 0h44.968v44.968h-44.968zm44.968 0H720v44.968h-44.968zm44.968 0h44.968v44.968H720zm44.968 0h44.968v44.968h-44.968zm67.963 0c12.135 0 21.974 9.838 21.974 21.973v22.995h-44.969v-44.968z"/>
    <path d="M876.878 540.128h22.995v44.968h-44.969v-22.995c0-12.135 9.838-21.973 21.974-21.973Z"/>
    <path d="M899.872 540.128h44.968v44.968h-44.968zm44.968 0h44.968v44.968H944.84zm44.968 0h44.968v44.968h-44.968zm44.972 0h44.968v44.968h-44.968z"/>
    <path d="M1079.74 540.128h44.968v44.968h-44.968zm44.97 0h44.968v44.968h-44.968zm44.97 0h44.968v44.968h-44.968zm44.97 0h44.968v44.968h-44.968zm44.97 0h44.968v44.968h-44.968z"/>
    <path d="M1304.58 540.128h44.968v44.968h-44.968zm44.97 0h44.968v44.968h-44.968zm44.97 0h44.968v44.968h-44.968zM.511 585.096h44.968v44.968H.511z"/>
    <path d="M45.479 585.096h44.968v44.968H45.479zm44.968 0h44.968v44.968H90.447z"/>
    <path d="M135.415 585.096h44.968v44.968h-44.968zm44.968 0h44.968v44.968h-44.968zm44.968 0h44.968v44.968h-44.968zm44.968 0h44.968v44.968h-44.968z"/>
    <path d="M315.287 585.096h44.968v44.968h-44.968zm44.969 0h44.968v44.968h-44.968zm44.968 0h44.968v44.968h-44.968zm44.968 0h44.968v44.968h-44.968zm44.968 0h44.968v44.968H495.16zm44.968 0h44.968v44.968h-44.968zm44.968 0h44.968v44.968h-44.968zm44.968 0h44.968v44.968h-44.968zm44.968 0H720v44.968h-44.968zm44.968 0h44.968v44.968H720zm44.968 0h44.968v44.968h-44.968zm44.968 0h44.968v44.968h-44.968zm44.968 0h44.968v44.968h-44.968zm44.968 0h44.968v44.968h-44.968zm44.968 0h44.968v44.968H944.84zm44.968 0h44.968v44.968h-44.968zm44.972 0h44.968v44.968h-44.968z"/>
    <path d="M1079.74 585.096h44.968v44.968h-44.968zm44.97 0h44.968v44.968h-44.968zm44.97 0h44.968v44.968h-44.968zm44.97 0h44.968v44.968h-44.968zm44.97 0h44.968v44.968h-44.968z"/>
    <path d="M1304.58 585.096h44.968v44.968h-44.968zm44.97 0h44.968v44.968h-44.968zm44.97 0h44.968v44.968h-44.968zM.511 630.064h44.968v44.968H.511z"/>
    <path d="M45.479 630.064h44.968v44.968H45.479zm44.968 0h44.968v44.968H90.447z"/>
    <path d="M135.415 630.064h44.968v44.968h-44.968zm44.968 0h44.968v44.968h-44.968zm44.968 0h44.968v44.968h-44.968zm44.968 0h44.968v44.968h-44.968z"/>
    <path d="M315.287 630.064h44.968v44.968h-44.968zm44.969 0h44.968v44.968h-44.968zm44.968 0h44.968v44.968h-44.968zm44.968 0h44.968v44.968h-44.968zm44.968 0h44.968v44.968H495.16zm44.968 0h44.968v44.968h-44.968zm44.968 0h44.968v44.968h-44.968zm44.968 0h44.968v44.968h-44.968zm44.968 0H720v44.968h-44.968zm44.968 0h44.968v44.968H720zm44.968 0h44.968v44.968h-44.968zm44.968 0h44.968v44.968h-44.968zm44.968 0h44.968v44.968h-44.968zm44.968 0h44.968v44.968h-44.968zm44.968 0h44.968v44.968H944.84zm44.968 0h44.968v44.968h-44.968zm44.972 0h44.968v44.968h-44.968z"/>
    <path d="M1079.74 630.064h44.968v44.968h-44.968zm44.97 0h44.968v44.968h-44.968zm44.97 0h44.968v44.968h-44.968zm44.97 0h44.968v44.968h-44.968zm44.97 0h44.968v44.968h-44.968z"/>
    <path d="M1304.58 630.064h44.968v44.968h-44.968zm44.97 0h44.968v44.968h-44.968zm44.97 0h44.968v44.968h-44.968zM.511 675.032h44.968V720H.511z"/>
    <path d="M45.479 675.032h44.968V720H45.479zm44.968 0h44.968V720H90.447z"/>
    <path d="M135.415 675.032h44.968V720h-44.968zm44.968 0h44.968V720h-44.968zm44.968 0h44.968V720h-44.968zm44.968 0h44.968V720h-44.968z"/>
    <path d="M315.287 675.032h44.968V720h-44.968zm44.969 0h44.968V720h-44.968zm44.968 0h44.968V720h-44.968zm44.968 0h44.968V720h-44.968zm44.968 0h44.968V720H495.16zm44.968 0h44.968V720h-44.968zm44.968 0h44.968V720h-44.968zm44.968 0h44.968V720h-44.968zm44.968 0H720V720h-44.968zm44.968 0h44.968V720H720zm44.968 0h44.968V720h-44.968zm44.968 0h44.968V720h-44.968zm44.968 0h44.968V720h-44.968zm44.968 0h44.968V720h-44.968zm44.968 0h44.968V720H944.84zm44.968 0h44.968V720h-44.968zm44.972 0h44.968V720h-44.968z"/>
    <path d="M1079.74 675.032h44.968V720h-44.968zm44.97 0h44.968V720h-44.968zm44.97 0h44.968V720h-44.968zm44.97 0h44.968V720h-44.968zm44.97 0h44.968V720h-44.968z"/>
    <path d="M1304.58 675.032h44.968V720h-44.968zm44.97 0h44.968V720h-44.968zm44.97 0h44.968V720h-44.968zM.511 720h44.968v44.968H.511z"/>
    <path d="M45.479 720h44.968v44.968H45.479zm44.968 0h44.968v44.968H90.447z"/>
    <path d="M135.415 720h44.968v44.968h-44.968zm44.968 0h44.968v44.968h-44.968zm44.968 0h44.968v44.968h-44.968zm44.968 0h44.968v44.968h-44.968z"/>
    <path d="M315.287 720h44.968v44.968h-44.968zm44.969 0h44.968v44.968h-44.968zm44.968 0h44.968v44.968h-44.968zm44.968 0h44.968v44.968h-44.968zm44.968 0h44.968v44.968H495.16zm44.968 0h44.968v44.968h-44.968zm44.968 0h44.968v44.968h-44.968zm44.968 0h44.968v44.968h-44.968zm44.968 0H720v44.968h-44.968zM720 720h44.968v44.968H720zm44.968 0h44.968v44.968h-44.968zm44.968 0h44.968v44.968h-44.968zm44.968 0h44.968v44.968h-44.968zm44.968 0h44.968v44.968h-44.968zm44.968 0h44.968v44.968H944.84zm44.968 0h44.968v44.968h-44.968zm44.972 0h44.968v44.968h-44.968z"/>
    <path d="M1079.74 720h44.968v44.968h-44.968zm44.97 0h44.968v44.968h-44.968zm44.97 0h44.968v44.968h-44.968zm44.97 0h44.968v44.968h-44.968zm44.97 0h44.968v44.968h-44.968z"/>
    <path d="M1304.58 720h44.968v44.968h-44.968zm44.97 0h44.968v44.968h-44.968zm44.97 0h44.968v44.968h-44.968z"/>
  </g>
  <defs>
    <clipPath id="a">
      <path fill="#fff" d="M0 0h1440v781H0z"/>
    </clipPath>
  </defs>
</svg>
