<svg xmlns="http://www.w3.org/2000/svg" width="1440" height="721" fill="none" aria-hidden="true"><g stroke="#fff" clip-path="url(#a)"><path d="M1 1h44v44H1zm44 0h45v44H45zm45 0h45v44H90zm45 0h45v44h-45zm45 0h45v44h-45zm45 0h45v44h-45zm45 0h45v44h-45zm45 0h45v44h-45zm45 0h45v44h-45zm45 0h45v44h-45zm45 0h45v44h-45zm45 0h45v44h-45zm45 0h45v44h-45zm45 0h45v44h-45zm45 0h45v44h-45zm45 0h45v44h-45zm45 0h45v44h-45zm45 0h45v44h-45zm45 0h45v44h-45zm45 0h45v44h-45zm45 0h45v44h-45zm45 0h45v44h-45zm45 0h45v44h-45zm45 0h45v44h-45zm45 0h45v44h-45zm45 0h45v44h-45zm45 0h45v44h-45zm45 0h45v44h-45zm45 0h45v44h-45zm45 0h45v44h-45zm45 0h45v44h-45zm45 0h44v44h-44zM1 45h44v45H1zm44 0h45v45H45zm45 0h45v45H90zm45 0h45v45h-45zm45 0h45v45h-45zm45 0h45v45h-45zm45 0h45v45h-45zm45 0h45v45h-45zm45 0h45v45h-45zm45 0h45v45h-45zm45 0h45v45h-45zm45 0h45v45h-45zm45 0h45v45h-45zm45 0h45v45h-45zm45 0h45v45h-45zm45 0h45v45h-45zm45 0h45v45h-45zm45 0h45v45h-45zm45 0h45v45h-45zm45 0h45v45h-45zm45 0h45v45h-45zm45 0h45v45h-45zm45 0h45v45h-45zm45 0h45v45h-45zm45 0h45v45h-45zm45 0h45v45h-45zm45 0h45v45h-45zm45 0h45v45h-45zm45 0h45v45h-45zm45 0h45v45h-45zm45 0h45v45h-45zm45 0h44v45h-44zM1 90h44v45H1zm44 0h45v45H45zm45 0h45v45H90zm45 0h45v45h-45zm90 0v23q-1 21-22 22h-23V90zm45 0v45h-23c-12 0-22-9-22-22V90zm0 0h45v45h-45zm45 0h45v45h-45zm45 0h45v45h-45zm45 0h45v45h-45zm45 0h45v45h-45zm45 0h45v45h-45zm45 0h45v45h-45zm90 0v23c0 13-10 22-22 22h-23V90zm45 0v45h-23c-12 0-22-9-22-22V90zm0 0h45v45h-45zm45 0h45v45h-45zm45 0h45v45h-45zm45 0h45v45h-45zm45 0h45v45h-45zm45 0h45v45h-45zm45 0h45v45h-45zm90 0v23c0 13-10 22-22 22h-23V90zm45 0v45h-23c-12 0-22-9-22-22V90zm0 0h45v45h-45zm45 0h45v45h-45zm45 0h45v45h-45zm45 0h45v45h-45zm45 0h45v45h-45zm45 0h45v45h-45zm45 0h45v45h-45zm45 0h44v45h-44zM1 135h44v45H1zm44 0h45v45H45zm45 0h45v45H90zm45 0h45v45h-45zm68 0c13 0 22 10 22 22v23h-45v-45zm44 0h23v45h-45v-23c0-12 10-22 22-22Zm23 0h45v45h-45zm45 0h45v45h-45zm45 0h45v45h-45zm45 0h45v45h-45zm45 0h45v45h-45zm45 0h45v45h-45zm45 0h45v45h-45zm68 0c12 0 22 10 22 22v23h-45v-45zm44 0h23v45h-45v-23c0-12 10-22 22-22Zm23 0h45v45h-45zm45 0h45v45h-45zm45 0h45v45h-45zm45 0h45v45h-45zm45 0h45v45h-45zm45 0h45v45h-45zm45 0h45v45h-45zm68 0c12 0 22 10 22 22v23h-45v-45zm44 0h23v45h-45v-23c0-12 10-22 22-22Zm23 0h45v45h-45zm45 0h45v45h-45zm45 0h45v45h-45zm45 0h45v45h-45zm45 0h45v45h-45zm45 0h45v45h-45zm45 0h45v45h-45zm45 0h44v45h-44zM1 180h44v45H1zm44 0h45v45H45zm45 0h45v45H90zm45 0h45v45h-45zm45 0h45v45h-45zm45 0h45v45h-45zm45 0h45v45h-45zm45 0h45v45h-45zm45 0h45v45h-45zm45 0h45v45h-45zm45 0h45v45h-45zm45 0h45v45h-45zm45 0h45v45h-45zm45 0h45v45h-45zm45 0h45v45h-45zm45 0h45v45h-45zm45 0h45v45h-45zm45 0h45v45h-45zm45 0h45v45h-45zm45 0h45v45h-45zm45 0h45v45h-45zm45 0h45v45h-45zm45 0h45v45h-45zm45 0h45v45h-45zm45 0h45v45h-45zm45 0h45v45h-45zm45 0h45v45h-45zm45 0h45v45h-45zm45 0h45v45h-45zm45 0h45v45h-45zm45 0h45v45h-45zm45 0h44v45h-44zM1 225h44v45H1zm44 0h45v45H45zm45 0h45v45H90zm45 0h45v45h-45zm45 0h45v45h-45zm45 0h45v45h-45zm45 0h45v45h-45zm45 0h45v45h-45zm45 0h45v45h-45zm45 0h45v45h-45zm45 0h45v45h-45zm45 0h45v45h-45zm45 0h45v45h-45zm45 0h45v45h-45zm45 0h45v45h-45zm45 0h45v45h-45zm45 0h45v45h-45zm45 0h45v45h-45zm45 0h45v45h-45zm45 0h45v45h-45zm90 0v23c0 12-10 22-22 22h-23v-45zm45 0v45h-23c-12 0-22-10-22-22v-23zm0 0h45v45h-45zm45 0h45v45h-45zm45 0h45v45h-45zm45 0h45v45h-45zm45 0h45v45h-45zm45 0h45v45h-45zm45 0h45v45h-45zm45 0h45v45h-45zm45 0h45v45h-45zm45 0h44v45h-44zM1 270h44v45H1zm44 0h45v45H45zm45 0h45v45H90zm45 0h45v45h-45zm45 0h45v45h-45zm45 0h45v45h-45zm45 0h45v45h-45zm45 0h45v45h-45zm90 0v23c0 12-10 22-22 22h-23v-45zm45 0v45h-23c-12 0-22-10-22-22v-23zm0 0h45v45h-45zm45 0h45v45h-45zm45 0h45v45h-45zm45 0h45v45h-45zm45 0h45v45h-45zm45 0h45v45h-45zm45 0h45v45h-45zm45 0h45v45h-45zm45 0h45v45h-45zm45 0h45v45h-45zm68 0c12 0 22 10 22 22v23h-45v-45zm44 0h23v45h-45v-23c0-12 10-22 22-22Zm23 0h45v45h-45zm45 0h45v45h-45zm45 0h45v45h-45zm45 0h45v45h-45zm45 0h45v45h-45zm45 0h45v45h-45zm90 0v23c0 12-10 22-22 22h-23v-45zm45 0v45h-23c-13 0-22-10-22-22v-23zm0 0h45v45h-45zm45 0h44v45h-44zM1 315h44v45H1zm44 0h45v45H45zm45 0h45v45H90zm45 0h45v45h-45zm45 0h45v45h-45zm45 0h45v45h-45zm45 0h45v45h-45zm45 0h45v45h-45zm68 0c12 0 22 10 22 22v23h-45v-45zm44 0h23v45h-45v-23c0-12 10-22 22-22Zm23 0h45v45h-45zm45 0h45v45h-45zm45 0h45v45h-45zm45 0h45v45h-45zm45 0h45v45h-45zm45 0h45v45h-45zm45 0h45v45h-45zm45 0h45v45h-45zm45 0h45v45h-45zm45 0h45v45h-45zm45 0h45v45h-45zm45 0h45v45h-45zm45 0h45v45h-45zm45 0h45v45h-45zm45 0h45v45h-45zm45 0h45v45h-45zm45 0h45v45h-45zm45 0h45v45h-45zm68 0c12 0 22 10 22 22v23h-45v-45zm44 0h23v45h-45v-23c0-12 9-22 22-22Zm23 0h45v45h-45zm45 0h44v45h-44zM1 360h44v45H1zm44 0h45v45H45zm45 0h45v45H90zm45 0h45v45h-45zm90 0v23c0 12-9 22-22 22h-23v-45zm45 0v45h-23c-12 0-22-10-22-22v-23zm0 0h45v45h-45zm45 0h45v45h-45zm45 0h45v45h-45zm45 0h45v45h-45zm45 0h45v45h-45zm45 0h45v45h-45zm45 0h45v45h-45zm90 0v23c0 12-10 22-22 22h-23v-45zm45 0v45h-23c-12 0-22-10-22-22v-23zm0 0h45v45h-45zm45 0h45v45h-45zm45 0h45v45h-45zm45 0h45v45h-45zm45 0h45v45h-45zm45 0h45v45h-45zm90 0v23c0 12-10 22-22 22h-23v-45zm45 0v45h-23c-12 0-22-10-22-22v-23zm0 0h45v45h-45zm45 0h45v45h-45zm45 0h45v45h-45zm45 0h45v45h-45zm45 0h45v45h-45zm45 0h45v45h-45zm45 0h45v45h-45zm45 0h45v45h-45zm45 0h44v45h-44zM1 405h44v45H1zm44 0h45v45H45zm45 0h45v45H90zm45 0h45v45h-45zm68 0c13 0 22 10 22 22v23h-45v-45zm44 0h23v45h-45v-23c0-12 10-22 22-22Zm23 0h45v45h-45zm45 0h45v45h-45zm45 0h45v45h-45zm45 0h45v45h-45zm45 0h45v45h-45zm45 0h45v45h-45zm45 0h45v45h-45zm68 0c12 0 22 10 22 22v23h-45v-45zm44 0h23v45h-45v-23c0-12 10-22 22-22Zm23 0h45v45h-45zm45 0h45v45h-45zm45 0h45v45h-45zm45 0h45v45h-45zm45 0h45v45h-45zm45 0h45v45h-45zm68 0c12 0 22 10 22 22v23h-45v-45zm44 0h23v45h-45v-23c0-12 10-22 22-22Zm23 0h45v45h-45zm45 0h45v45h-45zm45 0h45v45h-45zm45 0h45v45h-45zm45 0h45v45h-45zm45 0h45v45h-45zm45 0h45v45h-45zm45 0h45v45h-45zm45 0h44v45h-44zM1 450h44v45H1zm44 0h45v45H45zm45 0h45v45H90zm45 0h45v45h-45zm45 0h45v45h-45zm45 0h45v45h-45zm45 0h45v45h-45zm45 0h45v45h-45zm45 0h45v45h-45zm45 0h45v45h-45zm45 0h45v45h-45zm45 0h45v45h-45zm45 0h45v45h-45zm45 0h45v45h-45zm45 0h45v45h-45zm45 0h45v45h-45zm45 0h45v45h-45zm45 0h45v45h-45zm45 0h45v45h-45zm45 0h45v45h-45zm45 0h45v45h-45zm45 0h45v45h-45zm45 0h45v45h-45zm45 0h45v45h-45zm45 0h45v45h-45zm45 0h45v45h-45zm45 0h45v45h-45zm45 0h45v45h-45zm45 0h45v45h-45zm45 0h45v45h-45zm45 0h45v45h-45zm45 0h44v45h-44zM1 495h44v45H1zm44 0h45v45H45zm45 0h45v45H90zm45 0h45v45h-45zm45 0h45v45h-45zm45 0h45v45h-45zm45 0h45v45h-45zm45 0h45v45h-45zm45 0h45v45h-45zm45 0h45v45h-45zm45 0h45v45h-45zm45 0h45v45h-45zm45 0h45v45h-45zm45 0h45v45h-45zm45 0h45v45h-45zm45 0h45v45h-45zm45 0h45v45h-45zm45 0h45v45h-45zm90 0v23c0 12-10 22-22 22h-23v-45zm45 0v45h-23c-12 0-22-10-22-22v-23zm0 0h45v45h-45zm45 0h45v45h-45zm45 0h45v45h-45zm45 0h45v45h-45zm45 0h45v45h-45zm45 0h45v45h-45zm45 0h45v45h-45zm45 0h45v45h-45zm45 0h45v45h-45zm45 0h45v45h-45zm45 0h45v45h-45zm45 0h44v45h-44zM1 540h44v45H1zm44 0h45v45H45zm45 0h45v45H90zm45 0h45v45h-45zm45 0h45v45h-45zm45 0h45v45h-45zm45 0h45v45h-45zm45 0h45v45h-45zm45 0h45v45h-45zm45 0h45v45h-45zm45 0h45v45h-45zm45 0h45v45h-45zm45 0h45v45h-45zm45 0h45v45h-45zm45 0h45v45h-45zm45 0h45v45h-45zm45 0h45v45h-45zm45 0h45v45h-45zm68 0c12 0 22 10 22 22v23h-45v-45zm44 0h23v45h-45v-23c0-12 10-22 22-22Zm23 0h45v45h-45zm45 0h45v45h-45zm45 0h45v45h-45zm45 0h45v45h-45zm45 0h45v45h-45zm45 0h45v45h-45zm45 0h45v45h-45zm45 0h45v45h-45zm45 0h45v45h-45zm45 0h45v45h-45zm45 0h45v45h-45zm45 0h44v45h-44zM1 585h44v45H1zm44 0h45v45H45zm45 0h45v45H90zm45 0h45v45h-45zm45 0h45v45h-45zm45 0h45v45h-45zm45 0h45v45h-45zm45 0h45v45h-45zm45 0h45v45h-45zm45 0h45v45h-45zm45 0h45v45h-45zm45 0h45v45h-45zm45 0h45v45h-45zm45 0h45v45h-45zm45 0h45v45h-45zm45 0h45v45h-45zm45 0h45v45h-45zm45 0h45v45h-45zm45 0h45v45h-45zm45 0h45v45h-45zm45 0h45v45h-45zm45 0h45v45h-45zm45 0h45v45h-45zm45 0h45v45h-45zm45 0h45v45h-45zm45 0h45v45h-45zm45 0h45v45h-45zm45 0h45v45h-45zm45 0h45v45h-45zm45 0h45v45h-45zm45 0h45v45h-45zm45 0h44v45h-44zM1 630h44v45H1zm44 0h45v45H45zm45 0h45v45H90zm45 0h45v45h-45zm45 0h45v45h-45zm45 0h45v45h-45zm45 0h45v45h-45zm45 0h45v45h-45zm45 0h45v45h-45zm45 0h45v45h-45zm45 0h45v45h-45zm45 0h45v45h-45zm45 0h45v45h-45zm45 0h45v45h-45zm45 0h45v45h-45zm45 0h45v45h-45zm45 0h45v45h-45zm45 0h45v45h-45zm45 0h45v45h-45zm45 0h45v45h-45zm45 0h45v45h-45zm45 0h45v45h-45zm45 0h45v45h-45zm45 0h45v45h-45zm45 0h45v45h-45zm45 0h45v45h-45zm45 0h45v45h-45zm45 0h45v45h-45zm45 0h45v45h-45zm45 0h45v45h-45zm45 0h45v45h-45zm45 0h44v45h-44zM1 675h44v45H1zm44 0h45v45H45zm45 0h45v45H90zm45 0h45v45h-45zm45 0h45v45h-45zm45 0h45v45h-45zm45 0h45v45h-45zm45 0h45v45h-45zm45 0h45v45h-45zm45 0h45v45h-45zm45 0h45v45h-45zm45 0h45v45h-45zm45 0h45v45h-45zm45 0h45v45h-45zm45 0h45v45h-45zm45 0h45v45h-45zm45 0h45v45h-45zm45 0h45v45h-45zm45 0h45v45h-45zm45 0h45v45h-45zm45 0h45v45h-45zm45 0h45v45h-45zm45 0h45v45h-45zm45 0h45v45h-45zm45 0h45v45h-45zm45 0h45v45h-45zm45 0h45v45h-45zm45 0h45v45h-45zm45 0h45v45h-45zm45 0h45v45h-45zm45 0h45v45h-45zm45 0h44v45h-44zM1 720h44v45H1zm44 0h45v45H45zm45 0h45v45H90zm45 0h45v45h-45zm45 0h45v45h-45zm45 0h45v45h-45zm45 0h45v45h-45zm45 0h45v45h-45zm45 0h45v45h-45zm45 0h45v45h-45zm45 0h45v45h-45zm45 0h45v45h-45zm45 0h45v45h-45zm45 0h45v45h-45zm45 0h45v45h-45zm45 0h45v45h-45zm45 0h45v45h-45zm45 0h45v45h-45zm45 0h45v45h-45zm45 0h45v45h-45zm45 0h45v45h-45zm45 0h45v45h-45zm45 0h45v45h-45zm45 0h45v45h-45zm45 0h45v45h-45zm45 0h45v45h-45zm45 0h45v45h-45zm45 0h45v45h-45zm45 0h45v45h-45zm45 0h45v45h-45zm45 0h45v45h-45zm45 0h44v45h-44z"/></g><defs><clipPath id="a"><path fill="#fff" d="M0 0h1440v781H0z"/></clipPath></defs></svg>