<svg xmlns="http://www.w3.org/2000/svg" width="1440" height="721" fill="none" aria-hidden="true"><g stroke="#EFF8FF" stroke-width="1.022" clip-path="url(#a)"><path d="M.511.511h44.968v44.968H.511z"/><path d="M45.479.511h44.968v44.968H45.479zM90.447.511h44.968v44.968H90.447z"/><path d="M135.415.511h44.968v44.968h-44.968zM180.383.511h44.968v44.968h-44.968zM225.351.511h44.968v44.968h-44.968zM270.319.511h44.968v44.968h-44.968z"/><path d="M315.287.511h44.968v44.968h-44.968zM360.256.511h44.968v44.968h-44.968zM405.224.511h44.968v44.968h-44.968zM450.192.511h44.968v44.968h-44.968zM495.16.511h44.968v44.968H495.16zM540.128.511h44.968v44.968h-44.968zM585.096.511h44.968v44.968h-44.968zM630.064.511h44.968v44.968h-44.968zM675.032.511H720v44.968h-44.968zM720 .511h44.968v44.968H720zM764.968.511h44.968v44.968h-44.968zM809.936.511h44.968v44.968h-44.968zM854.904.511h44.968v44.968h-44.968zM899.872.511h44.968v44.968h-44.968zM944.84.511h44.968v44.968H944.84zM989.808.511h44.968v44.968h-44.968zM1034.78.511h44.968v44.968h-44.968z"/><path d="M1079.74.511h44.968v44.968h-44.968zM1124.71.511h44.968v44.968h-44.968zM1169.68.511h44.968v44.968h-44.968zM1214.65.511h44.968v44.968h-44.968zM1259.62.511h44.968v44.968h-44.968z"/><path d="M1304.58.511h44.968v44.968h-44.968zM1349.55.511h44.968v44.968h-44.968zM1394.52.511h44.968v44.968h-44.968zM.511 45.479h44.968v44.968H.511z"/><path d="M45.479 45.479h44.968v44.968H45.479zM90.447 45.479h44.968v44.968H90.447z"/><path d="M135.415 45.479h44.968v44.968h-44.968zM180.383 45.479h44.968v44.968h-44.968zM225.351 45.479h44.968v44.968h-44.968zM270.319 45.479h44.968v44.968h-44.968z"/><path d="M315.287 45.479h44.968v44.968h-44.968zM360.256 45.479h44.968v44.968h-44.968zM405.224 45.479h44.968v44.968h-44.968zM450.192 45.479h44.968v44.968h-44.968zM495.16 45.479h44.968v44.968H495.16zM540.128 45.479h44.968v44.968h-44.968zM585.096 45.479h44.968v44.968h-44.968zM630.064 45.479h44.968v44.968h-44.968zM675.032 45.479H720v44.968h-44.968zM720 45.479h44.968v44.968H720zM764.968 45.479h44.968v44.968h-44.968zM809.936 45.479h44.968v44.968h-44.968zM854.904 45.479h44.968v44.968h-44.968zM899.872 45.479h44.968v44.968h-44.968zM944.84 45.479h44.968v44.968H944.84zM989.808 45.479h44.968v44.968h-44.968zM1034.78 45.479h44.968v44.968h-44.968z"/><path d="M1079.74 45.479h44.968v44.968h-44.968zM1124.71 45.479h44.968v44.968h-44.968zM1169.68 45.479h44.968v44.968h-44.968zM1214.65 45.479h44.968v44.968h-44.968zM1259.62 45.479h44.968v44.968h-44.968z"/><path d="M1304.58 45.479h44.968v44.968h-44.968zM1349.55 45.479h44.968v44.968h-44.968zM1394.52 45.479h44.968v44.968h-44.968zM.511 90.447h44.968v44.968H.511z"/><path d="M45.479 90.447h44.968v44.968H45.479zM90.447 90.447h44.968v44.968H90.447z"/><path d="M135.415 90.447h44.968v44.968h-44.968zM225.352 90.447v22.995c0 12.135-9.839 21.974-21.974 21.974h-22.995v-44.97h44.969Z"/><path d="M270.32 90.447v44.969h-22.995c-12.136 0-21.974-9.839-21.974-21.974V90.447h44.969Z"/><path d="M270.319 90.447h44.968v44.968h-44.968z"/><path d="M315.287 90.447h44.968v44.968h-44.968zM360.256 90.447h44.968v44.968h-44.968zM405.224 90.447h44.968v44.968h-44.968zM450.192 90.447h44.968v44.968h-44.968zM495.16 90.447h44.968v44.968H495.16zM540.128 90.447h44.968v44.968h-44.968zM630.064 90.447v22.995c0 12.135-9.838 21.974-21.973 21.974h-22.995v-44.97h44.968ZM675.032 90.447v44.969h-22.995c-12.135 0-21.973-9.839-21.973-21.974V90.447h44.968ZM675.032 90.447H720v44.968h-44.968zM720 90.447h44.968v44.968H720zM764.968 90.447h44.968v44.968h-44.968zM809.936 90.447h44.968v44.968h-44.968zM854.904 90.447h44.968v44.968h-44.968zM899.872 90.447h44.968v44.968h-44.968zM944.84 90.447h44.968v44.968H944.84zM1034.78 90.447v22.995c0 12.135-9.84 21.974-21.98 21.974h-22.992v-44.97h44.972ZM1079.74 90.447v44.969h-22.99c-12.14 0-21.97-9.839-21.97-21.974V90.447h44.96ZM1079.74 90.447h44.968v44.968h-44.968zM1124.71 90.447h44.968v44.968h-44.968zM1169.68 90.447h44.968v44.968h-44.968zM1214.65 90.447h44.968v44.968h-44.968zM1259.62 90.447h44.968v44.968h-44.968z"/><path d="M1304.58 90.447h44.968v44.968h-44.968zM1349.55 90.447h44.968v44.968h-44.968zM1394.52 90.447h44.968v44.968h-44.968zM.511 135.415h44.968v44.968H.511z"/><path d="M45.479 135.415h44.968v44.968H45.479zM90.447 135.415h44.968v44.968H90.447z"/><path d="M135.415 135.415h44.968v44.968h-44.968zM203.378 135.415c12.135 0 21.974 9.838 21.974 21.974v22.995h-44.969v-44.969h22.995Z"/><path d="M247.325 135.415h22.995v44.969h-44.969v-22.995c0-12.136 9.838-21.974 21.974-21.974Z"/><path d="M270.319 135.415h44.968v44.968h-44.968z"/><path d="M315.287 135.415h44.968v44.968h-44.968zM360.256 135.415h44.968v44.968h-44.968zM405.224 135.415h44.968v44.968h-44.968zM450.192 135.415h44.968v44.968h-44.968zM495.16 135.415h44.968v44.968H495.16zM540.128 135.415h44.968v44.968h-44.968zM608.091 135.415c12.135 0 21.973 9.838 21.973 21.974v22.995h-44.968v-44.969h22.995ZM652.037 135.415h22.995v44.969h-44.968v-22.995c0-12.136 9.838-21.974 21.973-21.974ZM675.032 135.415H720v44.968h-44.968zM720 135.415h44.968v44.968H720zM764.968 135.415h44.968v44.968h-44.968zM809.936 135.415h44.968v44.968h-44.968zM854.904 135.415h44.968v44.968h-44.968zM899.872 135.415h44.968v44.968h-44.968zM944.84 135.415h44.968v44.968H944.84zM1012.8 135.415c12.14 0 21.98 9.838 21.98 21.974v22.995h-44.972v-44.969h22.992ZM1056.75 135.415h22.99v44.969h-44.96v-22.995c0-12.136 9.83-21.974 21.97-21.974ZM1079.74 135.415h44.968v44.968h-44.968zM1124.71 135.415h44.968v44.968h-44.968zM1169.68 135.415h44.968v44.968h-44.968zM1214.65 135.415h44.968v44.968h-44.968zM1259.62 135.415h44.968v44.968h-44.968z"/><path d="M1304.58 135.415h44.968v44.968h-44.968zM1349.55 135.415h44.968v44.968h-44.968zM1394.52 135.415h44.968v44.968h-44.968zM.511 180.383h44.968v44.968H.511z"/><path d="M45.479 180.383h44.968v44.968H45.479zM90.447 180.383h44.968v44.968H90.447z"/><path d="M135.415 180.383h44.968v44.968h-44.968zM180.383 180.383h44.968v44.968h-44.968zM225.351 180.383h44.968v44.968h-44.968zM270.319 180.383h44.968v44.968h-44.968z"/><path d="M315.287 180.383h44.968v44.968h-44.968zM360.256 180.383h44.968v44.968h-44.968zM405.224 180.383h44.968v44.968h-44.968zM450.192 180.383h44.968v44.968h-44.968zM495.16 180.383h44.968v44.968H495.16zM540.128 180.383h44.968v44.968h-44.968zM585.096 180.383h44.968v44.968h-44.968zM630.064 180.383h44.968v44.968h-44.968zM675.032 180.383H720v44.968h-44.968zM720 180.383h44.968v44.968H720zM764.968 180.383h44.968v44.968h-44.968zM809.936 180.383h44.968v44.968h-44.968zM854.904 180.383h44.968v44.968h-44.968zM899.872 180.383h44.968v44.968h-44.968zM944.84 180.383h44.968v44.968H944.84zM989.808 180.383h44.968v44.968h-44.968zM1034.78 180.383h44.968v44.968h-44.968z"/><path d="M1079.74 180.383h44.968v44.968h-44.968zM1124.71 180.383h44.968v44.968h-44.968zM1169.68 180.383h44.968v44.968h-44.968zM1214.65 180.383h44.968v44.968h-44.968zM1259.62 180.383h44.968v44.968h-44.968z"/><path d="M1304.58 180.383h44.968v44.968h-44.968zM1349.55 180.383h44.968v44.968h-44.968zM1394.52 180.383h44.968v44.968h-44.968zM.511 225.351h44.968v44.968H.511z"/><path d="M45.479 225.351h44.968v44.968H45.479zM90.447 225.351h44.968v44.968H90.447z"/><path d="M135.415 225.351h44.968v44.968h-44.968zM180.383 225.351h44.968v44.968h-44.968zM225.351 225.351h44.968v44.968h-44.968zM270.319 225.351h44.968v44.968h-44.968z"/><path d="M315.287 225.351h44.968v44.968h-44.968zM360.256 225.351h44.968v44.968h-44.968zM405.224 225.351h44.968v44.968h-44.968zM450.192 225.351h44.968v44.968h-44.968zM495.16 225.351h44.968v44.968H495.16zM540.128 225.351h44.968v44.968h-44.968zM585.096 225.351h44.968v44.968h-44.968zM630.064 225.351h44.968v44.968h-44.968zM675.032 225.351H720v44.968h-44.968zM720 225.351h44.968v44.968H720zM764.968 225.351h44.968v44.968h-44.968zM809.936 225.351h44.968v44.968h-44.968zM854.904 225.351h44.968v44.968h-44.968zM944.841 225.351v22.995c0 12.136-9.838 21.974-21.974 21.974h-22.995v-44.969h44.969Z"/><path d="M989.809 225.351v44.969h-22.995c-12.136 0-21.974-9.838-21.974-21.974v-22.995h44.969Z"/><path d="M989.808 225.351h44.968v44.968h-44.968zM1034.78 225.351h44.968v44.968h-44.968z"/><path d="M1079.74 225.351h44.968v44.968h-44.968zM1124.71 225.351h44.968v44.968h-44.968zM1169.68 225.351h44.968v44.968h-44.968zM1214.65 225.351h44.968v44.968h-44.968zM1259.62 225.351h44.968v44.968h-44.968z"/><path d="M1304.58 225.351h44.968v44.968h-44.968zM1349.55 225.351h44.968v44.968h-44.968zM1394.52 225.351h44.968v44.968h-44.968zM.511 270.319h44.968v44.968H.511z"/><path d="M45.479 270.319h44.968v44.968H45.479zM90.447 270.319h44.968v44.968H90.447z"/><path d="M135.415 270.319h44.968v44.968h-44.968zM180.383 270.319h44.968v44.968h-44.968zM225.351 270.319h44.968v44.968h-44.968zM270.319 270.319h44.968v44.968h-44.968z"/><path d="M315.287 270.319h44.968v44.968h-44.968zM405.224 270.319v22.995c0 12.136-9.838 21.974-21.974 21.974h-22.995v-44.969h44.969Z"/><path d="M450.192 270.319v44.969h-22.995c-12.135 0-21.974-9.838-21.974-21.974v-22.995h44.969ZM450.192 270.319h44.968v44.968h-44.968zM495.16 270.319h44.968v44.968H495.16zM540.128 270.319h44.968v44.968h-44.968zM585.096 270.319h44.968v44.968h-44.968zM630.064 270.319h44.968v44.968h-44.968zM675.032 270.319H720v44.968h-44.968zM720 270.319h44.968v44.968H720zM764.968 270.319h44.968v44.968h-44.968zM809.936 270.319h44.968v44.968h-44.968zM854.904 270.319h44.968v44.968h-44.968zM922.867 270.319c12.136 0 21.974 9.838 21.974 21.974v22.995h-44.969v-44.969h22.995Z"/><path d="M966.814 270.319h22.995v44.969H944.84v-22.995c0-12.136 9.838-21.974 21.974-21.974Z"/><path d="M989.808 270.319h44.968v44.968h-44.968zM1034.78 270.319h44.968v44.968h-44.968z"/><path d="M1079.74 270.319h44.968v44.968h-44.968zM1124.71 270.319h44.968v44.968h-44.968zM1169.68 270.319h44.968v44.968h-44.968zM1214.65 270.319h44.968v44.968h-44.968zM1304.59 270.319v22.995c0 12.136-9.84 21.974-21.98 21.974h-22.99v-44.969h44.97Z"/><path d="M1349.55 270.319v44.969h-22.99c-12.14 0-21.98-9.838-21.98-21.974v-22.995h44.97ZM1349.55 270.319h44.968v44.968h-44.968zM1394.52 270.319h44.968v44.968h-44.968zM.511 315.287h44.968v44.968H.511z"/><path d="M45.479 315.287h44.968v44.968H45.479zM90.447 315.287h44.968v44.968H90.447z"/><path d="M135.415 315.287h44.968v44.968h-44.968zM180.383 315.287h44.968v44.968h-44.968zM225.351 315.287h44.968v44.968h-44.968zM270.319 315.287h44.968v44.968h-44.968z"/><path d="M315.287 315.287h44.968v44.968h-44.968zM383.25 315.287c12.136 0 21.974 9.838 21.974 21.974v22.995h-44.969v-44.969h22.995Z"/><path d="M427.197 315.287h22.995v44.969h-44.969v-22.995c0-12.136 9.839-21.974 21.974-21.974ZM450.192 315.287h44.968v44.968h-44.968zM495.16 315.287h44.968v44.968H495.16zM540.128 315.287h44.968v44.968h-44.968zM585.096 315.287h44.968v44.968h-44.968zM630.064 315.287h44.968v44.968h-44.968zM675.032 315.287H720v44.968h-44.968zM720 315.287h44.968v44.968H720zM764.968 315.287h44.968v44.968h-44.968zM809.936 315.287h44.968v44.968h-44.968zM854.904 315.287h44.968v44.968h-44.968zM899.872 315.287h44.968v44.968h-44.968zM944.84 315.287h44.968v44.968H944.84zM989.808 315.287h44.968v44.968h-44.968zM1034.78 315.287h44.968v44.968h-44.968z"/><path d="M1079.74 315.287h44.968v44.968h-44.968zM1124.71 315.287h44.968v44.968h-44.968zM1169.68 315.287h44.968v44.968h-44.968zM1214.65 315.287h44.968v44.968h-44.968zM1282.61 315.287c12.14 0 21.98 9.838 21.98 21.974v22.995h-44.97v-44.969h22.99Z"/><path d="M1326.56 315.287h22.99v44.969h-44.97v-22.995c0-12.136 9.84-21.974 21.98-21.974ZM1349.55 315.287h44.968v44.968h-44.968zM1394.52 315.287h44.968v44.968h-44.968zM.511 360.256h44.968v44.968H.511z"/><path d="M45.479 360.256h44.968v44.968H45.479zM90.447 360.256h44.968v44.968H90.447z"/><path d="M135.415 360.256h44.968v44.968h-44.968zM225.352 360.255v22.995c0 12.136-9.839 21.974-21.974 21.974h-22.995v-44.969h44.969Z"/><path d="M270.32 360.255v44.969h-22.995c-12.136 0-21.974-9.838-21.974-21.974v-22.995h44.969Z"/><path d="M270.319 360.256h44.968v44.968h-44.968z"/><path d="M315.287 360.256h44.968v44.968h-44.968zM360.256 360.256h44.968v44.968h-44.968zM405.224 360.256h44.968v44.968h-44.968zM450.192 360.256h44.968v44.968h-44.968zM495.16 360.256h44.968v44.968H495.16zM540.128 360.256h44.968v44.968h-44.968zM630.064 360.255v22.995c0 12.136-9.838 21.974-21.973 21.974h-22.995v-44.969h44.968ZM675.032 360.255v44.969h-22.995c-12.135 0-21.973-9.838-21.973-21.974v-22.995h44.968ZM675.032 360.256H720v44.968h-44.968zM720 360.256h44.968v44.968H720zM764.968 360.256h44.968v44.968h-44.968zM809.936 360.256h44.968v44.968h-44.968zM854.904 360.256h44.968v44.968h-44.968zM899.872 360.256h44.968v44.968h-44.968zM989.809 360.255v22.995c0 12.136-9.838 21.974-21.974 21.974H944.84v-44.969h44.969Z"/><path d="M1034.78 360.255v44.969h-23c-12.134 0-21.972-9.838-21.972-21.974v-22.995h44.972ZM1034.78 360.256h44.968v44.968h-44.968z"/><path d="M1079.74 360.256h44.968v44.968h-44.968zM1124.71 360.256h44.968v44.968h-44.968zM1169.68 360.256h44.968v44.968h-44.968zM1214.65 360.256h44.968v44.968h-44.968zM1259.62 360.256h44.968v44.968h-44.968z"/><path d="M1304.58 360.256h44.968v44.968h-44.968zM1349.55 360.256h44.968v44.968h-44.968zM1394.52 360.256h44.968v44.968h-44.968zM.511 405.224h44.968v44.968H.511z"/><path d="M45.479 405.224h44.968v44.968H45.479zM90.447 405.224h44.968v44.968H90.447z"/><path d="M135.415 405.224h44.968v44.968h-44.968zM203.378 405.223c12.135 0 21.974 9.839 21.974 21.974v22.995h-44.969v-44.969h22.995Z"/><path d="M247.325 405.223h22.995v44.969h-44.969v-22.995c0-12.135 9.838-21.974 21.974-21.974Z"/><path d="M270.319 405.224h44.968v44.968h-44.968z"/><path d="M315.287 405.224h44.968v44.968h-44.968zM360.256 405.224h44.968v44.968h-44.968zM405.224 405.224h44.968v44.968h-44.968zM450.192 405.224h44.968v44.968h-44.968zM495.16 405.224h44.968v44.968H495.16zM540.128 405.224h44.968v44.968h-44.968zM608.091 405.223c12.135 0 21.973 9.839 21.973 21.974v22.995h-44.968v-44.969h22.995ZM652.037 405.223h22.995v44.969h-44.968v-22.995c0-12.135 9.838-21.974 21.973-21.974ZM675.032 405.224H720v44.968h-44.968zM720 405.224h44.968v44.968H720zM764.968 405.224h44.968v44.968h-44.968zM809.936 405.224h44.968v44.968h-44.968zM854.904 405.224h44.968v44.968h-44.968zM899.872 405.224h44.968v44.968h-44.968zM967.835 405.223c12.136 0 21.974 9.839 21.974 21.974v22.995H944.84v-44.969h22.995Z"/><path d="M1011.78 405.223h23v44.969h-44.972v-22.995c0-12.135 9.838-21.974 21.972-21.974ZM1034.78 405.224h44.968v44.968h-44.968z"/><path d="M1079.74 405.224h44.968v44.968h-44.968zM1124.71 405.224h44.968v44.968h-44.968zM1169.68 405.224h44.968v44.968h-44.968zM1214.65 405.224h44.968v44.968h-44.968zM1259.62 405.224h44.968v44.968h-44.968z"/><path d="M1304.58 405.224h44.968v44.968h-44.968zM1349.55 405.224h44.968v44.968h-44.968zM1394.52 405.224h44.968v44.968h-44.968zM.511 450.192h44.968v44.968H.511z"/><path d="M45.479 450.192h44.968v44.968H45.479zM90.447 450.192h44.968v44.968H90.447z"/><path d="M135.415 450.192h44.968v44.968h-44.968zM180.383 450.192h44.968v44.968h-44.968zM225.351 450.192h44.968v44.968h-44.968zM270.319 450.192h44.968v44.968h-44.968z"/><path d="M315.287 450.192h44.968v44.968h-44.968zM360.256 450.192h44.968v44.968h-44.968zM405.224 450.192h44.968v44.968h-44.968zM450.192 450.192h44.968v44.968h-44.968zM495.16 450.192h44.968v44.968H495.16zM540.128 450.192h44.968v44.968h-44.968zM585.096 450.192h44.968v44.968h-44.968zM630.064 450.192h44.968v44.968h-44.968zM675.032 450.192H720v44.968h-44.968zM720 450.192h44.968v44.968H720zM764.968 450.192h44.968v44.968h-44.968zM809.936 450.192h44.968v44.968h-44.968zM854.904 450.192h44.968v44.968h-44.968zM899.872 450.192h44.968v44.968h-44.968zM944.84 450.192h44.968v44.968H944.84zM989.808 450.192h44.968v44.968h-44.968zM1034.78 450.192h44.968v44.968h-44.968z"/><path d="M1079.74 450.192h44.968v44.968h-44.968zM1124.71 450.192h44.968v44.968h-44.968zM1169.68 450.192h44.968v44.968h-44.968zM1214.65 450.192h44.968v44.968h-44.968zM1259.62 450.192h44.968v44.968h-44.968z"/><path d="M1304.58 450.192h44.968v44.968h-44.968zM1349.55 450.192h44.968v44.968h-44.968zM1394.52 450.192h44.968v44.968h-44.968zM.511 495.16h44.968v44.968H.511z"/><path d="M45.479 495.16h44.968v44.968H45.479zM90.447 495.16h44.968v44.968H90.447z"/><path d="M135.415 495.16h44.968v44.968h-44.968zM180.383 495.16h44.968v44.968h-44.968zM225.351 495.16h44.968v44.968h-44.968zM270.319 495.16h44.968v44.968h-44.968z"/><path d="M315.287 495.16h44.968v44.968h-44.968zM360.256 495.16h44.968v44.968h-44.968zM405.224 495.16h44.968v44.968h-44.968zM450.192 495.16h44.968v44.968h-44.968zM495.16 495.16h44.968v44.968H495.16zM540.128 495.16h44.968v44.968h-44.968zM585.096 495.16h44.968v44.968h-44.968zM630.064 495.16h44.968v44.968h-44.968zM675.032 495.16H720v44.968h-44.968zM720 495.16h44.968v44.968H720zM764.968 495.16h44.968v44.968h-44.968zM854.905 495.159v22.996c0 12.135-9.839 21.973-21.974 21.973h-22.995v-44.969h44.969Z"/><path d="M899.873 495.159v44.969h-22.995c-12.136 0-21.974-9.838-21.974-21.973v-22.996h44.969Z"/><path d="M899.872 495.16h44.968v44.968h-44.968zM944.84 495.16h44.968v44.968H944.84zM989.808 495.16h44.968v44.968h-44.968zM1034.78 495.16h44.968v44.968h-44.968z"/><path d="M1079.74 495.16h44.968v44.968h-44.968zM1124.71 495.16h44.968v44.968h-44.968zM1169.68 495.16h44.968v44.968h-44.968zM1214.65 495.16h44.968v44.968h-44.968zM1259.62 495.16h44.968v44.968h-44.968z"/><path d="M1304.58 495.16h44.968v44.968h-44.968zM1349.55 495.16h44.968v44.968h-44.968zM1394.52 495.16h44.968v44.968h-44.968zM.511 540.128h44.968v44.968H.511z"/><path d="M45.479 540.128h44.968v44.968H45.479zM90.447 540.128h44.968v44.968H90.447z"/><path d="M135.415 540.128h44.968v44.968h-44.968zM180.383 540.128h44.968v44.968h-44.968zM225.351 540.128h44.968v44.968h-44.968zM270.319 540.128h44.968v44.968h-44.968z"/><path d="M315.287 540.128h44.968v44.968h-44.968zM360.256 540.128h44.968v44.968h-44.968zM405.224 540.128h44.968v44.968h-44.968zM450.192 540.128h44.968v44.968h-44.968zM495.16 540.128h44.968v44.968H495.16zM540.128 540.128h44.968v44.968h-44.968zM585.096 540.128h44.968v44.968h-44.968zM630.064 540.128h44.968v44.968h-44.968zM675.032 540.128H720v44.968h-44.968zM720 540.128h44.968v44.968H720zM764.968 540.128h44.968v44.968h-44.968zM832.931 540.128c12.135 0 21.974 9.838 21.974 21.973v22.995h-44.969v-44.968h22.995Z"/><path d="M876.878 540.128h22.995v44.968h-44.969v-22.995c0-12.135 9.838-21.973 21.974-21.973Z"/><path d="M899.872 540.128h44.968v44.968h-44.968zM944.84 540.128h44.968v44.968H944.84zM989.808 540.128h44.968v44.968h-44.968zM1034.78 540.128h44.968v44.968h-44.968z"/><path d="M1079.74 540.128h44.968v44.968h-44.968zM1124.71 540.128h44.968v44.968h-44.968zM1169.68 540.128h44.968v44.968h-44.968zM1214.65 540.128h44.968v44.968h-44.968zM1259.62 540.128h44.968v44.968h-44.968z"/><path d="M1304.58 540.128h44.968v44.968h-44.968zM1349.55 540.128h44.968v44.968h-44.968zM1394.52 540.128h44.968v44.968h-44.968zM.511 585.096h44.968v44.968H.511z"/><path d="M45.479 585.096h44.968v44.968H45.479zM90.447 585.096h44.968v44.968H90.447z"/><path d="M135.415 585.096h44.968v44.968h-44.968zM180.383 585.096h44.968v44.968h-44.968zM225.351 585.096h44.968v44.968h-44.968zM270.319 585.096h44.968v44.968h-44.968z"/><path d="M315.287 585.096h44.968v44.968h-44.968zM360.256 585.096h44.968v44.968h-44.968zM405.224 585.096h44.968v44.968h-44.968zM450.192 585.096h44.968v44.968h-44.968zM495.16 585.096h44.968v44.968H495.16zM540.128 585.096h44.968v44.968h-44.968zM585.096 585.096h44.968v44.968h-44.968zM630.064 585.096h44.968v44.968h-44.968zM675.032 585.096H720v44.968h-44.968zM720 585.096h44.968v44.968H720zM764.968 585.096h44.968v44.968h-44.968zM809.936 585.096h44.968v44.968h-44.968zM854.904 585.096h44.968v44.968h-44.968zM899.872 585.096h44.968v44.968h-44.968zM944.84 585.096h44.968v44.968H944.84zM989.808 585.096h44.968v44.968h-44.968zM1034.78 585.096h44.968v44.968h-44.968z"/><path d="M1079.74 585.096h44.968v44.968h-44.968zM1124.71 585.096h44.968v44.968h-44.968zM1169.68 585.096h44.968v44.968h-44.968zM1214.65 585.096h44.968v44.968h-44.968zM1259.62 585.096h44.968v44.968h-44.968z"/><path d="M1304.58 585.096h44.968v44.968h-44.968zM1349.55 585.096h44.968v44.968h-44.968zM1394.52 585.096h44.968v44.968h-44.968zM.511 630.064h44.968v44.968H.511z"/><path d="M45.479 630.064h44.968v44.968H45.479zM90.447 630.064h44.968v44.968H90.447z"/><path d="M135.415 630.064h44.968v44.968h-44.968zM180.383 630.064h44.968v44.968h-44.968zM225.351 630.064h44.968v44.968h-44.968zM270.319 630.064h44.968v44.968h-44.968z"/><path d="M315.287 630.064h44.968v44.968h-44.968zM360.256 630.064h44.968v44.968h-44.968zM405.224 630.064h44.968v44.968h-44.968zM450.192 630.064h44.968v44.968h-44.968zM495.16 630.064h44.968v44.968H495.16zM540.128 630.064h44.968v44.968h-44.968zM585.096 630.064h44.968v44.968h-44.968zM630.064 630.064h44.968v44.968h-44.968zM675.032 630.064H720v44.968h-44.968zM720 630.064h44.968v44.968H720zM764.968 630.064h44.968v44.968h-44.968zM809.936 630.064h44.968v44.968h-44.968zM854.904 630.064h44.968v44.968h-44.968zM899.872 630.064h44.968v44.968h-44.968zM944.84 630.064h44.968v44.968H944.84zM989.808 630.064h44.968v44.968h-44.968zM1034.78 630.064h44.968v44.968h-44.968z"/><path d="M1079.74 630.064h44.968v44.968h-44.968zM1124.71 630.064h44.968v44.968h-44.968zM1169.68 630.064h44.968v44.968h-44.968zM1214.65 630.064h44.968v44.968h-44.968zM1259.62 630.064h44.968v44.968h-44.968z"/><path d="M1304.58 630.064h44.968v44.968h-44.968zM1349.55 630.064h44.968v44.968h-44.968zM1394.52 630.064h44.968v44.968h-44.968zM.511 675.032h44.968V720H.511z"/><path d="M45.479 675.032h44.968V720H45.479zM90.447 675.032h44.968V720H90.447z"/><path d="M135.415 675.032h44.968V720h-44.968zM180.383 675.032h44.968V720h-44.968zM225.351 675.032h44.968V720h-44.968zM270.319 675.032h44.968V720h-44.968z"/><path d="M315.287 675.032h44.968V720h-44.968zM360.256 675.032h44.968V720h-44.968zM405.224 675.032h44.968V720h-44.968zM450.192 675.032h44.968V720h-44.968zM495.16 675.032h44.968V720H495.16zM540.128 675.032h44.968V720h-44.968zM585.096 675.032h44.968V720h-44.968zM630.064 675.032h44.968V720h-44.968zM675.032 675.032H720V720h-44.968zM720 675.032h44.968V720H720zM764.968 675.032h44.968V720h-44.968zM809.936 675.032h44.968V720h-44.968zM854.904 675.032h44.968V720h-44.968zM899.872 675.032h44.968V720h-44.968zM944.84 675.032h44.968V720H944.84zM989.808 675.032h44.968V720h-44.968zM1034.78 675.032h44.968V720h-44.968z"/><path d="M1079.74 675.032h44.968V720h-44.968zM1124.71 675.032h44.968V720h-44.968zM1169.68 675.032h44.968V720h-44.968zM1214.65 675.032h44.968V720h-44.968zM1259.62 675.032h44.968V720h-44.968z"/><path d="M1304.58 675.032h44.968V720h-44.968zM1349.55 675.032h44.968V720h-44.968zM1394.52 675.032h44.968V720h-44.968zM.511 720h44.968v44.968H.511z"/><path d="M45.479 720h44.968v44.968H45.479zM90.447 720h44.968v44.968H90.447z"/><path d="M135.415 720h44.968v44.968h-44.968zM180.383 720h44.968v44.968h-44.968zM225.351 720h44.968v44.968h-44.968zM270.319 720h44.968v44.968h-44.968z"/><path d="M315.287 720h44.968v44.968h-44.968zM360.256 720h44.968v44.968h-44.968zM405.224 720h44.968v44.968h-44.968zM450.192 720h44.968v44.968h-44.968zM495.16 720h44.968v44.968H495.16zM540.128 720h44.968v44.968h-44.968zM585.096 720h44.968v44.968h-44.968zM630.064 720h44.968v44.968h-44.968zM675.032 720H720v44.968h-44.968zM720 720h44.968v44.968H720zM764.968 720h44.968v44.968h-44.968zM809.936 720h44.968v44.968h-44.968zM854.904 720h44.968v44.968h-44.968zM899.872 720h44.968v44.968h-44.968zM944.84 720h44.968v44.968H944.84zM989.808 720h44.968v44.968h-44.968zM1034.78 720h44.968v44.968h-44.968z"/><path d="M1079.74 720h44.968v44.968h-44.968zM1124.71 720h44.968v44.968h-44.968zM1169.68 720h44.968v44.968h-44.968zM1214.65 720h44.968v44.968h-44.968zM1259.62 720h44.968v44.968h-44.968z"/><path d="M1304.58 720h44.968v44.968h-44.968zM1349.55 720h44.968v44.968h-44.968zM1394.52 720h44.968v44.968h-44.968z"/></g><defs><clipPath id="a"><path fill="#fff" d="M0 0h1440v781H0z"/></clipPath></defs></svg>