<svg width="206" height="88" viewBox="0 0 206 88" fill="none" xmlns="http://www.w3.org/2000/svg">
<path fill-rule="evenodd" clip-rule="evenodd" d="M100.985 47.0849C100.068 47.0122 99.3839 46.2102 99.4566 45.2935C99.5052 44.6809 99.5526 43.8798 99.5987 42.9266C98.9825 42.6406 98.5801 41.9921 98.6405 41.2759C99.1083 35.73 99.4692 17.7907 99.6623 8.19333C99.7032 6.1645 99.7365 4.50845 99.7617 3.42106C99.7831 2.50178 100.546 1.77386 101.465 1.7952C102.384 1.81655 103.112 2.57907 103.091 3.49834C103.083 3.83571 103.074 4.23104 103.065 4.67805C103.509 4.98462 103.796 5.50088 103.785 6.08077C103.766 7.08516 103.74 8.57684 103.71 10.4041C103.542 20.3171 103.209 40.1071 102.776 45.5569C102.703 46.4735 101.901 47.1577 100.985 47.0849Z" fill="white"/>
<path fill-rule="evenodd" clip-rule="evenodd" d="M108.538 22.3831C107.66 22.657 106.726 22.1675 106.452 21.2897C106.149 20.3177 105.841 19.3531 105.526 18.3965C104.488 16.3519 103.573 14.3037 102.711 12.3755C102.591 12.1054 102.471 11.8376 102.352 11.5725C101.005 8.56779 99.7862 5.94976 98.3749 3.91822C97.8503 3.16304 98.0372 2.12555 98.7924 1.60094C99.4042 1.17591 100.201 1.21791 100.761 1.65075C101.363 1.62046 101.96 1.91912 102.285 2.47583C104.999 7.13561 106.94 12.0848 108.608 17.1123C108.988 17.8552 109.384 18.5934 109.801 19.3233C110.147 19.9303 110.069 20.6633 109.662 21.1801C109.529 21.7317 109.119 22.2018 108.538 22.3831Z" fill="white"/>
<path fill-rule="evenodd" clip-rule="evenodd" d="M94.2008 22.0368C93.3611 21.6623 92.9839 20.6778 93.3585 19.8381C93.4498 19.6332 93.5408 19.4287 93.6313 19.2246C94.2357 16.6101 95.0832 13.9137 95.8679 11.417C95.9928 11.0198 96.116 10.6277 96.2364 10.2418C97.164 7.26895 97.9011 4.72944 98.0856 2.80895C98.1735 1.89364 98.9868 1.22294 99.9021 1.31088C100.227 1.34209 100.521 1.46463 100.761 1.65064C100.88 1.64464 101.002 1.65142 101.124 1.67213C102.031 1.82548 102.642 2.68478 102.488 3.59143C101.575 8.99301 99.2894 14.6641 96.8052 20.2814C96.7576 20.4685 96.6799 20.6404 96.5783 20.793C96.5188 20.9269 96.4593 21.0607 96.3996 21.1944C96.025 22.0342 95.0406 22.4114 94.2008 22.0368Z" fill="white"/>
<path d="M0.43578 80.74C0.502446 80.1667 0.629114 79.4067 0.815781 78.46C1.00245 77.5 1.12912 76.8267 1.19578 76.44C1.39578 75.7067 1.47578 74.78 1.43578 73.66C1.18245 73.54 0.975781 73.4134 0.815781 73.28C0.495781 72.9334 0.362446 72.5934 0.415779 72.26C0.362446 71.9267 0.455782 71.6334 0.695782 71.38C0.935782 71.1267 1.22911 71 1.57578 71C1.74911 71 1.91578 71.04 2.07578 71.12C2.15578 71.2 2.36911 71.3267 2.71578 71.5C2.79578 71.58 2.87578 71.62 2.95578 71.62C3.30245 71.7934 3.51578 71.8801 3.59578 71.8801C5.06245 72.1467 6.45578 72.5267 7.77578 73.0201C9.69578 73.6067 11.1291 74.5334 12.0758 75.8C12.1024 75.88 12.1558 75.9867 12.2358 76.12C12.3158 76.2534 12.3691 76.36 12.3958 76.44C12.4358 76.52 12.4491 76.62 12.4358 76.74C12.4358 76.8467 12.3958 76.9534 12.3158 77.0601C12.0358 77.5801 11.5758 78.0067 10.9358 78.34C10.3091 78.6067 9.32245 78.8267 7.97578 79C6.62911 79.16 5.80245 79.2734 5.49578 79.34C4.97578 79.5534 4.46911 79.64 3.97578 79.6C3.29578 79.6667 2.78911 79.7934 2.45578 79.98C2.40245 80.0334 2.36245 80.1201 2.33578 80.2401C2.26911 80.4134 2.22245 80.5934 2.19578 80.78C2.16911 80.9667 2.16245 81.14 2.17578 81.3C2.18911 81.46 2.18911 81.6534 2.17578 81.8801C2.13578 82.5334 2.22911 83.1667 2.45578 83.78C2.46911 83.8734 2.46245 83.9734 2.43578 84.0801C2.40911 84.1867 2.37578 84.2801 2.33578 84.3601C2.30911 84.4401 2.26245 84.54 2.19578 84.66C2.12912 84.78 2.08911 84.8601 2.07578 84.9001C1.63578 85.3401 1.25578 85.5067 0.93578 85.4001C0.429113 85.0001 0.175781 84.5001 0.175781 83.9001C0.202448 83.0067 0.289113 81.9534 0.43578 80.74ZM2.79578 77.5401H2.99578C3.35578 77.5401 4.01578 77.5934 4.97578 77.7001C5.21578 77.6601 5.72245 77.58 6.49578 77.46C7.26911 77.34 7.86245 77.2534 8.27578 77.2001C8.34245 77.1867 8.48245 77.16 8.69578 77.12C8.90912 77.08 9.05578 77.0467 9.13578 77.0201C9.22911 76.9934 9.35578 76.96 9.51578 76.92C9.67578 76.8667 9.81578 76.8134 9.93578 76.76C10.0558 76.7067 10.1758 76.6401 10.2958 76.5601C10.3091 76.5467 10.3158 76.5067 10.3158 76.44C10.3158 76.36 10.3091 76.3134 10.2958 76.3C10.2291 76.2067 10.1224 76.1 9.97578 75.98C9.82911 75.86 9.68911 75.7601 9.55578 75.68C9.42245 75.5867 9.26245 75.4867 9.07578 75.3801C8.90245 75.2734 8.80245 75.2067 8.77578 75.18C8.30911 75.1134 7.58245 74.92 6.59578 74.6C5.62245 74.28 4.95578 74.0934 4.59578 74.0401C4.54245 74.0401 4.44245 74.0334 4.29578 74.0201C4.16245 74.0067 4.04245 74.0067 3.93578 74.0201C3.84245 74.0334 3.76911 74.08 3.71578 74.16C3.67578 74.2134 3.60245 74.3534 3.49578 74.58C3.40245 74.7934 3.34911 74.9067 3.33578 74.92C3.32245 75.0934 3.22244 75.5134 3.03578 76.18C2.86244 76.8334 2.78245 77.2867 2.79578 77.5401Z" fill="white"/>
<path d="M20.3984 82.12C20.2918 82.2 20.1651 82.3667 20.0184 82.62C19.3118 83.3934 18.6184 84.0134 17.9384 84.48C17.2718 84.9334 16.5451 85.1534 15.7584 85.14C15.3451 85.1934 14.9184 85.14 14.4784 84.98C14.0384 84.8067 13.6918 84.5667 13.4384 84.26C13.3184 84.0734 13.2318 83.9467 13.1784 83.8801C13.1384 83.8001 13.0718 83.6801 12.9784 83.5201C12.8851 83.3467 12.8184 83.2067 12.7784 83.1C12.7518 82.9934 12.7184 82.8667 12.6784 82.7201C12.6384 82.5734 12.6184 82.4334 12.6184 82.3C12.6184 82.1534 12.6384 82.0067 12.6784 81.8601C12.6918 81.4067 12.8384 80.9467 13.1184 80.48C13.4118 80.0134 13.7051 79.6401 13.9984 79.3601C14.2918 79.0801 14.6718 78.7467 15.1384 78.3601C15.2318 78.2934 15.2984 78.2401 15.3384 78.2001C15.8984 77.7467 16.6584 77.5201 17.6184 77.5201C17.8184 77.5201 18.4518 77.5734 19.5184 77.68C19.5451 77.7067 19.6318 77.7534 19.7784 77.82C19.9384 77.8867 20.0518 77.9601 20.1184 78.0401C20.1851 78.1067 20.1918 78.2 20.1384 78.32L20.3984 78.58C20.7984 78.7534 21.0518 78.9201 21.1584 79.0801C21.8251 80.4401 22.4118 81.5334 22.9184 82.3601C22.9718 82.4267 23.1384 82.58 23.4184 82.82C23.7118 83.0467 23.8851 83.1934 23.9384 83.26C24.0451 83.34 24.1718 83.4534 24.3184 83.6C24.4784 83.7334 24.6118 83.8334 24.7184 83.9001C24.8251 83.9667 24.9451 84.0067 25.0784 84.0201C25.0918 84.0334 25.1784 84.1134 25.3384 84.26C25.3518 84.3 25.3451 84.3534 25.3184 84.42C25.3051 84.4734 25.2851 84.54 25.2584 84.62C25.2318 84.7 25.2118 84.7534 25.1984 84.78C25.0651 84.98 24.7718 85.14 24.3184 85.26C24.1584 85.26 24.0451 85.2667 23.9784 85.28C23.9251 85.3067 23.8318 85.2934 23.6984 85.2401C23.5784 85.2001 23.4918 85.1667 23.4384 85.14C23.3984 85.1267 23.3118 85.08 23.1784 85C23.0451 84.92 22.9451 84.86 22.8784 84.82L22.7984 84.78C22.4651 84.5 22.0051 84.02 21.4184 83.34C20.8451 82.6467 20.5051 82.24 20.3984 82.12ZM14.5784 82.7401C14.8184 83.1001 15.1784 83.28 15.6584 83.28C15.8851 83.28 16.1984 83.2267 16.5984 83.12C17.2518 82.88 17.8451 82.4601 18.3784 81.8601C18.8984 81.1401 19.1918 80.5067 19.2584 79.96C19.2584 79.92 19.2851 79.7667 19.3384 79.5C19.3918 79.22 19.4118 79.0267 19.3984 78.92C19.1318 78.9867 18.7451 79.0401 18.2384 79.0801C17.7451 79.1067 17.3651 79.1467 17.0984 79.2001C16.7518 79.2534 16.3984 79.4201 16.0384 79.7001C15.6784 79.9667 15.4051 80.22 15.2184 80.46C15.0318 80.7 14.7784 81.04 14.4584 81.48C14.2318 81.76 14.2718 82.1801 14.5784 82.7401Z" fill="white"/>
<path d="M26.2983 83.6C26.3249 83.5467 26.3849 83.4467 26.4783 83.3C26.5716 83.1534 26.6383 83.04 26.6783 82.96C27.3716 83.08 27.9583 83.3734 28.4383 83.84C28.6916 84.0267 28.9916 84.1734 29.3383 84.28C29.6983 84.3867 29.965 84.4534 30.1383 84.48C30.325 84.4934 30.6849 84.5 31.2183 84.5C31.7516 84.4867 32.0516 84.48 32.1183 84.48C32.4116 84.48 32.7916 84.3934 33.2583 84.2201C33.3916 84.1667 33.4716 84.0734 33.4983 83.94C33.525 83.8067 33.485 83.6934 33.3783 83.6C33.125 83.4134 32.4649 83.0601 31.3983 82.5401C30.3449 82.0201 29.7849 81.7401 29.7183 81.7001C28.3583 81.2867 27.1716 80.6934 26.1583 79.92C26.0916 79.8267 25.9783 79.72 25.8183 79.6C25.6716 79.4667 25.5516 79.3401 25.4583 79.2201C25.365 79.0867 25.305 78.94 25.2783 78.78C25.265 78.26 25.5183 77.8 26.0383 77.4C26.1049 77.3734 26.3649 77.2934 26.8183 77.16C27.2716 77.0267 27.6049 76.8934 27.8183 76.76C29.0583 76.2667 30.2383 75.9801 31.3583 75.9001C31.3849 75.9001 31.4583 75.9067 31.5783 75.92C31.7116 75.9334 31.7849 75.94 31.7983 75.94C31.8249 75.94 31.8916 75.9467 31.9983 75.96C32.1049 75.9734 32.1716 75.9867 32.1983 76C32.225 76.0134 32.2783 76.0334 32.3583 76.06C32.4383 76.0867 32.4916 76.12 32.5183 76.16C32.5583 76.1867 32.605 76.2267 32.6583 76.28C32.7116 76.32 32.7516 76.3734 32.7783 76.44C32.8183 76.4934 32.8516 76.56 32.8783 76.64C32.9583 77.1067 32.8316 77.4867 32.4983 77.78C32.4316 77.78 32.2183 77.7867 31.8583 77.8C31.4983 77.8134 31.2649 77.8267 31.1583 77.84C31.0516 77.84 30.8516 77.8601 30.5583 77.9001C30.265 77.9267 30.0383 77.96 29.8783 78C29.7183 78.04 29.5316 78.1001 29.3183 78.18C29.1049 78.2601 28.9049 78.3534 28.7183 78.46C28.5316 78.5267 28.405 78.6334 28.3383 78.78C28.285 78.9267 28.3649 79.0534 28.5783 79.16C29.1916 79.5867 30.0983 80.0734 31.2983 80.62C32.4983 81.1667 33.3183 81.5667 33.7583 81.82C34.1983 82.1 34.5783 82.44 34.8983 82.84C35.2316 83.2267 35.4383 83.6667 35.5183 84.16C35.6116 84.6534 35.4049 85.0934 34.8983 85.48C34.5783 85.7334 34.1583 85.9267 33.6383 86.0601C33.1316 86.1934 32.725 86.2734 32.4183 86.3C32.1116 86.3267 31.6383 86.3467 30.9983 86.3601C30.3316 86.3867 29.6183 86.2867 28.8583 86.0601C28.0983 85.8334 27.4516 85.5134 26.9183 85.1C26.385 84.9 26.1783 84.4 26.2983 83.6Z" fill="white"/>
<path d="M38.5977 81.2401L38.6377 79.6C38.6377 79.2134 38.6043 78.62 38.5377 77.82C38.4577 77.5134 38.3843 77.3334 38.3177 77.28C37.4377 77.3467 36.7643 77.4934 36.2976 77.7201C36.1776 77.7201 36.0043 77.7667 35.7777 77.8601C35.551 77.9534 35.3577 77.9867 35.1977 77.96C35.1043 77.92 35.011 77.86 34.9177 77.78C34.8243 77.7 34.731 77.6067 34.6377 77.5C34.531 77.38 34.4443 77.2934 34.3777 77.24C34.3243 77.1067 34.3043 76.92 34.3177 76.68C34.331 76.44 34.3777 76.26 34.4577 76.14L35.1176 75.56C35.811 75.5467 36.8443 75.4134 38.2177 75.16L38.3577 75L38.3977 71.8601C38.7043 71.5267 39.0843 71.4067 39.5377 71.5C39.8977 71.78 40.0977 72.1267 40.1377 72.5401C40.1777 72.6201 40.2043 72.9534 40.2177 73.5401C40.231 74.1267 40.2843 74.4667 40.3777 74.5601C40.391 74.5601 40.451 74.58 40.5577 74.62C40.6777 74.6467 40.7443 74.6667 40.7577 74.68C41.0243 74.6534 41.3643 74.6067 41.7777 74.5401C42.191 74.46 42.491 74.4134 42.6777 74.4C42.8643 74.3867 43.2043 74.3934 43.6977 74.42L44.6176 74.46C45.191 74.54 45.4043 74.8734 45.2577 75.46C45.031 75.6867 44.8577 75.8134 44.7377 75.84C44.431 75.8667 44.1176 75.9067 43.7976 75.96C43.4776 76.0134 43.0777 76.1001 42.5977 76.2201C42.131 76.3267 41.8176 76.3934 41.6576 76.42L41.6176 76.44C41.271 76.4534 40.8776 76.5401 40.4376 76.7001L40.3377 76.84C40.3377 77 40.3243 77.2667 40.2976 77.64C40.2843 78 40.2843 78.3134 40.2976 78.58C40.311 78.8334 40.351 79.0934 40.4177 79.3601C40.4177 81.6934 40.5377 83.1467 40.7777 83.7201C41.0443 83.9601 41.2843 84.0867 41.4977 84.1C41.6177 84.1 41.771 84.0801 41.9577 84.0401C42.011 84.0267 42.091 84.0067 42.1977 83.98C42.3043 83.9534 42.3777 83.94 42.4177 83.94C42.4577 83.9267 42.5177 83.9067 42.5977 83.8801C42.6777 83.8534 42.731 83.8334 42.7576 83.82C42.7976 83.8067 42.8443 83.7867 42.8977 83.76C42.9643 83.72 43.011 83.68 43.0377 83.64C43.0777 83.6 43.1243 83.5534 43.1777 83.5C43.231 83.4467 43.2777 83.3867 43.3177 83.32C43.371 83.2534 43.4243 83.18 43.4776 83.1C43.531 83.0067 43.591 82.9067 43.6576 82.8C43.6443 82.7334 43.6643 82.5734 43.7177 82.32C43.771 82.0667 43.811 81.9067 43.8377 81.84C43.9843 81.4267 44.251 81.2267 44.6377 81.2401C44.8243 81.2134 44.9643 81.2467 45.0577 81.34C45.151 81.4334 45.2377 81.6 45.3177 81.84L45.4177 82.18C45.3243 82.8334 45.2243 83.2401 45.1176 83.4001C44.851 83.9334 44.6443 84.3 44.4977 84.5C44.3643 84.7 44.1177 84.9067 43.7577 85.12C43.3977 85.3467 42.8443 85.58 42.0977 85.82C42.0577 85.8334 41.9043 85.8867 41.6377 85.98C41.371 86.0867 41.1643 86.14 41.0177 86.14C40.4043 86.1134 39.951 85.9134 39.6576 85.5401C39.6176 85.4601 39.4976 85.2534 39.2976 84.92C39.0976 84.5734 38.9577 84.2734 38.8777 84.0201C38.7977 83.7534 38.7777 83.4734 38.8177 83.18C38.8043 82.94 38.771 82.5934 38.7177 82.14C38.6643 81.6867 38.631 81.4 38.6176 81.28C38.6043 81.2667 38.5977 81.2534 38.5977 81.2401Z" fill="white"/>
<path d="M48.0062 79.3C48.9662 78.0734 50.0196 77.2734 51.1662 76.9C51.8996 76.8067 52.2862 76.76 52.3262 76.76C53.1529 76.7867 53.8729 77.04 54.4862 77.5201C55.0996 77.9867 55.4262 78.6267 55.4662 79.44C55.4796 80.1467 55.1929 80.7934 54.6063 81.3801C54.0329 81.9667 53.3929 82.2867 52.6862 82.34C52.4196 82.4334 52.1329 82.48 51.8262 82.48C51.1329 82.48 50.3662 82.2267 49.5262 81.7201C49.2729 81.4667 49.1062 81.34 49.0262 81.34C48.9729 81.3134 48.9262 81.3134 48.8862 81.34C48.4462 82.0067 48.2329 82.5134 48.2463 82.8601C48.3929 83.7267 48.8596 84.4601 49.6462 85.0601C50.4329 85.6734 51.2662 85.9534 52.1462 85.9001C52.2796 85.9534 52.5129 85.9534 52.8462 85.9001C53.1796 85.8601 53.3996 85.8267 53.5062 85.8C53.6262 85.7734 53.8529 85.7067 54.1862 85.6C54.5329 85.5067 54.7729 85.4401 54.9062 85.4001C55.3729 85.2134 55.9929 85.0934 56.7662 85.0401H56.9062C56.9996 85.0134 57.0862 85.0334 57.1662 85.1C57.2462 85.1667 57.2929 85.2667 57.3062 85.4001V86.14C56.8262 86.6867 56.2329 86.9801 55.5262 87.0201C55.3796 87.0601 55.1129 87.1334 54.7262 87.2401C54.3529 87.3467 54.0662 87.42 53.8662 87.46C53.6796 87.5134 53.4263 87.56 53.1063 87.6C52.7996 87.6534 52.5196 87.6734 52.2662 87.66C51.0929 87.7134 49.9662 87.4134 48.8862 86.76C47.8996 86.2534 47.1396 85.3734 46.6063 84.12C46.4063 83.3334 46.4396 82.5667 46.7062 81.82C46.9729 81.0734 47.4062 80.2334 48.0062 79.3ZM49.5662 80.26C49.8462 80.26 50.0863 80.28 50.2863 80.32C50.4063 80.3867 50.5196 80.44 50.6262 80.48C50.7462 80.5067 50.8862 80.5334 51.0462 80.5601C51.2196 80.5734 51.3329 80.58 51.3862 80.58C51.4396 80.58 51.5796 80.58 51.8062 80.58C52.0462 80.58 52.1729 80.58 52.1862 80.58C52.8796 80.3667 53.3396 80.0667 53.5662 79.68C53.6062 79.5334 53.6062 79.4067 53.5662 79.3C53.5396 79.18 53.4662 79.08 53.3462 79C53.2262 78.92 53.1129 78.86 53.0062 78.82C52.8996 78.78 52.7529 78.7334 52.5662 78.68C52.3929 78.6134 52.2662 78.5667 52.1862 78.5401C51.8662 78.5401 51.5396 78.6334 51.2062 78.82C50.8729 78.9934 50.6062 79.1667 50.4062 79.34C50.2062 79.5134 49.9529 79.7534 49.6462 80.0601C49.6462 80.0734 49.6329 80.1067 49.6063 80.16C49.5796 80.2 49.5662 80.2334 49.5662 80.26Z" fill="white"/>
<path d="M69.0437 81.2401L69.0838 79.6C69.0838 79.2134 69.0504 78.62 68.9837 77.82C68.9037 77.5134 68.8304 77.3334 68.7637 77.28C67.8837 77.3467 67.2104 77.4934 66.7437 77.7201C66.6237 77.7201 66.4504 77.7667 66.2238 77.8601C65.9971 77.9534 65.8038 77.9867 65.6438 77.96C65.5504 77.92 65.4571 77.86 65.3638 77.78C65.2704 77.7 65.1771 77.6067 65.0838 77.5C64.9771 77.38 64.8904 77.2934 64.8237 77.24C64.7704 77.1067 64.7504 76.92 64.7637 76.68C64.7771 76.44 64.8237 76.26 64.9037 76.14L65.5638 75.56C66.2571 75.5467 67.2904 75.4134 68.6638 75.16L68.8038 75L68.8438 71.8601C69.1504 71.5267 69.5304 71.4067 69.9837 71.5C70.3437 71.78 70.5438 72.1267 70.5838 72.5401C70.6238 72.6201 70.6504 72.9534 70.6638 73.5401C70.6771 74.1267 70.7304 74.4667 70.8237 74.5601C70.8371 74.5601 70.8971 74.58 71.0038 74.62C71.1238 74.6467 71.1904 74.6667 71.2038 74.68C71.4704 74.6534 71.8104 74.6067 72.2238 74.5401C72.6371 74.46 72.9371 74.4134 73.1237 74.4C73.3104 74.3867 73.6504 74.3934 74.1438 74.42L75.0638 74.46C75.6371 74.54 75.8504 74.8734 75.7038 75.46C75.4771 75.6867 75.3038 75.8134 75.1838 75.84C74.8771 75.8667 74.5637 75.9067 74.2437 75.96C73.9237 76.0134 73.5237 76.1001 73.0437 76.2201C72.5771 76.3267 72.2637 76.3934 72.1037 76.42L72.0638 76.44C71.7171 76.4534 71.3237 76.5401 70.8837 76.7001L70.7838 76.84C70.7838 77 70.7704 77.2667 70.7437 77.64C70.7304 78 70.7304 78.3134 70.7437 78.58C70.7571 78.8334 70.7971 79.0934 70.8638 79.3601C70.8638 81.6934 70.9838 83.1467 71.2238 83.7201C71.4904 83.9601 71.7304 84.0867 71.9438 84.1C72.0638 84.1 72.2171 84.0801 72.4037 84.0401C72.4571 84.0267 72.5371 84.0067 72.6438 83.98C72.7504 83.9534 72.8238 83.94 72.8638 83.94C72.9038 83.9267 72.9637 83.9067 73.0437 83.8801C73.1237 83.8534 73.1771 83.8334 73.2038 83.82C73.2438 83.8067 73.2904 83.7867 73.3438 83.76C73.4104 83.72 73.4571 83.68 73.4837 83.64C73.5237 83.6 73.5704 83.5534 73.6237 83.5C73.6771 83.4467 73.7237 83.3867 73.7637 83.32C73.8171 83.2534 73.8704 83.18 73.9238 83.1C73.9771 83.0067 74.0371 82.9067 74.1037 82.8C74.0904 82.7334 74.1104 82.5734 74.1638 82.32C74.2171 82.0667 74.2571 81.9067 74.2838 81.84C74.4304 81.4267 74.6971 81.2267 75.0838 81.2401C75.2704 81.2134 75.4104 81.2467 75.5038 81.34C75.5971 81.4334 75.6837 81.6 75.7637 81.84L75.8638 82.18C75.7704 82.8334 75.6704 83.2401 75.5638 83.4001C75.2971 83.9334 75.0904 84.3 74.9438 84.5C74.8104 84.7 74.5638 84.9067 74.2038 85.12C73.8438 85.3467 73.2904 85.58 72.5437 85.82C72.5037 85.8334 72.3504 85.8867 72.0838 85.98C71.8171 86.0867 71.6104 86.14 71.4637 86.14C70.8504 86.1134 70.3971 85.9134 70.1037 85.5401C70.0637 85.4601 69.9437 85.2534 69.7437 84.92C69.5437 84.5734 69.4037 84.2734 69.3237 84.0201C69.2437 83.7534 69.2237 83.4734 69.2637 83.18C69.2504 82.94 69.2171 82.5934 69.1638 82.14C69.1104 81.6867 69.0771 81.4 69.0638 81.28C69.0504 81.2667 69.0437 81.2534 69.0437 81.2401Z" fill="white"/>
<path d="M82.6924 80.2401C82.319 80.4001 81.959 80.6201 81.6124 80.9001C81.279 81.1801 81.0323 81.4134 80.8723 81.6C80.7257 81.7867 80.4724 82.1267 80.1124 82.62C79.7657 83.1134 79.5457 83.4201 79.4523 83.5401C79.2257 84.1534 78.8923 84.6534 78.4523 85.0401C78.2657 85.1334 78.099 85.18 77.9523 85.18C77.659 85.18 77.4457 85.0534 77.3123 84.8C77.2857 84.76 77.239 84.7 77.1723 84.62C77.1057 84.54 77.0457 84.4667 76.9924 84.4001L76.9323 84.3C76.9323 84.26 76.9257 84.1734 76.9124 84.0401C76.9124 83.8934 76.9124 83.7801 76.9124 83.7001C76.9124 83.6067 76.919 83.5067 76.9323 83.4001C76.959 83.2934 76.999 83.2134 77.0524 83.16C77.1057 82.72 77.139 82.2467 77.1523 81.7401C77.179 81.2334 77.1857 80.8134 77.1723 80.48C77.159 80.1334 77.139 79.6534 77.1124 79.0401C77.0857 78.4267 77.0657 77.9934 77.0524 77.7401C77.079 77.3934 77.059 76.84 76.9924 76.08C76.9257 75.32 76.9057 74.7734 76.9323 74.44V73.3C76.919 73.14 76.9923 73.0467 77.1523 73.0201C77.3257 72.9934 77.4657 73.0001 77.5723 73.0401C77.5857 73.0534 77.6457 73.1134 77.7523 73.22C77.859 73.3267 77.9523 73.4334 78.0323 73.5401C78.1257 73.6334 78.179 73.72 78.1924 73.8C78.5524 75.52 78.7257 76.6601 78.7124 77.2201C78.7124 77.3534 78.7324 77.9667 78.7724 79.0601C78.8124 80.1534 78.8324 80.7601 78.8324 80.8801V81.26H78.9523C79.059 81.1667 79.5057 80.72 80.2923 79.92C81.079 79.1067 81.7323 78.5467 82.2523 78.24C82.4923 78.1467 82.759 78.1 83.0524 78.1C83.4924 78.1 83.8524 78.2667 84.1324 78.6C84.5857 79.0934 84.919 79.6401 85.1324 80.2401C85.3457 80.8267 85.519 81.5467 85.6523 82.4001C86.039 83.5867 86.2123 84.4667 86.1723 85.0401L86.1124 85.16C86.0857 85.2267 86.059 85.2734 86.0323 85.3C85.9523 85.3934 85.839 85.44 85.6924 85.44C85.5857 85.44 85.4057 85.3934 85.1523 85.3C84.7523 84.8067 84.4124 84.18 84.1324 83.42C83.8124 82.4734 83.6457 81.9267 83.6324 81.78C83.419 80.8734 83.1057 80.3601 82.6924 80.2401Z" fill="white"/>
<path d="M85.9552 73.8601C86.0352 73.6601 86.1752 73.5001 86.3752 73.3801C86.5885 73.2467 86.8085 73.1934 87.0352 73.22C87.1152 73.2067 87.1885 73.2067 87.2552 73.22C87.3218 73.2334 87.3885 73.26 87.4552 73.3C87.5352 73.34 87.5952 73.3734 87.6352 73.4C87.6752 73.4267 87.7285 73.4867 87.7952 73.58C87.8752 73.6734 87.9285 73.7334 87.9552 73.76C87.9818 73.7734 88.0352 73.84 88.1152 73.96L88.2352 74.12C88.2885 74.2534 88.5418 74.5467 88.9952 75C89.0885 75.1334 89.1352 75.2934 89.1352 75.48C89.1485 75.6534 89.1018 75.7934 88.9952 75.9001H88.5552C88.3285 75.9401 88.0951 75.9267 87.8551 75.8601C87.6285 75.7934 87.3218 75.66 86.9352 75.46C86.5618 75.26 86.3618 75.1534 86.3352 75.14C86.1085 75.0067 85.9552 74.82 85.8752 74.58C85.8085 74.3267 85.8352 74.0867 85.9552 73.8601ZM87.2352 84C87.2085 83.84 87.1685 83.4934 87.1152 82.96C87.0618 82.4134 87.0085 81.8467 86.9552 81.26C86.9018 80.66 86.8685 80.3067 86.8551 80.2001C86.8285 79.8401 86.8285 79.4601 86.8551 79.0601C87.0551 78.7134 87.3885 78.5867 87.8551 78.68C88.0285 78.7601 88.2018 79.0134 88.3752 79.44C88.3752 79.72 88.3952 80.0134 88.4352 80.32C88.4885 80.6267 88.5351 80.8867 88.5751 81.1C88.6285 81.3134 88.7018 81.5934 88.7952 81.94C88.8885 82.2867 88.9552 82.5534 88.9952 82.7401C88.9952 82.8467 88.9818 83.02 88.9552 83.26C88.9418 83.4867 88.9218 83.7067 88.8952 83.92C88.8818 84.1334 88.8752 84.2467 88.8752 84.26C88.8618 84.3 88.8418 84.3734 88.8152 84.48C88.8018 84.5867 88.7818 84.6734 88.7552 84.7401C88.7418 84.8067 88.7085 84.88 88.6552 84.96C88.6152 85.0267 88.5618 85.08 88.4952 85.12C88.1352 85.1867 87.8418 85.1067 87.6152 84.8801C87.3885 84.4801 87.2618 84.1867 87.2352 84Z" fill="white"/>
<path d="M90.7702 83.6C90.7968 83.5467 90.8568 83.4467 90.9501 83.3C91.0435 83.1534 91.1101 83.04 91.1501 82.96C91.8435 83.08 92.4302 83.3734 92.9102 83.84C93.1635 84.0267 93.4635 84.1734 93.8102 84.28C94.1702 84.3867 94.4368 84.4534 94.6102 84.48C94.7968 84.4934 95.1568 84.5 95.6902 84.5C96.2235 84.4867 96.5235 84.48 96.5901 84.48C96.8835 84.48 97.2635 84.3934 97.7301 84.2201C97.8635 84.1667 97.9435 84.0734 97.9702 83.94C97.9968 83.8067 97.9568 83.6934 97.8501 83.6C97.5968 83.4134 96.9368 83.0601 95.8701 82.5401C94.8168 82.0201 94.2568 81.7401 94.1902 81.7001C92.8302 81.2867 91.6435 80.6934 90.6301 79.92C90.5635 79.8267 90.4501 79.72 90.2901 79.6C90.1435 79.4667 90.0235 79.3401 89.9301 79.2201C89.8368 79.0867 89.7768 78.94 89.7502 78.78C89.7368 78.26 89.9901 77.8 90.5101 77.4C90.5768 77.3734 90.8368 77.2934 91.2901 77.16C91.7435 77.0267 92.0768 76.8934 92.2901 76.76C93.5301 76.2667 94.7102 75.9801 95.8302 75.9001C95.8568 75.9001 95.9302 75.9067 96.0502 75.92C96.1835 75.9334 96.2568 75.94 96.2702 75.94C96.2968 75.94 96.3635 75.9467 96.4702 75.96C96.5768 75.9734 96.6435 75.9867 96.6702 76C96.6968 76.0134 96.7502 76.0334 96.8302 76.06C96.9102 76.0867 96.9635 76.12 96.9901 76.16C97.0301 76.1867 97.0768 76.2267 97.1301 76.28C97.1835 76.32 97.2235 76.3734 97.2502 76.44C97.2902 76.4934 97.3235 76.56 97.3501 76.64C97.4301 77.1067 97.3035 77.4867 96.9702 77.78C96.9035 77.78 96.6902 77.7867 96.3302 77.8C95.9702 77.8134 95.7368 77.8267 95.6301 77.84C95.5235 77.84 95.3235 77.8601 95.0302 77.9001C94.7368 77.9267 94.5101 77.96 94.3501 78C94.1901 78.04 94.0035 78.1001 93.7901 78.18C93.5768 78.2601 93.3768 78.3534 93.1902 78.46C93.0035 78.5267 92.8768 78.6334 92.8102 78.78C92.7568 78.9267 92.8368 79.0534 93.0502 79.16C93.6635 79.5867 94.5702 80.0734 95.7702 80.62C96.9702 81.1667 97.7901 81.5667 98.2301 81.82C98.6701 82.1 99.0501 82.44 99.3701 82.84C99.7035 83.2267 99.9101 83.6667 99.9901 84.16C100.083 84.6534 99.8768 85.0934 99.3701 85.48C99.0501 85.7334 98.6302 85.9267 98.1102 86.0601C97.6035 86.1934 97.1968 86.2734 96.8902 86.3C96.5835 86.3267 96.1102 86.3467 95.4702 86.3601C94.8035 86.3867 94.0902 86.2867 93.3302 86.0601C92.5702 85.8334 91.9235 85.5134 91.3902 85.1C90.8568 84.9 90.6502 84.4 90.7702 83.6Z" fill="white"/>
<path d="M109.39 73.8601C109.47 73.6601 109.61 73.5001 109.81 73.3801C110.023 73.2467 110.243 73.1934 110.47 73.22C110.55 73.2067 110.623 73.2067 110.69 73.22C110.756 73.2334 110.823 73.26 110.89 73.3C110.97 73.34 111.03 73.3734 111.07 73.4C111.11 73.4267 111.163 73.4867 111.23 73.58C111.31 73.6734 111.363 73.7334 111.39 73.76C111.416 73.7734 111.47 73.84 111.55 73.96L111.67 74.12C111.723 74.2534 111.976 74.5467 112.43 75C112.523 75.1334 112.57 75.2934 112.57 75.48C112.583 75.6534 112.536 75.7934 112.43 75.9001H111.99C111.763 75.9401 111.53 75.9267 111.29 75.8601C111.063 75.7934 110.756 75.66 110.37 75.46C109.996 75.26 109.796 75.1534 109.77 75.14C109.543 75.0067 109.39 74.82 109.31 74.58C109.243 74.3267 109.27 74.0867 109.39 73.8601ZM110.67 84C110.643 83.84 110.603 83.4934 110.55 82.96C110.496 82.4134 110.443 81.8467 110.39 81.26C110.336 80.66 110.303 80.3067 110.29 80.2001C110.263 79.8401 110.263 79.4601 110.29 79.0601C110.49 78.7134 110.823 78.5867 111.29 78.68C111.463 78.7601 111.636 79.0134 111.81 79.44C111.81 79.72 111.83 80.0134 111.87 80.32C111.923 80.6267 111.97 80.8867 112.01 81.1C112.063 81.3134 112.136 81.5934 112.23 81.94C112.323 82.2867 112.39 82.5534 112.43 82.7401C112.43 82.8467 112.416 83.02 112.39 83.26C112.376 83.4867 112.356 83.7067 112.33 83.92C112.316 84.1334 112.31 84.2467 112.31 84.26C112.296 84.3 112.276 84.3734 112.25 84.48C112.236 84.5867 112.216 84.6734 112.19 84.7401C112.176 84.8067 112.143 84.88 112.09 84.96C112.05 85.0267 111.996 85.08 111.93 85.12C111.57 85.1867 111.276 85.1067 111.05 84.8801C110.823 84.4801 110.696 84.1867 110.67 84Z" fill="white"/>
<path d="M118.405 79.5601C117.525 80.3067 116.725 81.2334 116.005 82.34C115.978 82.3934 115.805 82.6867 115.485 83.2201C115.178 83.7401 114.971 84.1201 114.865 84.3601C114.718 84.6001 114.505 84.6867 114.225 84.62L113.345 83.7201V83.1C113.411 82.7534 113.485 82.08 113.565 81.08C113.645 80.08 113.698 79.4867 113.725 79.3C113.725 79.2334 113.718 79.1734 113.705 79.12L113.625 78.6C113.611 78.5467 113.605 78.4867 113.605 78.42V78.34C113.605 78.1267 113.671 77.9534 113.805 77.82C113.951 77.6867 114.131 77.6267 114.345 77.64C114.771 77.64 115.071 77.7734 115.245 78.0401C115.338 78.4001 115.385 78.8667 115.385 79.44C115.385 79.56 115.378 79.7134 115.365 79.9C115.365 80.0734 115.365 80.1667 115.365 80.18C115.471 80.1 115.685 79.9 116.005 79.58C116.338 79.2467 116.545 79.0267 116.625 78.92C116.718 78.8 116.831 78.64 116.965 78.44C117.111 78.2267 117.251 78.0467 117.385 77.9001C117.518 77.7401 117.678 77.5867 117.865 77.44C117.931 77.3467 118.011 77.28 118.105 77.24C118.198 77.1867 118.285 77.16 118.365 77.16C118.458 77.1467 118.558 77.14 118.665 77.14C118.771 77.14 118.878 77.14 118.985 77.14C119.131 77.0867 119.278 77.1001 119.425 77.18C119.585 77.2467 119.751 77.3934 119.925 77.62C120.098 77.8334 120.205 77.9801 120.245 78.0601C120.298 78.1401 120.405 78.3067 120.565 78.56C120.978 79.52 121.185 80.5667 121.185 81.7001L121.565 83.34C121.565 83.38 121.605 83.5134 121.685 83.7401C121.778 83.9667 121.825 84.0867 121.825 84.1C121.851 84.46 121.765 84.7134 121.565 84.8601C121.525 84.8734 121.425 84.9134 121.265 84.98C121.118 85.0334 121.005 85.0601 120.925 85.0601C120.791 85.0601 120.711 84.9934 120.685 84.8601C120.658 84.8201 120.565 84.6734 120.405 84.42C120.258 84.1534 120.138 83.9667 120.045 83.8601C119.791 82.9801 119.625 82.1334 119.545 81.32C119.505 81.2267 119.445 81.0267 119.365 80.7201C119.298 80.4001 119.231 80.1801 119.165 80.0601C118.885 79.7401 118.698 79.5667 118.605 79.5401C118.498 79.5401 118.431 79.5467 118.405 79.5601Z" fill="white"/>
<path d="M137.66 78.34C137.66 78.1534 137.68 77.86 137.72 77.46C137.76 77.0467 137.78 76.6801 137.78 76.3601C137.78 76.04 137.74 75.7667 137.66 75.5401C137.58 75.4734 137.534 75.4334 137.52 75.42C136.454 75.3934 135.654 75.48 135.12 75.68L132.84 76.3C132.627 76.5134 132.46 76.64 132.34 76.68C131.874 76.9467 131.414 77.1201 130.96 77.2001C130.307 76.7734 130.007 76.3667 130.06 75.98C130.034 75.7934 130.127 75.52 130.34 75.16C131.66 74.6 132.707 74.2667 133.48 74.16C134.6 73.84 135.78 73.6267 137.02 73.5201C137.087 73.5067 137.227 73.48 137.44 73.44C137.667 73.4 137.854 73.36 138 73.32C138.16 73.28 138.3 73.22 138.42 73.14C138.46 73.14 138.567 73.1467 138.74 73.16C138.927 73.16 139.1 73.1667 139.26 73.18C139.42 73.18 139.62 73.1734 139.86 73.16C139.927 73.16 140.334 73.1267 141.08 73.0601C141.84 72.9801 142.707 72.9267 143.68 72.9001C143.88 72.9267 144.227 72.9267 144.72 72.9001C145.227 72.8601 145.647 72.88 145.98 72.96C146.327 73.04 146.614 73.2334 146.84 73.5401C146.907 73.6334 146.947 73.7401 146.96 73.8601C146.987 73.9801 146.994 74.0934 146.98 74.2001C146.967 74.3067 146.967 74.4201 146.98 74.5401C146.967 74.5667 146.927 74.6134 146.86 74.68C146.794 74.7467 146.747 74.7867 146.72 74.8C146.4 74.7867 145.7 74.78 144.62 74.78C143.554 74.78 142.86 74.7867 142.54 74.8C142.38 74.8 142.154 74.82 141.86 74.8601C141.58 74.9001 141.36 74.92 141.2 74.92H140.82C140.754 74.92 140.687 74.9267 140.62 74.94L140 75.0201C139.934 75.0334 139.867 75.0401 139.8 75.0401C139.6 75.4001 139.507 75.6334 139.52 75.74C139.44 75.8467 139.4 76.6 139.4 78C139.414 79.3867 139.42 80.1334 139.42 80.2401C139.434 80.3867 139.474 80.98 139.54 82.0201C139.607 83.0467 139.714 83.7934 139.86 84.26V84.32C139.834 84.44 139.66 84.7134 139.34 85.14C139.3 85.18 139.24 85.24 139.16 85.32C139.08 85.4 139.034 85.44 139.02 85.44C139.007 85.4534 138.954 85.4801 138.86 85.5201C138.78 85.5601 138.707 85.5601 138.64 85.5201C138.36 85.5734 138.087 85.3601 137.82 84.8801C137.727 84.8001 137.687 84.5 137.7 83.98C137.714 83.4467 137.714 83.1401 137.7 83.0601C137.7 82.8067 137.68 82.0067 137.64 80.66C137.614 79.3134 137.62 78.54 137.66 78.34Z" fill="white"/>
<path d="M148.555 79.3C149.515 78.0734 150.568 77.2734 151.715 76.9C152.448 76.8067 152.835 76.76 152.875 76.76C153.701 76.7867 154.421 77.04 155.035 77.5201C155.648 77.9867 155.975 78.6267 156.015 79.44C156.028 80.1467 155.741 80.7934 155.155 81.3801C154.581 81.9667 153.941 82.2867 153.235 82.34C152.968 82.4334 152.681 82.48 152.375 82.48C151.681 82.48 150.915 82.2267 150.075 81.7201C149.821 81.4667 149.655 81.34 149.575 81.34C149.521 81.3134 149.475 81.3134 149.435 81.34C148.995 82.0067 148.781 82.5134 148.795 82.8601C148.941 83.7267 149.408 84.4601 150.195 85.0601C150.981 85.6734 151.815 85.9534 152.695 85.9001C152.828 85.9534 153.061 85.9534 153.395 85.9001C153.728 85.8601 153.948 85.8267 154.055 85.8C154.175 85.7734 154.401 85.7067 154.735 85.6C155.081 85.5067 155.321 85.4401 155.455 85.4001C155.921 85.2134 156.541 85.0934 157.315 85.0401H157.455C157.548 85.0134 157.635 85.0334 157.715 85.1C157.795 85.1667 157.841 85.2667 157.855 85.4001V86.14C157.375 86.6867 156.781 86.9801 156.075 87.0201C155.928 87.0601 155.661 87.1334 155.275 87.2401C154.901 87.3467 154.615 87.42 154.415 87.46C154.228 87.5134 153.975 87.56 153.655 87.6C153.348 87.6534 153.068 87.6734 152.815 87.66C151.641 87.7134 150.515 87.4134 149.435 86.76C148.448 86.2534 147.688 85.3734 147.155 84.12C146.955 83.3334 146.988 82.5667 147.255 81.82C147.521 81.0734 147.955 80.2334 148.555 79.3ZM150.115 80.26C150.395 80.26 150.635 80.28 150.835 80.32C150.955 80.3867 151.068 80.44 151.175 80.48C151.295 80.5067 151.435 80.5334 151.595 80.5601C151.768 80.5734 151.881 80.58 151.935 80.58C151.988 80.58 152.128 80.58 152.355 80.58C152.595 80.58 152.721 80.58 152.735 80.58C153.428 80.3667 153.888 80.0667 154.115 79.68C154.155 79.5334 154.155 79.4067 154.115 79.3C154.088 79.18 154.015 79.08 153.895 79C153.775 78.92 153.661 78.86 153.555 78.82C153.448 78.78 153.301 78.7334 153.115 78.68C152.941 78.6134 152.815 78.5667 152.735 78.5401C152.415 78.5401 152.088 78.6334 151.755 78.82C151.421 78.9934 151.155 79.1667 150.955 79.34C150.755 79.5134 150.501 79.7534 150.195 80.0601C150.195 80.0734 150.181 80.1067 150.155 80.16C150.128 80.2 150.115 80.2334 150.115 80.26Z" fill="white"/>
<path d="M157.552 79.64C157.646 79.0534 157.846 78.5467 158.152 78.12C158.459 77.6934 158.892 77.2267 159.452 76.7201C159.932 76.4801 160.552 76.3601 161.312 76.3601C162.246 76.3601 163.012 76.52 163.612 76.84C164.746 77.5467 165.552 78.14 166.032 78.62C166.032 78.66 166.039 78.76 166.052 78.92C166.066 79.08 166.059 79.2134 166.032 79.32C166.019 79.4267 165.972 79.4867 165.892 79.5C165.466 79.5667 165.032 79.5 164.592 79.3C164.486 79.2334 164.312 79.1334 164.072 79C163.832 78.8534 163.652 78.7467 163.532 78.68C163.412 78.6134 163.252 78.5467 163.052 78.48C162.852 78.4134 162.659 78.3734 162.472 78.3601C162.366 78.3601 162.192 78.3601 161.952 78.3601C161.712 78.3467 161.519 78.3467 161.372 78.3601C161.239 78.3601 161.072 78.38 160.872 78.42C160.672 78.46 160.492 78.5267 160.332 78.62L160.212 78.74C159.732 79.38 159.432 79.8734 159.312 80.2201C159.339 80.6201 159.339 80.98 159.312 81.3C159.286 81.6067 159.279 81.9601 159.292 82.3601C159.319 82.7601 159.372 83.1134 159.452 83.42C159.546 83.58 159.599 83.7401 159.612 83.9001C159.626 84.0467 159.592 84.22 159.512 84.42C159.432 84.62 159.372 84.76 159.332 84.84C159.306 84.9067 159.219 85.06 159.072 85.3C158.952 85.46 158.806 85.5401 158.632 85.5401C158.446 85.5401 158.252 85.46 158.052 85.3C157.732 85.1 157.479 84.7267 157.292 84.18C157.292 82.0734 157.379 80.56 157.552 79.64Z" fill="white"/>
<path d="M167.086 79.2201L167.206 79.8601C167.166 80.0334 167.253 80.4534 167.466 81.12C167.999 80.56 168.373 80.0534 168.586 79.6C168.879 79.2667 169.006 78.9267 168.966 78.58C169.553 78.2467 170.059 78.1201 170.486 78.2001C170.726 78.2667 170.979 78.5667 171.246 79.1V81L171.386 81.12C171.639 80.8534 171.966 80.46 172.366 79.94C172.779 79.42 173.039 79.0934 173.146 78.96C173.546 78.4134 173.926 78.0334 174.286 77.82C174.846 77.8867 175.266 78.1 175.546 78.46C175.933 79.1134 176.186 80.0401 176.306 81.2401C176.293 81.4801 176.306 81.7334 176.346 82C176.386 82.2667 176.446 82.5601 176.526 82.8801C176.606 83.2001 176.659 83.4534 176.686 83.64C176.819 84.0134 176.866 84.3534 176.826 84.66C176.813 84.8334 176.726 84.9467 176.566 85C176.406 85.0534 176.239 85.0601 176.066 85.0201C175.773 84.9534 175.519 84.7067 175.306 84.28C175.213 84.08 175.126 83.8867 175.046 83.7001C174.979 83.5001 174.913 83.26 174.846 82.98C174.793 82.6867 174.753 82.4934 174.726 82.4001C174.713 82.3067 174.679 82.06 174.626 81.66C174.573 81.2467 174.546 81.0267 174.546 81C174.453 80.7334 174.346 80.6 174.226 80.6C174.173 80.6267 174.073 80.7067 173.926 80.84C173.779 80.9734 173.633 81.1134 173.486 81.26C173.353 81.3934 173.206 81.5467 173.046 81.7201C172.886 81.8801 172.793 81.9734 172.766 82L172.566 82.28L171.826 83.2401L171.626 83.5201C171.573 83.5734 171.473 83.7001 171.326 83.9001C171.193 84.0867 171.073 84.2267 170.966 84.32C170.873 84.4134 170.759 84.4867 170.626 84.5401C170.399 84.5801 170.186 84.56 169.986 84.48C169.786 84.3867 169.659 84.2334 169.606 84.0201C169.526 83.9134 169.486 83.7867 169.486 83.64V81.5201H169.446C169.393 81.4934 169.359 81.4867 169.346 81.5C168.426 82.7934 167.713 83.8867 167.206 84.78C167.086 84.94 166.999 85.0201 166.946 85.0201C166.373 85.0867 166.039 85.0067 165.946 84.78C165.906 84.7134 165.853 84.5801 165.786 84.3801C165.719 84.1667 165.686 84.0467 165.686 84.0201V79.16C165.739 78.8 165.913 78.62 166.206 78.62C166.366 78.62 166.533 78.68 166.706 78.8C166.879 78.92 167.006 79.0601 167.086 79.2201Z" fill="white"/>
<path d="M177.162 73.8601C177.242 73.6601 177.382 73.5001 177.582 73.3801C177.796 73.2467 178.016 73.1934 178.242 73.22C178.322 73.2067 178.396 73.2067 178.462 73.22C178.529 73.2334 178.596 73.26 178.662 73.3C178.742 73.34 178.802 73.3734 178.842 73.4C178.882 73.4267 178.936 73.4867 179.002 73.58C179.082 73.6734 179.136 73.7334 179.162 73.76C179.189 73.7734 179.242 73.84 179.322 73.96L179.442 74.12C179.496 74.2534 179.749 74.5467 180.202 75C180.296 75.1334 180.342 75.2934 180.342 75.48C180.356 75.6534 180.309 75.7934 180.202 75.9001H179.762C179.536 75.9401 179.302 75.9267 179.062 75.8601C178.836 75.7934 178.529 75.66 178.142 75.46C177.769 75.26 177.569 75.1534 177.542 75.14C177.316 75.0067 177.162 74.82 177.082 74.58C177.016 74.3267 177.042 74.0867 177.162 73.8601ZM178.442 84C178.416 83.84 178.376 83.4934 178.322 82.96C178.269 82.4134 178.216 81.8467 178.162 81.26C178.109 80.66 178.076 80.3067 178.062 80.2001C178.036 79.8401 178.036 79.4601 178.062 79.0601C178.262 78.7134 178.596 78.5867 179.062 78.68C179.236 78.7601 179.409 79.0134 179.582 79.44C179.582 79.72 179.602 80.0134 179.642 80.32C179.696 80.6267 179.742 80.8867 179.782 81.1C179.836 81.3134 179.909 81.5934 180.002 81.94C180.096 82.2867 180.162 82.5534 180.202 82.7401C180.202 82.8467 180.189 83.02 180.162 83.26C180.149 83.4867 180.129 83.7067 180.102 83.92C180.089 84.1334 180.082 84.2467 180.082 84.26C180.069 84.3 180.049 84.3734 180.022 84.48C180.009 84.5867 179.989 84.6734 179.962 84.7401C179.949 84.8067 179.916 84.88 179.862 84.96C179.822 85.0267 179.769 85.08 179.702 85.12C179.342 85.1867 179.049 85.1067 178.822 84.8801C178.596 84.4801 178.469 84.1867 178.442 84Z" fill="white"/>
<path d="M186.177 79.5601C185.297 80.3067 184.497 81.2334 183.777 82.34C183.751 82.3934 183.577 82.6867 183.257 83.2201C182.951 83.7401 182.744 84.1201 182.637 84.3601C182.491 84.6001 182.277 84.6867 181.997 84.62L181.117 83.7201V83.1C181.184 82.7534 181.257 82.08 181.337 81.08C181.417 80.08 181.471 79.4867 181.497 79.3C181.497 79.2334 181.491 79.1734 181.477 79.12L181.397 78.6C181.384 78.5467 181.377 78.4867 181.377 78.42V78.34C181.377 78.1267 181.444 77.9534 181.577 77.82C181.724 77.6867 181.904 77.6267 182.117 77.64C182.544 77.64 182.844 77.7734 183.017 78.0401C183.111 78.4001 183.157 78.8667 183.157 79.44C183.157 79.56 183.151 79.7134 183.137 79.9C183.137 80.0734 183.137 80.1667 183.137 80.18C183.244 80.1 183.457 79.9 183.777 79.58C184.111 79.2467 184.317 79.0267 184.397 78.92C184.491 78.8 184.604 78.64 184.737 78.44C184.884 78.2267 185.024 78.0467 185.157 77.9001C185.291 77.7401 185.451 77.5867 185.637 77.44C185.704 77.3467 185.784 77.28 185.877 77.24C185.971 77.1867 186.057 77.16 186.137 77.16C186.231 77.1467 186.331 77.14 186.437 77.14C186.544 77.14 186.651 77.14 186.757 77.14C186.904 77.0867 187.051 77.1001 187.197 77.18C187.357 77.2467 187.524 77.3934 187.697 77.62C187.871 77.8334 187.977 77.9801 188.017 78.0601C188.071 78.1401 188.177 78.3067 188.337 78.56C188.751 79.52 188.957 80.5667 188.957 81.7001L189.337 83.34C189.337 83.38 189.377 83.5134 189.457 83.7401C189.551 83.9667 189.597 84.0867 189.597 84.1C189.624 84.46 189.537 84.7134 189.337 84.8601C189.297 84.8734 189.197 84.9134 189.037 84.98C188.891 85.0334 188.777 85.0601 188.697 85.0601C188.564 85.0601 188.484 84.9934 188.457 84.8601C188.431 84.8201 188.337 84.6734 188.177 84.42C188.031 84.1534 187.911 83.9667 187.817 83.8601C187.564 82.9801 187.397 82.1334 187.317 81.32C187.277 81.2267 187.217 81.0267 187.137 80.7201C187.071 80.4001 187.004 80.1801 186.937 80.0601C186.657 79.7401 186.471 79.5667 186.377 79.5401C186.271 79.5401 186.204 79.5467 186.177 79.5601Z" fill="white"/>
<path d="M197.553 82.12C197.446 82.2 197.32 82.3667 197.173 82.62C196.466 83.3934 195.773 84.0134 195.093 84.48C194.426 84.9334 193.7 85.1534 192.913 85.14C192.5 85.1934 192.073 85.14 191.633 84.98C191.193 84.8067 190.846 84.5667 190.593 84.26C190.473 84.0734 190.386 83.9467 190.333 83.8801C190.293 83.8001 190.226 83.6801 190.133 83.5201C190.04 83.3467 189.973 83.2067 189.933 83.1C189.906 82.9934 189.873 82.8667 189.833 82.7201C189.793 82.5734 189.773 82.4334 189.773 82.3C189.773 82.1534 189.793 82.0067 189.833 81.8601C189.846 81.4067 189.993 80.9467 190.273 80.48C190.566 80.0134 190.86 79.6401 191.153 79.3601C191.446 79.0801 191.826 78.7467 192.293 78.3601C192.386 78.2934 192.453 78.2401 192.493 78.2001C193.053 77.7467 193.813 77.5201 194.773 77.5201C194.973 77.5201 195.606 77.5734 196.673 77.68C196.7 77.7067 196.786 77.7534 196.933 77.82C197.093 77.8867 197.206 77.9601 197.273 78.0401C197.34 78.1067 197.346 78.2 197.293 78.32L197.553 78.58C197.953 78.7534 198.206 78.9201 198.313 79.0801C198.98 80.4401 199.566 81.5334 200.073 82.3601C200.126 82.4267 200.293 82.58 200.573 82.82C200.866 83.0467 201.04 83.1934 201.093 83.26C201.2 83.34 201.326 83.4534 201.473 83.6C201.633 83.7334 201.766 83.8334 201.873 83.9001C201.98 83.9667 202.1 84.0067 202.233 84.0201C202.246 84.0334 202.333 84.1134 202.493 84.26C202.506 84.3 202.5 84.3534 202.473 84.42C202.46 84.4734 202.44 84.54 202.413 84.62C202.386 84.7 202.366 84.7534 202.353 84.78C202.22 84.98 201.926 85.14 201.473 85.26C201.313 85.26 201.2 85.2667 201.133 85.28C201.08 85.3067 200.986 85.2934 200.853 85.2401C200.733 85.2001 200.646 85.1667 200.593 85.14C200.553 85.1267 200.466 85.08 200.333 85C200.2 84.92 200.1 84.86 200.033 84.82L199.953 84.78C199.62 84.5 199.16 84.02 198.573 83.34C198 82.6467 197.66 82.24 197.553 82.12ZM191.733 82.7401C191.973 83.1001 192.333 83.28 192.813 83.28C193.04 83.28 193.353 83.2267 193.753 83.12C194.406 82.88 195 82.4601 195.533 81.8601C196.053 81.1401 196.346 80.5067 196.413 79.96C196.413 79.92 196.44 79.7667 196.493 79.5C196.546 79.22 196.566 79.0267 196.553 78.92C196.286 78.9867 195.9 79.0401 195.393 79.0801C194.9 79.1067 194.52 79.1467 194.253 79.2001C193.906 79.2534 193.553 79.4201 193.193 79.7001C192.833 79.9667 192.56 80.22 192.373 80.46C192.186 80.7 191.933 81.04 191.613 81.48C191.386 81.76 191.426 82.1801 191.733 82.7401Z" fill="white"/>
<path d="M203.653 81.46C203.666 80.66 203.713 79.5867 203.793 78.24C203.873 76.88 203.92 75.9334 203.933 75.4001C203.92 74.7467 203.946 73.5267 204.013 71.74C204.08 69.9534 204.093 68.6467 204.053 67.82C204.16 67.4734 204.36 67.3 204.653 67.3C205.026 67.3 205.333 67.5134 205.573 67.94C205.573 68.1134 205.58 68.2734 205.593 68.42L205.673 69.8601C205.686 70.0067 205.693 70.1667 205.693 70.34C205.666 71.5934 205.58 73.4267 205.433 75.84C205.3 78.2534 205.22 79.96 205.193 80.96C205.206 81.1467 205.226 81.4334 205.253 81.82C205.28 82.2067 205.3 82.4934 205.313 82.68C205.34 82.8534 205.373 83.0801 205.413 83.3601C205.466 83.6267 205.533 83.8734 205.613 84.1C205.706 84.3134 205.82 84.5267 205.953 84.7401C205.966 84.9267 205.92 85.0934 205.813 85.2401C205.64 85.3467 205.42 85.4001 205.153 85.4001C204.846 85.4001 204.606 85.3467 204.433 85.2401C204.206 85.0001 204.033 84.7 203.913 84.34C203.793 83.98 203.72 83.7 203.693 83.5C203.666 83.3 203.653 82.9334 203.653 82.4001C203.653 81.8534 203.653 81.54 203.653 81.46Z" fill="white"/>
</svg>
