<svg width="1199" height="182" viewBox="0 0 1199 182" fill="none" xmlns="http://www.w3.org/2000/svg">
<path d="M128.74 129.307C128.74 72.3072 44.5744 85.6475 44.5744 56.0562C44.5744 45.384 52.0935 40.2904 62.0381 40.5329C73.1955 40.7755 80.9571 47.3244 81.6848 58.2392H126.557C124.859 25.7373 99.8761 7.3034 62.7657 7.3034C27.1107 7.3034 0.672603 25.2522 0.672603 57.5115C0.1875 117.907 85.323 100.928 85.323 132.46C85.323 142.405 77.5614 148.468 65.4338 148.468C53.7913 148.468 45.5446 142.162 44.3318 129.064H0.1875C1.40026 163.506 30.0213 181.698 66.6466 181.698C106.425 181.698 128.74 157.928 128.74 129.307Z" fill="url(#paint0_linear_2212_2494)" fill-opacity="0.27"/>
<path d="M146.029 180H187.505V106.507C187.505 88.073 197.692 77.8858 213.458 77.8858C229.224 77.8858 239.411 88.073 239.411 106.507V180H280.645V100.928C280.645 64.5455 260.028 43.201 229.224 43.201C210.547 43.201 195.752 51.2052 187.505 62.8477V0.511963H146.029V180Z" fill="url(#paint1_linear_2212_2494)" fill-opacity="0.27"/>
<path d="M433.664 112.328C433.664 69.3965 403.102 42.7159 363.324 42.7159C323.788 42.7159 292.984 69.3965 292.984 112.328C292.984 155.26 323.06 181.94 362.839 181.94C402.617 181.94 433.664 155.26 433.664 112.328ZM335.188 112.328C335.188 89.2858 348.286 78.6135 363.324 78.6135C377.877 78.6135 391.46 89.2858 391.46 112.328C391.46 135.128 377.634 146.043 362.839 146.043C347.8 146.043 335.188 135.128 335.188 112.328Z" fill="url(#paint2_linear_2212_2494)" fill-opacity="0.27"/>
<path d="M470.232 180H515.831L537.903 92.1964L559.248 180H605.09L641.715 44.6563H602.665L583.746 140.949L560.703 44.6563H516.801L494.002 141.434L474.84 44.6563H433.364L470.232 180Z" fill="url(#paint3_linear_2212_2494)" fill-opacity="0.27"/>
<path d="M641.05 112.328C641.05 155.26 669.186 181.94 708.964 181.94C742.921 181.94 766.934 162.294 773.968 131.005H729.824C726.185 140.949 719.636 146.528 708.236 146.528C693.441 146.528 683.254 134.885 683.254 112.328C683.254 89.7709 693.441 78.1284 708.236 78.1284C719.636 78.1284 726.428 84.1922 729.824 93.6517H773.968C766.934 61.3923 742.921 42.7159 708.964 42.7159C669.186 42.7159 641.05 69.6391 641.05 112.328Z" fill="url(#paint4_linear_2212_2494)" fill-opacity="0.27"/>
<path d="M779.671 112.086C779.671 154.775 806.109 181.94 839.096 181.94C859.228 181.94 873.538 172.723 881.058 160.838V180H922.534V44.6563H881.058V63.8179C873.781 51.9329 859.47 42.7159 839.339 42.7159C806.109 42.7159 779.671 69.3965 779.671 112.086ZM881.058 112.328C881.058 133.915 867.232 145.8 851.466 145.8C835.943 145.8 821.875 133.673 821.875 112.086C821.875 90.4985 835.943 78.856 851.466 78.856C867.232 78.856 881.058 90.7411 881.058 112.328Z" fill="url(#paint5_linear_2212_2494)" fill-opacity="0.27"/>
<path d="M1054.18 140.707C1053.45 90.256 980.202 105.537 980.202 83.9496C980.202 77.4007 985.538 73.5199 995.24 73.5199C1006.88 73.5199 1013.92 79.5837 1015.13 88.8007H1053.45C1050.78 62.12 1031.38 42.7159 996.453 42.7159C961.04 42.7159 941.394 61.6349 941.394 84.6773C941.394 134.4 1015.13 118.634 1015.13 140.464C1015.13 146.528 1009.55 151.379 998.878 151.379C987.478 151.379 978.989 145.073 978.019 135.613H937.028C938.968 161.809 963.223 181.94 999.363 181.94C1033.32 181.94 1054.18 164.234 1054.18 140.707Z" fill="url(#paint6_linear_2212_2494)" fill-opacity="0.27"/>
<path d="M1130.99 75.9454C1144.81 75.9454 1156.45 84.4347 1156.45 99.2304H1104.55C1106.97 84.1922 1117.4 75.9454 1130.99 75.9454ZM1195.75 135.128H1151.6C1148.21 142.405 1141.66 148.226 1130.02 148.226C1116.68 148.226 1105.76 139.979 1104.31 122.273H1198.17C1198.66 118.149 1198.9 114.026 1198.9 110.145C1198.9 68.9114 1171.01 42.7159 1131.47 42.7159C1091.21 42.7159 1063.07 69.3965 1063.07 112.328C1063.07 155.26 1091.69 181.94 1131.47 181.94C1165.19 181.94 1189.2 161.566 1195.75 135.128Z" fill="url(#paint7_linear_2212_2494)" fill-opacity="0.27"/>
<defs>
<linearGradient id="paint0_linear_2212_2494" x1="598" y1="-87" x2="598" y2="277" gradientUnits="userSpaceOnUse">
<stop stop-color="#21232F"/>
<stop offset="0.189055" stop-color="#151934"/>
<stop offset="0.661692" stop-color="white" stop-opacity="0"/>
</linearGradient>
<linearGradient id="paint1_linear_2212_2494" x1="598" y1="-87" x2="598" y2="277" gradientUnits="userSpaceOnUse">
<stop stop-color="#21232F"/>
<stop offset="0.189055" stop-color="#151934"/>
<stop offset="0.661692" stop-color="white" stop-opacity="0"/>
</linearGradient>
<linearGradient id="paint2_linear_2212_2494" x1="598" y1="-87" x2="598" y2="277" gradientUnits="userSpaceOnUse">
<stop stop-color="#21232F"/>
<stop offset="0.189055" stop-color="#151934"/>
<stop offset="0.661692" stop-color="white" stop-opacity="0"/>
</linearGradient>
<linearGradient id="paint3_linear_2212_2494" x1="598" y1="-87" x2="598" y2="277" gradientUnits="userSpaceOnUse">
<stop stop-color="#21232F"/>
<stop offset="0.189055" stop-color="#151934"/>
<stop offset="0.661692" stop-color="white" stop-opacity="0"/>
</linearGradient>
<linearGradient id="paint4_linear_2212_2494" x1="598" y1="-87" x2="598" y2="277" gradientUnits="userSpaceOnUse">
<stop stop-color="#21232F"/>
<stop offset="0.189055" stop-color="#151934"/>
<stop offset="0.661692" stop-color="white" stop-opacity="0"/>
</linearGradient>
<linearGradient id="paint5_linear_2212_2494" x1="598" y1="-87" x2="598" y2="277" gradientUnits="userSpaceOnUse">
<stop stop-color="#21232F"/>
<stop offset="0.189055" stop-color="#151934"/>
<stop offset="0.661692" stop-color="white" stop-opacity="0"/>
</linearGradient>
<linearGradient id="paint6_linear_2212_2494" x1="598" y1="-87" x2="598" y2="277" gradientUnits="userSpaceOnUse">
<stop stop-color="#21232F"/>
<stop offset="0.189055" stop-color="#151934"/>
<stop offset="0.661692" stop-color="white" stop-opacity="0"/>
</linearGradient>
<linearGradient id="paint7_linear_2212_2494" x1="598" y1="-87" x2="598" y2="277" gradientUnits="userSpaceOnUse">
<stop stop-color="#21232F"/>
<stop offset="0.189055" stop-color="#151934"/>
<stop offset="0.661692" stop-color="white" stop-opacity="0"/>
</linearGradient>
</defs>
</svg>
