<svg width="6" height="10" viewBox="0 0 6 10" fill="none" xmlns="http://www.w3.org/2000/svg">
<g clip-path="url(#clip0_2038_2756)">
<path d="M5.70085 9.99978C5.78368 9.99978 5.8665 9.9652 5.92531 9.89852C6.03381 9.77503 6.02139 9.58733 5.89715 9.47948L0.751098 4.99937L5.89798 0.520071C6.02222 0.412225 6.03464 0.224525 5.92614 0.101038C5.81764 -0.0224497 5.62879 -0.0347985 5.50455 0.0730471L0.101732 4.77627C0.037127 4.83225 -0.000145435 4.91375 -0.000145435 4.99937C-0.000145435 5.08498 0.037127 5.16649 0.101732 5.22247L5.50455 9.92651C5.56087 9.9759 5.63127 9.99978 5.70085 9.99978Z" fill="white"/>
</g>
<defs>
<clipPath id="clip0_2038_2756">
<rect width="6" height="10" fill="white" transform="matrix(-1 0 0 1 6 0)"/>
</clipPath>
</defs>
</svg>
