<svg width="500" height="500" viewBox="0 0 500 500" fill="none" xmlns="http://www.w3.org/2000/svg">
<g clip-path="url(#clip0_645_1322)">
<circle cx="250" cy="250" r="250" fill="white"/>
<path d="M367.865 418.452L306.699 357.271L305.765 357.405V356.734L175.687 227.529L207.739 196.402L188.908 87.7251L99.5631 199.085C84.3384 214.515 81.5338 239.604 92.4849 258.12L148.309 351.233C156.856 365.589 172.348 374.176 189.042 374.042L216.687 373.773L367.865 418.452Z" fill="#18B6F6"/>
<path d="M401.247 196.938L388.961 174.129L382.55 162.457L380.013 157.895L379.746 158.163L346.091 99.5314C337.677 84.7728 321.918 75.6493 304.824 75.7834L275.309 76.5884L187.3 76.8568C170.606 76.9909 155.381 85.8461 146.968 100.202L93.4141 207.001L189.17 87.4562L314.707 226.187L292.404 248.861L305.759 357.404L305.892 357.136V357.404H305.625L305.892 357.672L316.309 367.869L366.925 417.646C369.062 419.658 372.534 417.243 371.065 414.694L339.814 352.842L394.303 251.545L396.039 249.532C396.707 248.727 397.374 247.922 397.909 247.117C408.592 232.493 410.062 212.904 401.247 196.938Z" fill="#AC7EF4"/>
<path d="M315.106 225.651L189.168 87.5908L207.064 195.731L175.012 226.992L305.49 357.27L293.738 249.13L315.106 225.651Z" fill="white"/>
</g>
<defs>
<clipPath id="clip0_645_1322">
<rect width="500" height="500" fill="white"/>
</clipPath>
</defs>
</svg>
