<svg width="66" height="66" viewBox="0 0 66 66" fill="none" xmlns="http://www.w3.org/2000/svg">
<path d="M63.56 47.8501H1.75V63.9101H63.56V47.8501Z" fill="#52B2F6"/>
<path d="M63.56 25.3701H1.75V41.4301H63.56V25.3701Z" fill="#A87FF5"/>
<path d="M63.56 0.880127H1.75V16.9401H63.56V0.880127Z" fill="#52B2F6"/>
<path d="M63.23 18.91C64.52 18.91 65.57 17.86 65.57 16.56V2.35C65.57 1.06 64.52 0 63.23 0H2.34998C1.05998 0 0 1.05 0 2.35V16.56C0 17.85 1.04998 18.91 2.34998 18.91H6.09003V23.35H2.34998C1.05998 23.35 0 24.4 0 25.7V39.91C0 41.2 1.04998 42.26 2.34998 42.26H6.09003V46.7H2.34998C1.05998 46.7 0 47.75 0 49.05V63.26C0 64.55 1.04998 65.61 2.34998 65.61H63.23C64.52 65.61 65.57 64.56 65.57 63.26V49.05C65.57 47.76 64.52 46.7 63.23 46.7H59.49V42.26H63.23C64.52 42.26 65.57 41.21 65.57 39.91V25.7C65.57 24.41 64.52 23.35 63.23 23.35H59.49V18.91H63.23ZM62.91 49.35V62.92H2.66003V49.35H62.91ZM8.75 46.69V42.25H56.83V46.69H8.75ZM2.66003 39.59V26.02H62.91V39.59H2.66003ZM8.75 23.35V18.91H56.83V23.35H8.75ZM2.66003 16.25V2.68H62.91V16.25H2.66003Z" fill="#52B2F6"/>
<path d="M7.4198 29.4399C6.6898 29.4399 6.08984 30.0399 6.08984 30.7699V34.8299C6.08984 35.5599 6.6898 36.1599 7.4198 36.1599C8.1498 36.1599 8.74982 35.5599 8.74982 34.8299V30.7699C8.74982 30.0399 8.1498 29.4399 7.4198 29.4399Z" fill="white"/>
<path d="M11.4784 29.4399C10.7484 29.4399 10.1484 30.0399 10.1484 30.7699V34.8299C10.1484 35.5599 10.7484 36.1599 11.4784 36.1599C12.2084 36.1599 12.8084 35.5599 12.8084 34.8299V30.7699C12.8084 30.0399 12.2084 29.4399 11.4784 29.4399Z" fill="white"/>
<path d="M15.537 29.4399C14.807 29.4399 14.207 30.0399 14.207 30.7699V34.8299C14.207 35.5599 14.807 36.1599 15.537 36.1599C16.267 36.1599 16.867 35.5599 16.867 34.8299V30.7699C16.867 30.0399 16.267 29.4399 15.537 29.4399Z" fill="white"/>
<path d="M19.5995 29.4399C18.8695 29.4399 18.2695 30.0399 18.2695 30.7699V34.8299C18.2695 35.5599 18.8695 36.1599 19.5995 36.1599C20.3295 36.1599 20.9295 35.5599 20.9295 34.8299V30.7699C20.9295 30.0399 20.3295 29.4399 19.5995 29.4399Z" fill="white"/>
<path d="M58.1584 31.47H45.9784C45.2484 31.47 44.6484 32.07 44.6484 32.8C44.6484 33.53 45.2484 34.13 45.9784 34.13H58.1584C58.8884 34.13 59.4884 33.53 59.4884 32.8C59.4884 32.07 58.8884 31.47 58.1584 31.47Z" fill="white"/>
<path d="M7.4198 59.5C8.1498 59.5 8.74982 58.9 8.74982 58.17V54.11C8.74982 53.38 8.1498 52.78 7.4198 52.78C6.6898 52.78 6.08984 53.38 6.08984 54.11V58.17C6.08984 58.9 6.6898 59.5 7.4198 59.5Z" fill="white"/>
<path d="M11.4784 59.5C12.2084 59.5 12.8084 58.9 12.8084 58.17V54.11C12.8084 53.38 12.2084 52.78 11.4784 52.78C10.7484 52.78 10.1484 53.38 10.1484 54.11V58.17C10.1484 58.9 10.7484 59.5 11.4784 59.5Z" fill="white"/>
<path d="M15.537 59.5C16.267 59.5 16.867 58.9 16.867 58.17V54.11C16.867 53.38 16.267 52.78 15.537 52.78C14.807 52.78 14.207 53.38 14.207 54.11V58.17C14.207 58.9 14.807 59.5 15.537 59.5Z" fill="white"/>
<path d="M19.5995 59.5C20.3295 59.5 20.9295 58.9 20.9295 58.17V54.11C20.9295 53.38 20.3295 52.78 19.5995 52.78C18.8695 52.78 18.2695 53.38 18.2695 54.11V58.17C18.2695 58.9 18.8695 59.5 19.5995 59.5Z" fill="white"/>
<path d="M45.9784 57.4701H58.1584C58.8884 57.4701 59.4884 56.8701 59.4884 56.1401C59.4884 55.4101 58.8884 54.8101 58.1584 54.8101H45.9784C45.2484 54.8101 44.6484 55.4101 44.6484 56.1401C44.6484 56.8701 45.2484 57.4701 45.9784 57.4701Z" fill="white"/>
<path d="M7.4198 6.1001C6.6898 6.1001 6.08984 6.7001 6.08984 7.4301V11.4901C6.08984 12.2201 6.6898 12.8201 7.4198 12.8201C8.1498 12.8201 8.74982 12.2201 8.74982 11.4901V7.4301C8.74982 6.7001 8.1498 6.1001 7.4198 6.1001Z" fill="white"/>
<path d="M11.4784 6.1001C10.7484 6.1001 10.1484 6.7001 10.1484 7.4301V11.4901C10.1484 12.2201 10.7484 12.8201 11.4784 12.8201C12.2084 12.8201 12.8084 12.2201 12.8084 11.4901V7.4301C12.8084 6.7001 12.2084 6.1001 11.4784 6.1001Z" fill="white"/>
<path d="M15.537 6.1001C14.807 6.1001 14.207 6.7001 14.207 7.4301V11.4901C14.207 12.2201 14.807 12.8201 15.537 12.8201C16.267 12.8201 16.867 12.2201 16.867 11.4901V7.4301C16.867 6.7001 16.267 6.1001 15.537 6.1001Z" fill="white"/>
<path d="M19.5995 6.1001C18.8695 6.1001 18.2695 6.7001 18.2695 7.4301V11.4901C18.2695 12.2201 18.8695 12.8201 19.5995 12.8201C20.3295 12.8201 20.9295 12.2201 20.9295 11.4901V7.4301C20.9295 6.7001 20.3295 6.1001 19.5995 6.1001Z" fill="white"/>
<path d="M58.1584 8.13013H45.9784C45.2484 8.13013 44.6484 8.73013 44.6484 9.46013C44.6484 10.1901 45.2484 10.7901 45.9784 10.7901H58.1584C58.8884 10.7901 59.4884 10.1901 59.4884 9.46013C59.4884 8.73013 58.8884 8.13013 58.1584 8.13013Z" fill="white"/>
</svg>
