<svg width="88" height="74" viewBox="0 0 88 74" fill="none" xmlns="http://www.w3.org/2000/svg">
<path d="M81.9992 2.07983H4.60921C2.85921 2.07983 1.44922 3.47984 1.44922 5.20984V58.7999C1.44922 60.5299 2.86921 61.9299 4.60921 61.9299H13.0392C12.8892 62.1099 12.7992 62.2798 12.7992 62.4498L14.0792 70.2798C14.0792 71.0698 14.6692 71.6998 15.4092 71.6998H16.6992C17.4292 71.6998 18.0292 71.0598 18.0292 70.2798L21.1892 62.3099C21.1892 62.1899 21.0392 62.0599 20.8092 61.9199H67.0292C66.3392 62.5999 65.7092 63.3599 65.7092 63.6599L67.6792 70.2798C67.6792 71.0698 68.2692 71.6998 69.0092 71.6998H70.2992C71.0292 71.6998 71.6292 71.0598 71.6292 70.2798L72.9092 62.4498C72.9092 62.2798 72.8192 62.0999 72.6692 61.9299H81.9892C83.7392 61.9299 85.1492 60.5299 85.1492 58.7999V5.20984C85.1492 3.47984 83.7292 2.07983 81.9892 2.07983H81.9992Z" fill="#52B2F6"/>
<path d="M66.38 7.55005H19.84C12.0583 7.55005 5.75 13.8583 5.75 21.64V41.97C5.75 49.7517 12.0583 56.0601 19.84 56.0601H66.38C74.1617 56.0601 80.47 49.7517 80.47 41.97V21.64C80.47 13.8583 74.1617 7.55005 66.38 7.55005Z" fill="#A87FF5"/>
<path d="M74.3369 5.78979H12.7669C10.5669 5.78979 8.57687 6.67976 7.13687 8.12976C5.69687 9.56976 4.79688 11.5698 4.79688 13.7598V50.0698C4.79688 52.2598 5.69687 54.2598 7.13687 55.6998C8.58687 57.1498 10.5769 58.0398 12.7669 58.0398H74.3369C76.5369 58.0398 78.5269 57.1398 79.9669 55.6998C81.4069 54.2598 82.3069 52.2598 82.3069 50.0698V13.7598C82.3069 11.5598 81.4069 9.56976 79.9669 8.12976C78.5169 6.67976 76.5269 5.78979 74.3369 5.78979ZM80.2169 50.0698C80.2169 51.6798 79.5569 53.1498 78.4869 54.2198C77.4169 55.2898 75.9469 55.9498 74.3369 55.9498H12.7669C11.1569 55.9498 9.67687 55.2898 8.61687 54.2198C7.54687 53.1498 6.88687 51.6798 6.88687 50.0698V13.7598C6.88687 12.1398 7.54687 10.6698 8.61687 9.6098C9.68687 8.5398 11.1569 7.87976 12.7669 7.87976H74.3369C75.9469 7.87976 77.4269 8.5398 78.4869 9.6098C79.5569 10.6798 80.2169 12.1398 80.2169 13.7598V50.0698Z" fill="#52B2F6"/>
<path d="M85.01 2.17999C83.7 0.869993 81.91 0.0599976 79.94 0.0599976H53.6V0H33.52V0.0599976H7.18C5.2 0.0599976 3.41 0.869983 2.11 2.16998C0.800001 3.46998 0 5.26999 0 7.23999V56.58C0 58.55 0.810001 60.35 2.11 61.65C3.41 62.95 5.21 63.7599 7.18 63.7599H12.58L13.55 70.5C13.62 70.95 13.79 71.38 14.05 71.7599C14.31 72.13 14.65 72.44 15.06 72.66C15.77 73.04 16.56 73.0899 17.27 72.8799C17.98 72.6599 18.61 72.17 18.99 71.47C19.37 70.77 20.08 69.45 20.77 68.16C21.56 66.71 22.34 65.25 23.13 63.78H63.98C64.76 65.25 65.55 66.71 66.34 68.16C67.04 69.45 67.75 70.76 68.12 71.47C68.49 72.18 69.13 72.6699 69.84 72.8799C70.55 73.0899 71.34 73.04 72.05 72.66C72.47 72.44 72.81 72.13 73.06 71.7599C73.32 71.3899 73.49 70.95 73.56 70.5L74.53 63.7599H79.93C81.9 63.7599 83.7 62.95 85 61.65C86.3 60.35 87.11 58.55 87.11 56.58V7.23999C87.11 5.26999 86.3 3.46998 85 2.16998L85.01 2.17999ZM18.94 67.16C18.44 68.08 17.95 68.98 17.16 70.48C17.05 70.68 16.88 70.8199 16.68 70.8799C16.48 70.9399 16.25 70.9199 16.05 70.8199C15.93 70.7599 15.84 70.6699 15.77 70.5699C15.7 70.4699 15.65 70.34 15.63 70.21L14.71 63.77H20.78C20.18 64.9 19.56 66.03 18.95 67.16H18.94ZM71.5 70.21C71.48 70.34 71.43 70.4599 71.36 70.5699C71.29 70.6699 71.19 70.7599 71.08 70.8199C70.88 70.9299 70.65 70.9399 70.45 70.8799C70.25 70.8199 70.08 70.68 69.97 70.48C69.17 68.98 68.68 68.08 68.18 67.16C67.57 66.03 66.95 64.9 66.36 63.77H72.42L71.5 70.21ZM85.03 56.59C85.03 57.99 84.46 59.26 83.54 60.18C82.62 61.1 81.35 61.67 79.95 61.67H7.2C5.8 61.67 4.53 61.1 3.61 60.18C2.69 59.26 2.12 57.98 2.12 56.59V7.25C2.12 5.85 2.69 4.57997 3.61 3.65997C4.53 2.73997 5.81 2.15997 7.2 2.15997H79.95C81.35 2.15997 82.62 2.72996 83.54 3.64996C84.46 4.57996 85.03 5.85 85.03 7.25V56.59Z" fill="#A87FF5"/>
<path d="M40.5898 24.8799L40.6898 37.2299L42.6398 36.6399L50.7798 31.3899L40.5898 24.8799Z" fill="#52B2F6"/>
<path d="M54.8864 20.8998C52.0864 18.0998 48.3564 16.5598 44.3964 16.5598C40.4364 16.5598 36.7064 18.0998 33.9064 20.8998C31.1064 23.6998 29.5664 27.4298 29.5664 31.3898C29.5664 35.3498 31.1064 39.0798 33.9064 41.8798C36.7064 44.6798 40.4364 46.2198 44.3964 46.2198C48.3564 46.2198 52.0864 44.6798 54.8864 41.8798C57.6864 39.0798 59.2264 35.3498 59.2264 31.3898C59.2264 27.4298 57.6864 23.6998 54.8864 20.8998ZM44.3964 43.9698C41.0364 43.9698 37.8764 42.6598 35.4964 40.2798C33.1164 37.8998 31.8064 34.7398 31.8064 31.3798C31.8064 28.0198 33.1164 24.8598 35.4964 22.4798C37.8764 20.0998 41.0364 18.7898 44.3964 18.7898C47.7564 18.7898 50.9164 20.0998 53.2964 22.4798C55.6764 24.8598 56.9764 28.0198 56.9764 31.3798C56.9764 34.7398 55.6664 37.8998 53.2964 40.2798C50.9164 42.6598 47.7564 43.9698 44.3964 43.9698Z" fill="white"/>
<path d="M51.4 29.5699L42.4 24.37C41.74 23.99 40.95 23.99 40.3 24.37C39.64 24.75 39.25 25.43 39.25 26.19V36.5799C39.25 37.3399 39.64 38.0199 40.3 38.3999C40.62 38.5899 40.99 38.68 41.35 38.68C41.71 38.68 42.08 38.5799 42.4 38.3999L51.4 33.1999C52.06 32.8199 52.45 32.1399 52.45 31.3799C52.45 30.6199 52.06 29.94 51.4 29.56V29.5699ZM50.05 31.3899L41.49 36.3299V26.4499L50.05 31.3899Z" fill="white"/>
</svg>
