<svg width="75" height="75" viewBox="0 0 75 75" fill="none" xmlns="http://www.w3.org/2000/svg">
<path d="M40.6311 28.0345L56.9511 13.8045L56.5411 6.63452L66.3211 1.6145L72.1711 7.95453L67.5111 17.5745L61.9711 17.6745L44.9011 34.1345L39.8711 29.8645L40.6311 28.0345Z" fill="white"/>
<path d="M47.3461 37.8742L37.3477 27.8757L33.5576 31.6658L43.556 41.6643L47.3461 37.8742Z" fill="#52B2F6"/>
<path d="M72.1713 52.3145L70.7112 49.3945L67.3013 46.9545L64.3813 45.0045L60.4813 44.0345H58.0413L52.5312 44.8145L35.2613 27.0445C35.2613 27.0445 32.2113 24.0545 30.7513 22.5945C29.2913 21.1345 30.2613 21.1345 30.2613 21.1345C30.2613 21.1345 30.7512 20.1645 30.5912 19.5245C30.4312 18.8845 30.7513 18.2145 30.7413 16.6245C30.7313 15.0345 29.7713 14.3145 29.6713 13.2745C29.5713 12.2345 29.2812 10.4145 29.2812 8.95453C29.2812 7.49453 28.3113 7.00452 28.3113 7.00452L24.4113 4.08453C24.4113 4.08453 23.4413 3.5945 22.9513 3.1145C22.4613 2.6345 22.4613 2.62451 21.9813 2.62451C21.5013 2.62451 20.5213 2.13452 19.5413 2.13452C18.5613 2.13452 17.1013 1.16455 16.6213 1.16455C16.1413 1.16455 15.1613 1.65454 15.1613 1.65454L15.0813 3.06451L14.1913 4.08453C14.1913 4.08453 14.6813 6.03454 15.1613 6.52454C15.6413 7.01454 20.0312 12.3745 20.0312 12.3745L14.6713 18.7145L11.7513 20.1745L4.44128 13.8345L1.52124 15.2945L1.03125 16.7545C1.03125 16.7545 1.52124 18.2145 1.52124 19.1945C1.52124 20.1745 2.49127 23.0945 2.49127 23.0945L6.52124 28.6046C7.12124 28.8746 7.68129 29.2045 8.20129 29.5945C10.6913 29.9745 16.7313 30.8845 17.1113 30.8845C17.6013 30.8845 22.0613 30.1945 22.0613 30.1945L26.6913 34.8945L1.82129 59.3945C1.99129 60.0545 2.1113 60.7345 2.1413 61.4345C2.2013 62.8445 1.85125 64.1945 1.22125 65.3945C1.63125 66.0845 1.96129 66.8345 2.20129 67.6145L6.79126 72.7345C7.40126 72.5945 8.03125 72.5145 8.66125 72.5145C9.97125 72.5145 11.1912 72.8045 12.2812 73.3145C13.1812 73.0045 14.1113 72.8245 15.0613 72.8245C15.0813 72.8245 15.0913 72.8245 15.1113 72.8245L39.6613 48.0345L41.4913 49.8945L42.9513 51.3546H43.9213L44.4113 53.3045L45.2313 55.4845L44.7712 57.1646L44.4713 58.2345L43.9213 59.6445V60.6145L44.8913 64.0245C44.8913 64.0245 46.1413 66.8445 46.7313 68.7945C48.4113 69.4145 49.8212 70.5445 50.8412 71.9845C51.7912 72.3045 53.7113 72.9245 55.1313 73.2845C57.0813 73.7745 59.0312 73.2845 59.0312 73.2845L59.5713 71.8045L60.5013 69.8745L58.6512 66.7645L54.6512 63.0545L56.0513 61.6945L56.6713 58.9945C56.6713 58.9945 60.0113 56.7145 60.5013 55.7445C60.9913 54.7745 62.2812 55.8745 62.2812 55.8745L62.9913 56.1646L66.4213 58.9945C66.4213 58.9945 68.7812 60.1345 69.2712 60.6145C69.7612 61.0945 71.2213 60.6145 71.2213 60.6145L73.1713 59.6445L73.6613 56.7245L72.2013 52.3345L72.1713 52.3145Z" fill="#A87FF5"/>
<path d="M58.43 74.7343C54.16 74.7343 50.01 73.0243 46.98 69.9943C42.66 65.6743 41.16 59.2844 43.04 53.5244L39.5 49.3843L41.45 46.9443L45.83 52.9044L45.55 53.6343C43.62 58.7043 44.85 64.4544 48.68 68.2844C51.37 70.9744 55.09 72.4443 58.9 72.3043C59 72.3043 59.28 72.2944 59.53 71.7744C59.87 71.0644 59.7 70.1743 59.1 69.5743L54.3 64.7744C52.97 63.4444 52.97 61.2743 54.3 59.9443L59.82 54.4243C60.46 53.7843 61.32 53.4243 62.23 53.4243C63.14 53.4243 64 53.7843 64.64 54.4243L69.44 59.2244C70.04 59.8244 70.92 60.0044 71.64 59.6644C72.15 59.4244 72.16 59.1643 72.16 59.0643C72.32 54.8343 70.57 50.8243 67.34 48.0543C63.49 44.7543 58.18 43.8344 53.48 45.6544L52.75 45.9343L46.31 39.1243L47.28 36.6843L53.35 43.1343C58.69 41.3643 64.58 42.5144 68.9 46.2244C72.69 49.4744 74.76 54.1844 74.56 59.1544C74.52 60.3144 73.82 61.2944 72.65 61.8444C71.02 62.6144 69.04 62.2443 67.72 60.9243L62.92 56.1243C62.73 55.9343 62.48 55.8344 62.21 55.8344C61.94 55.8344 61.69 55.9343 61.5 56.1243L55.98 61.6443C55.59 62.0343 55.59 62.6743 55.98 63.0643L60.78 67.8643C62.1 69.1843 62.47 71.1743 61.68 72.8143C61.12 73.9743 60.13 74.6643 58.96 74.7043C58.77 74.7043 58.58 74.7043 58.4 74.7043L58.43 74.7343Z" fill="#52B2F6"/>
<path d="M24.399 35.2543L21.209 31.6443C15.439 33.5243 9.05903 32.0243 4.73903 27.7043C1.57903 24.5443 -0.140948 20.1643 0.00905209 15.6943C0.0490521 14.5243 0.739006 13.5344 1.89901 12.9744C3.52901 12.1844 5.51902 12.5543 6.84902 13.8743L11.649 18.6743C11.839 18.8643 12.089 18.9643 12.359 18.9643C12.629 18.9643 12.8791 18.8643 13.069 18.6743L18.589 13.1543C18.779 12.9643 18.879 12.7143 18.879 12.4443C18.879 12.1743 18.779 11.9243 18.589 11.7343L13.789 6.93431C12.469 5.61431 12.099 3.63432 12.869 2.00432C13.419 0.834321 14.399 0.144348 15.559 0.0943483C20.519 -0.0956517 25.239 1.96432 28.489 5.75432C32.189 10.0743 33.3391 15.9643 31.5791 21.3043L36.589 26.4744L34.6391 27.9343L28.779 21.9144L29.059 21.1843C30.879 16.4843 29.959 11.1743 26.659 7.32433C23.889 4.09433 19.879 2.34432 15.649 2.50432C15.549 2.50432 15.289 2.51434 15.049 3.02434C14.709 3.73434 14.889 4.62435 15.489 5.22435L20.289 10.0243C20.929 10.6643 21.289 11.5243 21.289 12.4343C21.289 13.3443 20.929 14.2043 20.289 14.8443L14.769 20.3643C14.129 21.0043 13.269 21.3643 12.359 21.3643C11.449 21.3643 10.5891 21.0143 9.94905 20.3643L5.14901 15.5643C4.54901 14.9643 3.66905 14.7843 2.94905 15.1343C2.42905 15.3843 2.41903 15.6643 2.41903 15.7643C2.28903 19.5743 3.74904 23.2943 6.43904 25.9843C10.269 29.8143 16.029 31.0443 21.089 29.1143L21.819 28.8343L25.859 33.7743L24.399 35.2343V35.2543Z" fill="#52B2F6"/>
<path d="M45.3894 35.0944L43.6794 33.3944L59.5094 17.4644C59.6694 17.3044 59.8694 17.1944 60.0994 17.1344L65.7594 15.8444L71.2194 7.30437L66.6794 2.76439L58.2894 8.36437L56.9694 13.7944C56.9194 14.0044 56.8094 14.2044 56.6494 14.3544L40.8194 30.2844L39.1094 28.5844L54.6994 12.8944L56.0494 7.3344C56.1194 7.0444 56.2994 6.78437 56.5494 6.61437L66.1594 0.204393C66.6394 -0.115607 67.2694 -0.0555828 67.6794 0.354417L73.5994 6.2744C73.9994 6.6744 74.0694 7.2944 73.7594 7.7744L67.5193 17.5444C67.3493 17.8144 67.0793 18.0044 66.7693 18.0744L60.9694 19.3944L45.3894 35.0744V35.0944Z" fill="#52B2F6"/>
<path d="M42.9891 43.2045L31.0391 31.2545L35.2591 27.0445C35.6991 26.6045 36.2891 26.3645 36.9091 26.3645C37.5291 26.3645 38.1191 26.6045 38.5591 27.0445L47.209 35.6945C47.649 36.1345 47.8891 36.7245 47.8891 37.3445C47.8891 37.9645 47.649 38.5545 47.209 38.9945L42.9991 43.2045H42.9891ZM34.4491 31.2545L42.9891 39.7945L45.4491 37.3345L36.9091 28.7945L34.4491 31.2545Z" fill="#52B2F6"/>
<path d="M11.0022 74.1644C8.2622 74.1644 5.52219 73.1244 3.43219 71.0344C-0.737813 66.8644 -0.737813 60.0744 3.43219 55.8944L29.5722 29.6744C30.0122 29.2344 30.6022 28.9844 31.2222 28.9844C31.8422 28.9844 32.4322 29.2244 32.8722 29.6644L44.7022 41.4944C45.1422 41.9344 45.3822 42.5244 45.3822 43.1444C45.3822 43.7644 45.1422 44.3544 44.7022 44.7944L18.5622 71.0144C16.4722 73.1044 13.7322 74.1444 10.9922 74.1444L11.0022 74.1644ZM5.14221 69.3344C8.37221 72.5644 13.6322 72.5644 16.8722 69.3344L42.9622 43.1644L31.2322 31.4344L5.14221 57.5944C1.91221 60.8244 1.91221 66.0944 5.14221 69.3244V69.3344Z" fill="#52B2F6"/>
<path d="M32.3703 40.1805L11.0352 61.5828L12.7419 63.2842L34.0771 41.8819L32.3703 40.1805Z" fill="#52B2F6"/>
</svg>
