<svg width="60" height="64" viewBox="0 0 60 64" fill="none" xmlns="http://www.w3.org/2000/svg">
<path d="M52.4433 63.4605L41.0733 52.1405L40.9133 52.1705V52.0505L16.7233 28.1305L22.6933 22.3805L19.1833 2.25049L2.55326 22.8705C-0.266737 25.7205 -0.816714 30.3805 1.23329 33.8005L11.6233 51.0405C13.2033 53.6905 16.0933 55.2905 19.1933 55.2605L24.3333 55.2105L52.4433 63.4505V63.4605Z" fill="#52B1F5"/>
<path d="M58.6724 22.4404L56.3723 18.2104L55.1724 16.0404L54.7024 15.1904L54.6523 15.2404L48.4023 4.3904C46.8323 1.6504 43.9124 -0.0296048 40.7324 0.000395177L35.2423 0.160395L18.8723 0.200395C15.7823 0.230395 12.9324 1.86039 11.3624 4.5304L1.40234 24.2904L19.2123 2.1404L42.5724 27.8204L38.3924 32.0604L40.8824 52.1604L40.9124 52.1204V52.1804H40.8824L40.9323 52.2304L42.8723 54.1304L52.2924 63.3404C52.6824 63.7204 53.3224 63.2604 53.0724 62.7904L47.2523 51.3304L57.3924 32.5604L57.7024 32.1904C57.8224 32.0404 57.9423 31.9004 58.0523 31.7404C60.0223 29.0304 60.2723 25.4004 58.6523 22.4404H58.6724Z" fill="#A77FF3"/>
<path d="M42.632 27.7504L19.212 2.19043L22.542 22.2004L16.582 27.9804L40.852 52.1004L38.672 32.0804L42.642 27.7504H42.632Z" fill="white"/>
</svg>
