<svg xmlns="http://www.w3.org/2000/svg" width="500" height="506" viewBox="0 0 500 506">
  <path fill="white" d="M370.826 224.859 156.157 16.117l23.021 158.743-50.004 49.999 213.863 198.793-12.209-158.792 39.998-40.001Z"/>
  <path fill="#18b6f6" d="m250 449.707 181.102 55.804-88.065-81.859-213.863-198.793 50.004-49.999-23.021-158.743L8.348 193.702a62.314 62.314 0 0 0 0 62.314l93.843 162.535a62.314 62.314 0 0 0 53.965 31.156H250Z"/>
  <path fill="#ac7ef4" d="M343.843 0H156.157a62.312 62.312 0 0 0-53.965 31.157L8.348 193.702 156.157 16.117l214.669 208.742-39.998 40.001 12.209 158.792 88.065 81.859c5.078 1.564 9.533-3.756 7.102-8.48l-40.395-78.48 93.842-162.535a62.313 62.313 0 0 0 .001-62.314L397.808 31.157A62.312 62.312 0 0 0 343.843 0Z"/>
</svg>