<svg viewBox="0 0 120 126" fill="none" xmlns="http://www.w3.org/2000/svg"><path d="m78.457 103.898 10.263-6.147 20.107-35.456-31.115 36.34.745 5.263Z" fill="url(#a)"/><path d="m105.901 40.086-2.009-3.834-.788-1.494-.082.08-10.53-19.176c-2.642-4.844-7.68-7.87-13.236-7.934l-10.227.084L83.8 54.114l-9.772 9.516 3.64 35.177 30.088-34.27c4.081-4.726 4.882-11.457 2.007-16.986l-3.861-7.465Z" fill="url(#b)"/><path d="M89.087 36.761 71.475 7.84 41.08 7.291c-5.403-.062-10.434 2.68-13.269 7.288L9.72 48.734l31.886-38.036 39.928 45.744 7.464-7.597c3.425-3.321 2.26-7.977.09-12.083Z" fill="url(#c)"/><path d="m46.942 46.144-5.409-35.267-29.835 35.905C6.67 51.65 5.622 59.288 9.08 65.336l17.53 30.479c2.673 4.676 7.65 7.577 13.062 7.639l17.516.2-20.983-47.58 10.737-9.93Z" fill="url(#d)"/><path d="m77.713 98.612-41.54-42.776-5.382 5.135c-4.41 4.18-4.53 11.148-.297 15.467l17.942 27.076 28.816.37.46-5.272Z" fill="url(#e)"/><path d="m48.492 103.508 29.486-4.731 19.457 20.175-48.943-15.444Z" fill="url(#f)"/><path d="m77.666 98.85 11.081-1.41 9.828 20.359c.432.84-.701 1.622-1.376.939L77.666 98.85Z" fill="url(#g)"/><path d="m81.58 56.258-39.982-45.46 5.099 35.06-10.614 9.879 41.51 42.978-3.098-35.038 7.085-7.42Z" fill="#fff"/><defs><linearGradient id="a" x1="77.887" y1="82.907" x2="108.576" y2="83.258" gradientUnits="userSpaceOnUse"><stop stop-color="#4340C4"/><stop offset=".118" stop-color="#4642C8"/><stop offset="1" stop-color="#594EE4"/></linearGradient><linearGradient id="b" x1="68.506" y1="53.126" x2="111.514" y2="53.618" gradientUnits="userSpaceOnUse"><stop stop-color="#4340C4"/><stop offset=".74" stop-color="#534ADB"/><stop offset="1" stop-color="#594EE4"/></linearGradient><linearGradient id="c" x1="9.915" y1="31.234" x2="91.26" y2="32.165" gradientUnits="userSpaceOnUse"><stop offset=".225" stop-color="#4340C4"/><stop offset=".598" stop-color="#4F48D5"/><stop offset="1" stop-color="#594EE4"/></linearGradient><linearGradient id="d" x1="7.054" y1="56.764" x2="57.7" y2="57.344" gradientUnits="userSpaceOnUse"><stop stop-color="#0080FF"/><stop offset="1" stop-color="#00B9FF"/></linearGradient><linearGradient id="e" x1="27.277" y1="79.526" x2="77.92" y2="80.106" gradientUnits="userSpaceOnUse"><stop offset="0" stop-color="#0080FF"/><stop offset=".172" stop-color="#008BFF"/><stop offset=".473" stop-color="#00A7FF"/><stop offset=".629" stop-color="#00B9FF"/></linearGradient><linearGradient id="f" x1="48.431" y1="108.422" x2="97.545" y2="108.984" gradientUnits="userSpaceOnUse"><stop stop-color="#00B9FF"/><stop offset=".298" stop-color="#0080FF"/><stop offset=".601" stop-color="#2D67F1"/><stop offset=".858" stop-color="#4D55E8"/><stop offset="1" stop-color="#594EE4"/></linearGradient><linearGradient id="g" x1="78.113" y1="108.259" x2="99.089" y2="108.499" gradientUnits="userSpaceOnUse"><stop stop-color="#4340C4"/><stop offset=".118" stop-color="#4642C8"/><stop offset="1" stop-color="#594EE4"/></linearGradient></defs></svg>