<svg xmlns="http://www.w3.org/2000/svg" fill="none" viewBox="0 0 106 49"><path fill="#fff" d="m30.1 29.65 4.89 10.87a1.52 1.52 0 0 1-.31 1.71 1.59 1.59 0 0 1-1.71.37L17.8 37.71l12.3-8.06Z"/><path fill="#fff" d="m16.66 37.74 10.79-.1a6.08 6.08 0 0 0 5.24-3.1l5.3-9.4a6.08 6.08 0 0 0-.07-6.07l-5.48-9.29a6.09 6.09 0 0 0-5.3-2.99l-10.78.12a6.07 6.07 0 0 0-5.24 3.1l-5.3 9.38a6.09 6.09 0 0 0 .06 6.09l5.49 9.28a6.08 6.08 0 0 0 5.3 2.98Zm39.32-24.89a8.65 8.65 0 0 1 6.2 2.53 8.5 8.5 0 0 1 2.48 6.08 8.49 8.49 0 0 1-6.15 8.27c1.13.43 2.27.8 3.43 1.1 1.14.3 2.12.46 2.93.46v2.22c-.91 0-1.89-.16-2.95-.46-1.06-.3-2.1-.71-3.12-1.24a20.78 20.78 0 0 1-2.82-1.72 8.65 8.65 0 0 1-6.21-2.53 8.5 8.5 0 0 1-2.48-6.08 8.68 8.68 0 0 1 5.23-7.94 8.47 8.47 0 0 1 3.46-.7Zm0 2.16c-1.23 0-2.33.27-3.3.84a6.1 6.1 0 0 0-2.3 2.3 6.5 6.5 0 0 0-.83 3.31 6.3 6.3 0 0 0 6.43 6.46 6.2 6.2 0 0 0 5.59-3.15 6.4 6.4 0 0 0 .83-3.3 6.5 6.5 0 0 0-.84-3.32 6.1 6.1 0 0 0-2.28-2.3 6.41 6.41 0 0 0-3.3-.84Zm28.3 2.39-4.31 12.32h-1.25l-3.38-8.7-3.37 8.7h-1.25L66.4 17.4h2.4l2.75 8.65 3.22-8.65h1.13l3.22 8.65 2.74-8.65h2.4Zm5.68 0v12.32h-2.02V19.3H86v-1.9h3.96Zm-1.25-5.91c.48 0 .88.16 1.2.5a1.64 1.64 0 0 1 0 2.33c-.32.34-.72.52-1.2.52s-.88-.18-1.2-.52a1.67 1.67 0 0 1-.48-1.16 1.68 1.68 0 0 1 1.68-1.67Zm16.49 5.91-5.7 5.37 6.02 6.95h-2.56l-4.87-5.61-1.75 1.62v4h-2.02V11.97h2.02V23.4l6.14-6.02h2.73v.01Z"/><path fill="url(#a)" d="m27.48 36.45 2.97-1.78 5.82-10.26-9 10.52.2 1.52Z"/><path fill="url(#b)" d="m35.43 17.97-.58-1.1-.23-.44-.03.02-3.05-5.55a4.41 4.41 0 0 0-3.83-2.3l-2.96.03 4.28 13.4-2.83 2.76 1.05 10.19 8.71-9.93a4.41 4.41 0 0 0 .59-4.92l-1.12-2.16Z"/><path fill="url(#c)" d="m30.56 17.01-5.1-8.37-8.8-.16a4.44 4.44 0 0 0-3.85 2.1l-5.24 9.9 9.24-11.02 11.56 13.25 2.16-2.2c1-.96.66-2.31.03-3.5Z"/><path fill="url(#d)" d="M18.35 19.73 16.78 9.5 8.14 19.9a4.42 4.42 0 0 0-.76 5.38l5.08 8.82a4.41 4.41 0 0 0 3.78 2.21l5.07.06-6.07-13.78 3.1-2.87Z"/><path fill="url(#e)" d="M27.26 34.92 15.23 22.53l-1.56 1.5a3.14 3.14 0 0 0-.08 4.47l5.2 7.84 8.34.1.13-1.52Z"/><path fill="url(#f)" d="m18.8 36.34 8.53-1.37 5.64 5.84-14.17-4.47Z"/><path fill="url(#g)" d="m27.24 35 3.21-.42 2.85 5.9c.13.24-.2.47-.4.27l-5.66-5.76Z"/><path fill="#fff" d="M28.38 22.66 16.8 9.49l1.48 10.15-3.07 2.87 12.02 12.44-.9-10.15 2.05-2.14Z"/><defs><linearGradient id="a" x1="27.31" x2="36.2" y1="30.37" y2="30.48" gradientUnits="userSpaceOnUse"><stop stop-color="#4340C4"/><stop offset=".12" stop-color="#4642C8"/><stop offset="1" stop-color="#594EE4"/></linearGradient><linearGradient id="b" x1="24.6" x2="37.05" y1="21.75" y2="21.89" gradientUnits="userSpaceOnUse"><stop stop-color="#4340C4"/><stop offset=".74" stop-color="#534ADB"/><stop offset="1" stop-color="#594EE4"/></linearGradient><linearGradient id="c" x1="7.63" x2="31.19" y1="15.41" y2="15.68" gradientUnits="userSpaceOnUse"><stop offset=".23" stop-color="#4340C4"/><stop offset=".6" stop-color="#4F48D5"/><stop offset="1" stop-color="#594EE4"/></linearGradient><linearGradient id="d" x1="6.8" x2="21.46" y1="22.8" y2="22.97" gradientUnits="userSpaceOnUse"><stop stop-color="#0080FF"/><stop offset="1" stop-color="#00B9FF"/></linearGradient><linearGradient id="e" x1="12.66" x2="27.32" y1="29.39" y2="29.56" gradientUnits="userSpaceOnUse"><stop offset="0" stop-color="#0080FF"/><stop offset=".17" stop-color="#008BFF"/><stop offset=".47" stop-color="#00A7FF"/><stop offset=".63" stop-color="#00B9FF"/></linearGradient><linearGradient id="f" x1="18.78" x2="33" y1="37.76" y2="37.93" gradientUnits="userSpaceOnUse"><stop stop-color="#00B9FF"/><stop offset=".3" stop-color="#0080FF"/><stop offset=".6" stop-color="#2D67F1"/><stop offset=".86" stop-color="#4D55E8"/><stop offset="1" stop-color="#594EE4"/></linearGradient><linearGradient id="g" x1="27.37" x2="33.45" y1="37.72" y2="37.79" gradientUnits="userSpaceOnUse"><stop stop-color="#4340C4"/><stop offset=".12" stop-color="#4642C8"/><stop offset="1" stop-color="#594EE4"/></linearGradient></defs></svg>