<svg width="82" height="74" viewBox="0 0 82 74" fill="none" xmlns="http://www.w3.org/2000/svg">
<path d="M79.6397 29.4299H41.6797V58.4799H60.7097L71.4997 68.9399L70.5497 58.4799H79.6397V29.4299Z" fill="white"/>
<path d="M62.603 1.92993H1.79297V46.0899H20.613L20.603 46.2399L19.213 58.8699L33.503 46.0899H62.603V1.92993Z" fill="#A87FF5"/>
<path d="M32.3833 40.6701C41.3689 40.6701 48.6533 33.3858 48.6533 24.4001C48.6533 15.4145 41.3689 8.13013 32.3833 8.13013C23.3976 8.13013 16.1133 15.4145 16.1133 24.4001C16.1133 33.3858 23.3976 40.6701 32.3833 40.6701Z" fill="#52B2F6"/>
<path d="M15.592 24.0101C15.592 28.2901 17.102 32.3201 19.822 35.3601C22.882 38.7701 27.272 40.7001 32.512 40.9501C41.842 40.9501 49.442 33.3501 49.442 24.0101C49.442 19.4901 47.672 15.2401 44.462 12.0301C41.252 8.83006 36.982 7.06006 32.432 7.06006C20.852 7.62006 15.582 16.2401 15.582 24.0101H15.592ZM32.212 9.94005C35.872 9.85005 39.352 11.0501 41.912 13.3101C44.752 15.8101 46.392 19.5001 46.652 23.9901C46.652 31.8001 40.332 38.1501 32.562 38.1501C22.862 37.7601 18.442 30.5501 18.442 24.0001C18.492 15.0001 25.412 10.11 32.222 9.94005H32.212Z" fill="white"/>
<path d="M32.4914 33.33C35.5514 33.33 38.4414 31.91 40.4114 29.42C40.8914 28.83 40.5514 28.28 40.2714 28.05C39.9914 27.82 39.3914 27.58 38.9114 28.16C37.2514 30.21 34.9214 31.37 32.4914 31.37C30.0614 31.37 27.7014 30.19 26.0614 28.15C25.8414 27.89 25.6014 27.8 25.3714 27.8C25.1014 27.8 24.8614 27.93 24.7114 28.05C24.4314 28.28 24.0914 28.83 24.5614 29.41C26.5414 31.9 29.4314 33.33 32.4914 33.33Z" fill="white"/>
<path d="M81.94 33.9C81.94 30.01 78.78 26.85 74.89 26.85H64.98V7.04999C64.98 3.15999 61.82 0 57.93 0H7.04999C3.15999 0 0 3.15999 0 7.04999V40.97C0 44.86 3.15999 48.02 7.04999 48.02H19.48L16.99 60.48C16.85 61.08 17.13 61.67 17.71 61.98C18.29 62.29 18.93 62.2 19.34 61.76L33.07 48.03H39.57V53.7C39.57 57.59 42.73 60.75 46.62 60.75H61.54L72.43 73C72.75 73.39 73.15 73.47 73.42 73.47C73.65 73.47 73.89 73.41 74.1 73.3C74.6 73.05 75.02 72.48 74.84 71.78L72.39 60.75H74.89C78.78 60.75 81.94 57.59 81.94 53.7V33.91V33.9ZM32.49 45.22C32.12 45.22 31.77 45.37 31.5 45.63L20.63 56.5L22.55 46.89C22.64 46.49 22.53 46.07 22.26 45.74C21.99 45.41 21.61 45.22 21.22 45.22H7.04999C4.69999 45.22 2.79001 43.31 2.79001 40.96V7.03999C2.79001 4.68999 4.69999 2.78 7.04999 2.78H57.93C60.28 2.78 62.19 4.68999 62.19 7.03999V40.96C62.19 43.31 60.28 45.22 57.93 45.22H32.49ZM79.15 53.68C79.15 56.03 77.24 57.94 74.89 57.94H70.64C70.22 57.94 69.83 58.13 69.56 58.47C69.28 58.82 69.18 59.24 69.28 59.64L70.94 67.11L63.21 58.41C62.95 58.11 62.57 57.94 62.17 57.94H46.62C44.27 57.94 42.36 56.03 42.36 53.68V48.01H57.92C61.81 48.01 64.97 44.85 64.97 40.96V29.64H74.88C77.23 29.64 79.14 31.55 79.14 33.9V53.69L79.15 53.68Z" fill="#A87FF5"/>
<path d="M31.1214 20.4201C31.1214 18.7701 30.0914 17.1001 27.7814 17.0901C25.4814 17.1001 24.4514 18.7801 24.4414 20.4301C24.4414 22.0801 25.4714 23.7401 27.7814 23.7601C30.0814 23.7401 31.1214 22.0701 31.1214 20.4201Z" fill="white"/>
<path d="M37.2111 17.0801C34.9111 17.0901 33.8711 18.7701 33.8711 20.4201C33.8711 22.0701 34.9011 23.7301 37.2111 23.7501C39.5111 23.7401 40.5511 22.0601 40.5511 20.4101C40.5511 18.7601 39.5211 17.0901 37.2111 17.0801Z" fill="white"/>
</svg>
