<svg width="88" height="64" viewBox="0 0 88 64" fill="none" xmlns="http://www.w3.org/2000/svg">
<path d="M86.8655 11.5161H2.69922V61.3566H86.8655V11.5161Z" fill="white"/>
<path d="M49.272 1.99072C49.2454 2.05292 49.2009 2.11513 49.1565 2.17733C48.0014 3.59017 46.3042 3.65238 44.6248 3.30583C42.7676 3.76789 40.8661 3.76788 40.9283 1.99072L6.43359 3.10145V54.2215H82.496V3.10145L49.272 1.99072Z" fill="#52B2F6"/>
<path d="M86.5388 9.40148H83.4377V4.51429C83.4377 3.8834 83.0111 3.3147 82.3713 3.10144C69.8246 -0.994914 56.567 -1.03046 44.0025 2.97704C31.438 -1.03046 18.1803 -0.994914 5.6336 3.10144C4.99382 3.30581 4.5673 3.87451 4.5673 4.51429V9.40148H1.46616C0.675321 9.40148 0 10.0768 0 10.8676V59.9972C0 60.788 0.675321 61.4634 1.46616 61.4634H34.6457C35.6232 62.5919 37.6936 63.0628 38.9198 63.3383L39.0531 63.3649C40.8036 63.7648 42.4563 63.8003 43.9936 63.8003C45.5308 63.8003 47.1125 63.7737 48.7653 63.4094L48.9074 63.3738C50.187 63.0984 52.3462 62.6274 53.3503 61.4634H86.5299C87.3207 61.4634 87.9961 60.788 87.9961 59.9972V10.8676C87.9961 10.0768 87.3207 9.40148 86.5299 9.40148H86.5388ZM40.848 60.7525C37.9868 60.2816 36.9116 59.8106 36.8761 59.6062C36.7783 58.9576 36.0586 58.5133 35.4632 58.5044L2.85234 58.3978L3.0034 12.2005H4.63839L4.49621 56.0253C4.49621 56.4607 4.65616 56.8072 4.90496 57.0471C5.13599 57.3226 5.46477 57.5181 5.8824 57.5181C6.03346 57.5181 6.18452 57.4914 6.35335 57.4381C18.6602 53.4661 31.1181 53.4928 43.3982 57.5181C43.5671 57.5892 43.7537 57.6247 43.9314 57.6247C44.1091 57.6247 44.2779 57.5892 44.4468 57.527C56.7536 53.5817 69.2204 53.635 81.5005 57.6869C81.6605 57.7402 81.8204 57.7669 81.9715 57.7669C82.2825 57.7669 82.5668 57.6602 82.8068 57.447C82.8601 57.4026 82.9134 57.3493 82.9578 57.2871C83.2066 57.0471 83.3666 56.7095 83.3666 56.2741L83.5087 12.4582H85.1437L84.9927 58.6643L52.3729 58.5577C51.7775 58.5577 51.0489 59.002 50.9512 59.6507C50.9156 59.8551 49.8316 60.3171 46.9792 60.7703C46.1706 60.8947 45.3353 60.8858 44.5267 60.8769C44.1091 60.8769 43.7004 60.8769 43.2916 60.8769C42.483 60.8769 41.6477 60.8858 40.848 60.7525ZM80.5053 54.1681C74.7562 52.4798 68.8649 51.6446 62.9825 51.6446C57.1001 51.6446 51.2177 52.4887 45.4597 54.1681V5.58947C57.0913 2.01737 68.8649 2.01737 80.4964 5.58947V54.1681H80.5053ZM42.5363 54.1681C31.0381 50.8004 18.9978 50.8004 7.49961 54.1681V5.58947C19.1311 2.01737 30.9048 2.01737 42.5363 5.58947V54.1681Z" fill="#A87FF5"/>
<path d="M53.1289 18.6427C53.1289 19.3713 53.6176 20.1088 54.5506 20.1088H68.9901C69.9231 20.1088 70.4118 19.3713 70.4118 18.6427C70.4118 17.914 69.9231 17.1765 68.9901 17.1765H54.5506C53.6176 17.1765 53.1289 17.914 53.1289 18.6427Z" fill="white"/>
<path d="M68.9901 37.374H54.5506C53.6176 37.374 53.1289 38.1115 53.1289 38.8402C53.1289 39.5688 53.6176 40.3063 54.5506 40.3063H68.9901C69.9231 40.3063 70.4118 39.5688 70.4118 38.8402C70.4118 38.1115 69.9231 37.374 68.9901 37.374Z" fill="white"/>
<path d="M51.082 28.7369C51.082 29.4655 51.5707 30.2031 52.5038 30.2031H71.0218C71.9548 30.2031 72.4435 29.4655 72.4435 28.7369C72.4435 28.0083 71.9548 27.2708 71.0218 27.2708H52.5038C51.5707 27.2708 51.082 28.0083 51.082 28.7369Z" fill="white"/>
<path d="M17.5938 18.6427C17.5938 19.3713 18.0825 20.1088 19.0155 20.1088H33.4549C34.3879 20.1088 34.8766 19.3713 34.8766 18.6427C34.8766 17.914 34.3879 17.1765 33.4549 17.1765H19.0155C18.0825 17.1765 17.5938 17.914 17.5938 18.6427Z" fill="white"/>
<path d="M33.4549 37.374H19.0155C18.0825 37.374 17.5938 38.1115 17.5938 38.8402C17.5938 39.5688 18.0825 40.3063 19.0155 40.3063H33.4549C34.3879 40.3063 34.8766 39.5688 34.8766 38.8402C34.8766 38.1115 34.3879 37.374 33.4549 37.374Z" fill="white"/>
<path d="M15.5508 28.7369C15.5508 29.4655 16.0395 30.2031 16.9725 30.2031H35.4905C36.4235 30.2031 36.9122 29.4655 36.9122 28.7369C36.9122 28.0083 36.4235 27.2708 35.4905 27.2708H16.9725C16.0395 27.2708 15.5508 28.0083 15.5508 28.7369Z" fill="white"/>
</svg>
