<svg width="43" height="82" viewBox="0 0 43 82" fill="none" xmlns="http://www.w3.org/2000/svg">
<path d="M33.0422 37.1399L31.8022 37.2399L32.7322 27.3299L32.3722 27.3399L32.7022 24.1799L32.1722 20.0999L30.9222 15.8399L27.3722 7.67993L21.8222 0.179932L16.7222 4.83993L13.8822 10.3399L11.7522 15.3099L9.98219 22.0499L10.4922 28.0499L11.8822 28.1499L9.92219 28.2299L10.9322 38.9299L9.62219 39.0299L0.992188 55.3799L12.6222 56.7399L12.9522 60.0399H17.3222L17.9622 61.6499H24.7222L25.3622 60.0399H29.7322L30.4722 57.5899L31.6122 55.0599L41.9322 56.5399L33.0422 37.1399Z" fill="#52B2F6"/>
<path d="M31.7542 38.61L31.0742 55.9199L41.4342 55.75L32.9042 38.45L31.7542 38.61Z" fill="white"/>
<path d="M10.6231 38.5101L11.3031 55.8201L0.953125 55.6501L9.48312 38.3501L10.6231 38.5101Z" fill="white"/>
<path d="M29.3738 56.6299H13.0938V59.3399H29.3738V56.6299Z" fill="#A87FF5"/>
<path d="M24.2239 60.7H18.2539L20.1539 45.51H22.5939L24.2239 60.7Z" fill="#A87FF5"/>
<path d="M42.5941 55.46L33.0441 37.15L33.6041 30.12C33.6041 30.12 33.6041 30.11 33.6041 30.1C33.9341 24.24 33.1341 18.71 31.2341 13.66C29.2141 8.31 26.0541 3.77 21.8141 0.18C21.5341 -0.06 21.1341 -0.06 20.8541 0.18C16.6241 3.78 13.4541 8.31 11.4341 13.66C9.67409 18.33 8.86409 23.41 9.01409 28.78C9.02409 29.22 9.04409 29.65 9.07409 30.09C9.07409 30.09 9.07409 30.1 9.07409 30.11L9.63409 37.14L0.0840879 55.45C-0.0359121 55.68 -0.0259136 55.96 0.104086 56.18C0.234086 56.4 0.474088 56.54 0.734088 56.54H11.1741L11.2041 56.91C11.2341 57.3 11.5541 57.59 11.9441 57.59H12.1941V59.3C12.1941 59.71 12.5241 60.04 12.9341 60.04H17.2941L17.2041 60.83C17.1741 61.04 17.2441 61.25 17.3841 61.41C17.5241 61.57 17.7241 61.66 17.9341 61.66H24.6941C24.9041 61.66 25.1041 61.57 25.2441 61.41C25.3841 61.25 25.4541 61.04 25.4241 60.83L25.3341 60.04H29.6941C30.1041 60.04 30.4341 59.71 30.4341 59.3V57.59H30.6841C31.0741 57.59 31.3941 57.29 31.4241 56.91L31.4541 56.54H41.8941C42.1541 56.54 42.3941 56.4 42.5241 56.18C42.6541 55.96 42.6641 55.68 42.5441 55.45L42.5941 55.46ZM21.3441 1.72C28.5141 8.07 32.3241 17.34 32.1941 28.05H10.4941C10.3641 17.34 14.1741 8.07 21.3441 1.72ZM1.97409 55.06L9.86409 39.92L11.0741 55.06H1.97409ZM17.4941 58.56H13.6941V57.59H17.6141L17.4941 58.56ZM18.7941 60.18L20.5341 45.74H22.1541L23.8941 60.18H18.8041H18.7941ZM28.9841 58.56H25.1841L25.0641 57.59H28.9841V58.56ZM30.0341 56.11H24.8841L23.5341 44.9C23.4941 44.53 23.1741 44.25 22.7941 44.25H19.8541C19.4741 44.25 19.1641 44.53 19.1141 44.9L17.7641 56.11H12.6141L10.5241 30.01C10.5241 29.85 10.5141 29.7 10.5041 29.54H32.1141C32.1141 29.7 32.1041 29.85 32.0941 30.01L30.0041 56.11H30.0341ZM31.6041 55.06L32.8141 39.92L40.7041 55.06H31.6041Z" fill="#A87FF5"/>
<path d="M30.2644 66.19C29.5944 64.48 28.4544 62.99 27.0544 62C26.7244 61.76 26.2544 61.85 26.0244 62.18C25.7844 62.51 25.8644 62.98 26.2044 63.21C27.3744 64.03 28.3244 65.28 28.8844 66.72C29.1944 67.53 29.3744 68.48 29.4844 69.22C29.5044 69.35 29.5144 69.57 29.5144 69.79L28.3744 68.71C28.2044 68.55 27.9144 68.27 27.4844 68.19C27.1944 68.14 26.9044 68.26 26.7244 68.51C26.4044 68.94 26.3044 69.43 26.2244 69.83C26.2044 69.92 26.1844 70 26.1644 70.09C26.1344 70.22 26.1044 70.36 26.0844 70.51C25.9744 71.16 25.9244 71.81 25.8844 72.44C25.8444 73.08 25.7944 73.68 25.6944 74.27C25.4744 75.55 25.0844 76.58 24.5044 77.43C23.9844 78.2 23.3244 78.86 22.5844 79.36C22.8344 78.53 23.0044 77.67 22.9544 76.66C22.8144 74.03 22.2444 72.36 21.1844 71.55C20.9044 71.33 20.5044 71.35 20.2344 71.59L17.9144 73.7C17.4244 73.45 16.3544 72.73 15.5944 71.27C14.4244 69.02 14.5644 66.01 15.9744 62.56C16.1344 62.18 15.9444 61.75 15.5744 61.59C15.1944 61.43 14.7644 61.62 14.6044 61.99C11.9844 68.39 13.9844 71.99 15.4044 73.57C16.2844 74.55 17.6244 75.44 18.3144 75.24C18.4244 75.21 18.5244 75.15 18.6044 75.08L20.6844 73.2C21.0244 73.75 21.3744 74.78 21.4744 76.75C21.5344 77.87 21.2244 78.8 20.8644 79.87C20.7944 80.09 20.7144 80.31 20.6444 80.54C20.5644 80.79 20.6244 81.07 20.8044 81.26C20.9444 81.42 21.1444 81.5 21.3544 81.5C21.4044 81.5 21.4544 81.5 21.5044 81.48C21.9744 81.38 22.4744 81.17 23.0444 80.83C24.0944 80.2 25.0244 79.31 25.7344 78.27C26.4344 77.25 26.8944 76.03 27.1544 74.53C27.2744 73.86 27.3144 73.19 27.3644 72.54C27.4044 71.92 27.4444 71.33 27.5444 70.75C27.5644 70.64 27.5844 70.53 27.6144 70.42C27.6344 70.32 27.6544 70.22 27.6844 70.12C27.6844 70.12 27.6844 70.1 27.6844 70.09L29.0344 71.37C29.6044 71.91 30.1044 71.74 30.2944 71.64C31.2644 71.13 30.9544 69.07 30.9444 68.99C30.8144 68.18 30.6244 67.12 30.2644 66.18V66.19Z" fill="#A87FF5"/>
<path d="M21.3427 58.4699C21.5427 58.4699 21.7127 58.2999 21.7127 58.0999V48.2699C21.7127 48.0699 21.5427 47.8999 21.3427 47.8999C21.1427 47.8999 20.9727 48.0699 20.9727 48.2699V58.0999C20.9727 58.2999 21.1427 58.4699 21.3427 58.4699Z" fill="white"/>
<path d="M21.3717 24.5999C24.7462 24.5999 27.4817 21.9898 27.4817 18.7699C27.4817 15.5501 24.7462 12.9399 21.3717 12.9399C17.9973 12.9399 15.2617 15.5501 15.2617 18.7699C15.2617 21.9898 17.9973 24.5999 21.3717 24.5999Z" fill="#A87FF5"/>
<path d="M21.3441 24.66C24.8941 24.66 27.7741 21.77 27.7741 18.23C27.7741 14.69 24.8841 11.8 21.3441 11.8C17.8041 11.8 14.9141 14.69 14.9141 18.23C14.9141 21.77 17.8041 24.66 21.3441 24.66ZM21.3441 13.27C24.0741 13.27 26.2941 15.49 26.2941 18.22C26.2941 20.95 24.0741 23.17 21.3441 23.17C18.6141 23.17 16.3941 20.95 16.3941 18.22C16.3941 15.49 18.6141 13.27 21.3441 13.27Z" fill="white"/>
<path d="M21.3439 14.6699V14.6499C21.3439 14.4399 21.1639 14.2599 20.9539 14.2899C19.0839 14.4799 17.5939 15.9699 17.4039 17.8399C17.3839 18.0499 17.5539 18.2299 17.7639 18.2299H17.7839C17.9739 18.2299 18.1239 18.0899 18.1439 17.8999C18.2939 16.3899 19.5039 15.1799 21.0239 15.0199C21.2139 14.9999 21.3539 14.8499 21.3539 14.6699H21.3439Z" fill="white"/>
</svg>
