<svg width="73" height="73" viewBox="0 0 73 73" fill="none" xmlns="http://www.w3.org/2000/svg">
<path d="M52.0903 70.62H29.0703L29.3903 10.17L40.2603 1.53003L51.1303 10.17L52.0903 70.62Z" fill="white"/>
<path d="M34.4975 70.6199H4.4375V17.8499L19.1475 11.1299L34.4975 17.8499V70.6199Z" fill="#A87FF5"/>
<path d="M67.1309 71.9H44.7109V34.73L56.5709 28.72L67.1309 34.73V71.9Z" fill="#A87FF5"/>
<path d="M71.6 70.65H68.47V34.76C68.47 34.4 68.27 34.08 67.96 33.91L56.58 27.92C56.58 27.92 56.52 27.9 56.5 27.89C56.46 27.87 56.42 27.85 56.38 27.84C56.35 27.84 56.31 27.83 56.28 27.82C56.23 27.82 56.19 27.81 56.14 27.81C56.11 27.81 56.07 27.81 56.04 27.82C55.99 27.82 55.95 27.82 55.9 27.84C55.86 27.84 55.83 27.87 55.79 27.88C55.76 27.89 55.72 27.9 55.69 27.92L51.96 29.89V9.92C51.96 9.64 51.84 9.37 51.62 9.19L40.94 0.209991H40.93C40.93 0.209991 40.91 0.189993 40.91 0.179993C40.88 0.159993 40.86 0.139995 40.83 0.119995C40.82 0.119995 40.8 0.0999963 40.78 0.0899963C40.76 0.0799963 40.74 0.0699976 40.72 0.0599976C40.72 0.0599976 40.72 0.0599976 40.71 0.0599976C40.69 0.0599976 40.67 0.0399933 40.65 0.0399933C40.63 0.0399933 40.61 0.019989 40.59 0.019989C40.56 0.019989 40.53 0.01 40.51 0C40.49 0 40.48 0 40.46 0C40.43 0 40.41 0 40.38 0C40.36 0 40.34 0 40.32 0C40.3 0 40.28 0 40.26 0C40.23 0 40.21 0 40.18 0C40.16 0 40.15 0 40.13 0C40.1 0 40.07 0.00998901 40.05 0.019989C40.03 0.019989 40.01 0.0299933 39.99 0.0399933C39.97 0.0399933 39.95 0.0499976 39.93 0.0599976C39.93 0.0599976 39.93 0.0599976 39.92 0.0599976C39.9 0.0699976 39.88 0.0799908 39.85 0.0999908C39.84 0.0999908 39.82 0.109995 39.81 0.119995C39.78 0.139995 39.75 0.159993 39.73 0.179993C39.73 0.179993 39.71 0.189997 39.71 0.199997H39.7C39.7 0.199997 39.7 0.210001 39.7 0.220001L29.02 9.2C28.8 9.38 28.68 9.64999 28.68 9.92999V14.58L20.16 10.09C20.16 10.09 20.1 10.07 20.07 10.06C20.03 10.04 19.99 10.02 19.95 10.01C19.91 10.01 19.88 9.99999 19.84 9.98999C19.8 9.98999 19.75 9.98 19.71 9.98C19.67 9.98 19.63 9.97999 19.6 9.98999C19.56 9.98999 19.52 9.98999 19.48 10.01C19.44 10.02 19.4 10.04 19.36 10.05C19.33 10.06 19.3 10.07 19.27 10.08L4.60004 17.8C4.28004 17.97 4.09003 18.29 4.09003 18.65V53.03V70.64H0.960022C0.430022 70.64 0 71.07 0 71.6C0 72.13 0.430022 72.56 0.960022 72.56H5.04004C5.04004 72.56 5.03999 72.56 5.04999 72.56H51.04C51.04 72.56 51.04 72.56 51.05 72.56H71.65C72.18 72.56 72.61 72.13 72.61 71.6C72.61 71.07 72.18 70.64 71.65 70.64L71.6 70.65ZM50.99 70.65H45.71V67.64L55.17 66.32V70.64H50.99V70.65ZM33.38 19.23V24.05L20.63 17.34V12.52L33.38 19.23ZM33.38 44.78L20.63 40.82V35.11L33.38 39.83V44.79V44.78ZM20.63 42.83L33.38 46.79V51.81L20.63 48.95V42.82V42.83ZM33.38 37.78L20.63 33.06V26.81L33.38 32.83V37.77V37.78ZM20.63 50.93L33.38 53.79V58.85L20.63 57.08V50.94V50.93ZM33.38 30.72L20.63 24.7V19.51L33.38 26.22V30.71V30.72ZM18.71 33.07L5.96002 37.79V32.85L18.71 26.83V33.08V33.07ZM5.96002 39.83L18.71 35.11V40.82L5.96002 44.78V39.82V39.83ZM5.96002 46.8L18.71 42.84V48.97L5.96002 51.83V46.81V46.8ZM5.96002 53.79L18.71 50.93V57.07L5.96002 58.84V53.78V53.79ZM20.63 59.01L33.38 60.78V65.79L20.63 65.26V59.01ZM18.71 24.7L5.96002 30.72V26.23L18.71 19.52V24.71V24.7ZM5.96002 60.79L18.71 59.02V65.27L5.96002 65.8V60.79ZM20.63 70.66V67.19L33.38 67.72V70.65H20.63V70.66ZM66.55 54.76L57.09 51.82V41.45L66.55 45.92V54.76ZM45.71 56.77L55.17 53.83V64.4L45.71 65.72V56.78V56.77ZM55.17 51.82L45.71 54.76V45.92L55.17 41.45V51.82ZM57.09 53.83L66.55 56.77V65.71L57.09 64.39V53.82V53.83ZM66.55 43.8L57.09 39.33V30.37L66.55 35.35V43.79V43.8ZM55.17 39.33L45.71 43.8V35.36L55.17 30.38V39.34V39.33ZM50.03 30.91L44.3 33.93C43.98 34.1 43.79 34.42 43.79 34.78V70.67H41.25V3L50.03 10.38V30.91ZM30.55 15.59V10.38L39.33 3V70.67H35.29V53.06V18.68C35.29 18.32 35.09 18 34.78 17.83L30.55 15.6V15.59ZM18.71 12.53V17.35L5.96002 24.06V19.24L18.71 12.53ZM5.96002 67.73L18.71 67.19V70.66H5.96002V67.73ZM57.08 70.66V66.34L66.54 67.66V70.67H57.08V70.66Z" fill="#52B2F6"/>
</svg>
