<svg viewBox="0 0 96 96" xmlns="http://www.w3.org/2000/svg" xmlns:xlink="http://www.w3.org/1999/xlink"><linearGradient id="a" gradientTransform="matrix(1 0 0 -1 1075 158)" gradientUnits="userSpaceOnUse" x1="-1032.172" x2="-1059.213" y1="145.312" y2="65.426"><stop offset="0" stop-color="#114a8b"/><stop offset="1" stop-color="#0669bc"/></linearGradient><linearGradient id="b" gradientTransform="matrix(1 0 0 -1 1075 158)" gradientUnits="userSpaceOnUse" x1="-1023.725" x2="-1029.98" y1="108.083" y2="105.968"><stop offset="0" stop-opacity=".3"/><stop offset=".071" stop-opacity=".2"/><stop offset=".321" stop-opacity=".1"/><stop offset=".623" stop-opacity=".05"/><stop offset="1" stop-opacity="0"/></linearGradient><linearGradient id="c" gradientTransform="matrix(1 0 0 -1 1075 158)" gradientUnits="userSpaceOnUse" x1="-1027.165" x2="-997.482" y1="147.642" y2="68.561"><stop offset="0" stop-color="#3ccbf4"/><stop offset="1" stop-color="#2892df"/></linearGradient><path d="m33.338 6.544h26.038l-27.03 80.087a4.152 4.152 0 0 1 -3.933 2.824h-20.264a4.145 4.145 0 0 1 -3.928-5.47l25.183-74.617a4.152 4.152 0 0 1 3.934-2.825z" fill="url(#a)"/><path d="m71.175 60.261h-41.29a1.911 1.911 0 0 0 -1.305 3.309l26.532 24.764a4.171 4.171 0 0 0 2.846 1.121h23.38z" fill="#0078d4"/><path d="m33.338 6.544a4.118 4.118 0 0 0 -3.943 2.879l-25.143 74.494a4.14 4.14 0 0 0 3.908 5.538h20.787a4.443 4.443 0 0 0 3.41-2.9l5.014-14.777 17.91 16.705a4.237 4.237 0 0 0 2.666.972h23.293l-10.216-29.194-29.781.007 18.227-53.724z" fill="url(#b)"/><path d="m66.595 9.364a4.145 4.145 0 0 0 -3.928-2.82h-29.019a4.146 4.146 0 0 1 3.928 2.82l25.184 74.62a4.146 4.146 0 0 1 -3.928 5.472h29.02a4.146 4.146 0 0 0 3.927-5.472z" fill="url(#c)"/></svg>