<svg fill="none" height="320" viewBox="0 0 280 320" width="280" xmlns="http://www.w3.org/2000/svg"><path d="m279.624 90.2597c.015 13.3713-2.966 26.5753-8.723 38.6423s-14.145 22.69-24.545 31.087l-239.2004-135.8333c-.91494-.5216-1.76382-1.1515-2.52832-1.8761-1.19953-1.1763-2.15272-2.58-2.80388-4.129-.65117-1.549-.987247-3.2124-.988607-4.8928 0-3.35432 1.331877-6.57124 3.702647-8.9431 2.37076-2.37185 5.58616-3.704348 8.93896-3.704348h176.5406c23.765 0 46.557 9.445148 63.362 26.257648s26.245 39.6152 26.245 63.3917z" fill="#18b4f4"/><path d="m279.625 229.718c.003 11.775-2.313 23.434-6.815 34.314-4.502 10.879-11.102 20.764-19.423 29.091s-18.201 14.932-29.074 19.439-22.527 6.826-34.296 6.826h-176.54c-2.5008-.027-4.93737-.795-7.00156-2.208-2.06418-1.412-3.66318-3.406-4.59471-5.728-.931535-2.322-1.153729-4.868-.63848-7.316.51526-2.449 1.74481-4.689 3.53309-6.438.7128-.716 1.51268-1.339 2.38084-1.855l94.13782-53.457 145.041-82.377c10.4 8.396 18.787 19.014 24.548 31.077s8.748 25.263 8.742 38.632z" fill="#fd6b3c"/><path d="m246.355 159.989-145.062 82.398-94.13805 53.457c-.90393.502-1.73952 1.118-2.48619 1.833 35.89404-36.831 55.96334-86.248 55.91804-137.688.0677-51.447-19.996-100.8762-55.89697-137.7096.76451.7246 1.61338 1.3544 2.52832 1.8761z" fill="#a97ff2"/></svg>