<svg preserveAspectRatio="xMidYMid" viewBox="0 0 256 116" xmlns="http://www.w3.org/2000/svg"><g transform="translate(0 -1)"><path d="m202.3569 50.394-5.311-2.124c-24.961 56.164-124.26 22.019-130.235 38.727-.996 11.286 54.227 2.146 93.706 4.059 12.039.583 18.076 9.671 12.964 24.484l10.069.031c11.615-36.209 48.683-17.73 50.232-29.68-2.545-7.857-42.601 0-31.425-35.497z" fill="#fff"/><path d="m176.332 109.3483c1.593-5.311 1.062-10.622-1.593-13.809-2.656-3.187-6.374-5.311-11.154-5.842l-92.415-1.063c-.531 0-1.062-.531-1.593-.531-.531-.531-.531-1.062 0-1.593.531-1.062 1.062-1.594 2.124-1.594l92.946-1.062c11.154-.531 22.839-9.56 27.087-20.182l5.312-13.809c0-.532.531-1.063 0-1.594-5.843-27.087-30.274-47.27-58.955-47.27-26.556 0-49.394 16.996-57.361 40.897-5.311-3.718-11.684-5.843-19.12-5.311-12.747 1.062-22.838 11.684-24.432 24.431-.531 3.187 0 6.374.532 9.56-20.714.531-37.71 17.527-37.71 38.772 0 2.124 0 3.718.531 5.842 0 1.063 1.062 1.594 1.594 1.594h170.489c1.062 0 2.125-.531 2.125-1.594z" fill="#f4811f"/><path d="m205.5436 49.8628h-2.656c-.531 0-1.062.531-1.593 1.062l-3.718 12.747c-1.593 5.311-1.062 10.623 1.594 13.809 2.655 3.187 6.373 5.311 11.153 5.843l19.652 1.062c.531 0 1.062.531 1.593.531.531.531.531 1.062 0 1.593-.531 1.063-1.062 1.594-2.125 1.594l-20.182 1.062c-11.154.531-22.838 9.56-27.087 20.182l-1.063 4.781c-.531.531 0 1.593 1.063 1.593h70.108c1.062 0 1.593-.531 1.593-1.593 1.062-4.249 2.124-9.029 2.124-13.81 0-27.618-22.838-50.456-50.456-50.456" fill="#faad3f"/></g></svg>