<svg enable-background="new 0 0 963 961.4" viewBox="0 0 963 961.4" xmlns="http://www.w3.org/2000/svg" xmlns:xlink="http://www.w3.org/1999/xlink"><linearGradient id="a"><stop offset=".0814251" stop-color="#69d3a7"/><stop offset="1" stop-color="#69d3a7" stop-opacity="0"/></linearGradient><linearGradient id="b" gradientUnits="userSpaceOnUse" x1="-1332.0939" x2="-1762.0063" xlink:href="#a" y1="411.2339" y2="689.5857"/><linearGradient id="c" gradientUnits="userSpaceOnUse" x1="-2010.8448" x2="-2280.9309" y1="-66.5067" y2="506.316"><stop offset="0" stop-color="#69d3a7"/><stop offset="1" stop-color="#69d3a7"/></linearGradient><linearGradient id="d" gradientUnits="userSpaceOnUse" x1="-2332.7361" x2="-1624.5309" y1="628.3037" y2="850.5662"><stop offset=".0773521" stop-color="#69d3a7"/><stop offset=".1611" stop-color="#74d6ad"/><stop offset=".3087" stop-color="#92dfbf"/><stop offset=".5027" stop-color="#c2eddb"/><stop offset=".7187" stop-color="#fff"/></linearGradient><linearGradient id="e" gradientUnits="userSpaceOnUse" x1="992.9913" x2="568.87" xlink:href="#a" y1="483.7015" y2="758.3036"/><linearGradient id="f" gradientUnits="userSpaceOnUse" x1="533.2401" x2="86.9093" y1="903.2662" y2="46.6224"><stop offset=".06132909" stop-color="#fff"/><stop offset=".138" stop-color="#def5ec"/><stop offset=".2374" stop-color="#baebd7"/><stop offset=".3427" stop-color="#9de2c5"/><stop offset=".4536" stop-color="#86dbb8"/><stop offset=".573" stop-color="#76d7ae"/><stop offset=".7067" stop-color="#6cd4a9"/><stop offset=".8842" stop-color="#69d3a7"/></linearGradient><path d="m-1993.6 309c38.9 0 70.5 20.7 86.8 56.9l1.3 2.8 65.2-22.2-1.4-3.3c-25.3-61.6-83.5-99.9-151.9-99.9-48.1 0-87.3 15.4-119.6 47.1-32.1 31.5-48.4 71.1-48.4 117.8 0 46.3 16.3 85.7 48.4 117.2 32.3 31.7 71.4 47.1 119.6 47.1 68.4 0 126.7-38.3 151.9-99.9l1.4-3.3-65.3-22.2-1.2 2.9c-14.6 35.6-47 56.8-86.7 56.8-27.1 0-49.9-9.5-68-28.1-18.3-18.9-27.6-42.6-27.6-70.5 0-28.1 9-51.4 27.6-71.1 18-18.7 40.9-28.1 67.9-28.1z" fill="#fff"/><path d="m-1710.2 868.1-19.5-64.1c175.6-53.4 293.5-212.4 293.5-395.8 0-50.6-9-100.1-26.9-146.9l62.6-23.8c20.8 54.5 31.3 112 31.3 170.8.1 213-137 397.8-341 459.8z" fill="url(#b)"/><path d="m-1454.2 286.9c-53.6-174.9-212.9-292.4-396.3-292.4-24.9 0-49.9 2.2-74.2 6.6l-11.9-66c28.2-5.1 57.2-7.7 86.1-7.7 213.1 0 398.1 136.6 460.4 339.8z" fill="#69d3a7"/><path d="m-2301.3 577.7c-20.4-54.1-30.8-111.2-30.8-169.5 0-248.3 186.4-454 433.6-478.3l6.6 66.7c-212.7 21-373.1 197.9-373.1 411.6 0 50.2 8.9 99.3 26.5 145.8z" fill="url(#c)"/><path d="m-1584.7 249.3-93.1 235.6-93.6-235.6h-76.6l131.3 321.6-95.6 232.1 67 13.3 232.9-567z" fill="#fff"/><path d="m-1800.3 773.8-14.1 34.2c-3.2 7.8-10.7 13.1-19 13.5-5.7.2-11.5.4-17.3.4-184 0-347.8-123.2-398.4-299.5l-64.4 18.5c58.8 204.9 249.1 348 462.7 348h.1c6.7 0 13.4-.1 20-.4 34.4-1.4 65.1-23 78.2-55l19.1-46.3z" fill="url(#d)"/><path d="m340.4 382.8c38.4 0 69.6 20.5 85.6 56.1l1.2 2.8 64.4-21.9-1.3-3.3c-24.9-60.8-82.4-98.5-149.9-98.5-47.5 0-86.1 15.2-118 46.5-31.7 31.1-47.7 70.2-47.7 116.2 0 45.7 16.1 84.6 47.7 115.6 31.9 31.3 70.5 46.5 118 46.5 67.5 0 124.9-37.8 149.9-98.5l1.3-3.3-64.5-21.9-1.1 2.9c-14.4 35.1-46.4 56-85.6 56-26.7 0-49.3-9.3-67.1-27.7-18.1-18.6-27.2-42.1-27.2-69.6 0-27.7 8.9-50.7 27.2-70.2 17.9-18.4 40.4-27.7 67.1-27.7z" fill="#fff"/><path d="m620 934.4-19.2-63.3c173.2-52.6 289.6-209.5 289.6-390.4 0-49.9-8.9-98.7-26.5-144.9l61.8-23.5c20.5 53.8 30.9 110.4 30.9 168.5-.1 210.1-135.3 392.4-336.6 453.6z" fill="url(#e)"/><path d="m872.5 361.1c-52.9-172.6-210-288.5-391-288.5-24.6 0-49.2 2.2-73.2 6.5l-11.7-65.1c27.8-5 56.4-7.6 84.9-7.6 210.2 0 392.7 134.7 454.2 335.2z" fill="#69d3a7"/><path d="m743.7 324-91.7 232.4-92.4-232.4h-75.6l129.6 317.2-94.4 229 66.1 13.2 229.8-559.4z" fill="#fff"/><path d="m531.1 841.4-13.9 33.7c-3.2 7.7-10.5 13-18.7 13.3-5.7.2-11.3.4-17.1.4-170.8 0-324-107.6-383.1-265.3-.9-2.4-1.8-4.8-2.6-7.2-.2-.6-.4-1.3-.7-1.9-.7-2.2-1.5-4.3-2.2-6.5-.3-.8-.5-1.6-.8-2.5-.6-2-1.3-3.9-1.9-5.9-.3-1-.6-2-.9-3-11.1-37.4-16.7-76.3-16.7-115.9 0-210.8 158.3-385.4 368.1-406.1l-6.5-65.8c-243.7 24.1-427.6 227-427.6 472 0 44.6 6.2 88.5 18.3 130.9v.1c.8 2.9 1.7 5.7 2.6 8.6.1.4.2.8.4 1.2.8 2.7 1.7 5.4 2.6 8.1.2.5.3.9.5 1.4.9 2.7 1.8 5.4 2.8 8.1.1.4.3.7.4 1.1.9 2.6 1.9 5.2 2.8 7.7 69 182.5 246.5 306.9 444.4 307h.1c6.6 0 13.2-.1 19.8-.4 33.9-1.4 64.2-22.7 77.2-54.2l18.8-45.7z" fill="url(#f)"/><image height="512" overflow="visible" transform="matrix(1.9513 0 0 1.9513 -386.8387 2385.2271)" width="512" xlink:href="../../../../../../../../Users/katiesculley/Downloads/Logo/Type=Mark, Variant=White + Color.png"/></svg>