<?xml version="1.0" encoding="UTF-8" standalone="no"?>
<!-- Created with Inkscape (http://www.inkscape.org/) -->

<svg
   version="1.1"
   id="svg28"
   width="2982.6667"
   height="2982.6667"
   viewBox="0 0 2982.6667 2982.6667"
   sodipodi:docname="vecteezy_discord-logo-discord-icon-discord-symbol-free-vector_19493245.eps"
   xmlns:inkscape="http://www.inkscape.org/namespaces/inkscape"
   xmlns:sodipodi="http://sodipodi.sourceforge.net/DTD/sodipodi-0.dtd"
   xmlns="http://www.w3.org/2000/svg"
   xmlns:svg="http://www.w3.org/2000/svg">
  <defs
     id="defs32" />
  <sodipodi:namedview
     id="namedview30"
     pagecolor="#ffffff"
     bordercolor="#000000"
     borderopacity="0.25"
     inkscape:showpageshadow="2"
     inkscape:pageopacity="0.0"
     inkscape:pagecheckerboard="0"
     inkscape:deskcolor="#d1d1d1"
     showgrid="false" />
  <g
     id="g36"
     inkscape:groupmode="layer"
     inkscape:label="Page 1"
     transform="matrix(1.3333333,0,0,-1.3333333,0,2982.6667)">
    <g
       id="g38"
       transform="scale(0.1)">
      <path
         d="m 11189.33,298.94455 c 5993.557,0 10881.766,4888.21455 10881.766,10881.77845 0,5993.564 -4888.209,10881.778 -10881.766,10881.778 C 5195.855,22062.501 307.50001,17174.287 307.50001,11180.723 307.50001,5187.1591 5195.855,298.94455 11189.33,298.94455"
         style="fill:#5765ec;fill-opacity:1;fill-rule:evenodd;stroke:none;stroke-width:1.62146"
         id="path42" />
      <path
         d="m 12726.797,15586.715 c -1016.979,155.174 -2058.603,155.174 -3075.5812,0 -91.9367,220.681 -227.4905,490.006 -346.5055,700.471 -20.9168,36.159 -76.6626,14.917 -110.2592,8.432 -519.1421,-106.044 -2556.4229,-631.559 -2689.804,-852.24 -1471.927,-2199.023 -2042.064,-4351.835 -2043.4585,-6478.8663 -0.4215,-365.6392 16.6362,-730.9541 47.9952,-1095.4582 8.7397,-96.3147 -9.6153,-89.6667 65.3772,-144.1478 1136.3176,-827.7552 2237.8388,-1333.002 3319.2377,-1668.9685 17.382,-5.3508 36.1585,0.8108 47.0385,15.5661 258.9468,353.1539 489.5181,725.7653 687.4333,1117.6721 11.7393,23.0248 0.4378,50.1031 -23.1382,59.3455 -366.1252,138.9591 -714.4144,308.0773 -1049.6021,500.3824 -26.5757,15.2417 -28.716,53.0218 -4.378,71.3443 70.6956,52.6974 141.2939,107.6649 208.3736,163.6052 12.242,10.0531 29.2349,12.161 43.6334,5.513 2191.1571,-1000.7649 4580.6988,-1000.7649 6771.7748,0 14.431,6.648 31.295,4.5401 43.618,-5.513 67.128,-55.9403 137.661,-110.9078 208.357,-163.6052 24.322,-18.3225 22.214,-56.1026 -4.378,-71.3443 -335.155,-192.3051 -683.444,-361.4233 -1049.57,-500.3824 -23.511,-9.2424 -34.861,-36.3207 -23.186,-59.3455 197.98,-391.9068 428.551,-764.5182 687.498,-1117.6721 10.863,-14.7553 29.672,-20.9169 47.022,-15.5661 1081.35,335.9665 2182.969,841.2133 3319.286,1668.9685 74.912,54.4811 56.589,47.8331 65.345,144.1478 31.294,364.5041 48.32,729.819 47.995,1095.4582 -1.459,2127.0313 -571.564,4279.8433 -2043.523,6478.8663 -133.284,220.681 -2170.646,746.196 -2689.837,852.24 -33.564,6.485 -89.342,27.727 -110.259,-8.432 -119.015,-210.465 -254.569,-479.79 -346.505,-700.471 z m 694.308,-6272.6166 c 663.014,0 1209.121,608.3717 1209.121,1356.0266 0,747.493 -535.567,1356.027 -1209.121,1356.027 -679.067,0 -1219.985,-614.209 -1208.959,-1356.027 0,-747.6549 535.568,-1356.0266 1208.959,-1356.0266 z m -4464.165,0 c -662.9979,0 -1209.1374,608.3717 -1209.1374,1356.0266 0,747.493 535.6811,1356.027 1209.1374,1356.027 679.0341,0 1219.952,-614.209 1209.088,-1356.027 0,-747.6549 -535.729,-1356.0266 -1209.088,-1356.0266"
         style="fill:#ffffff;fill-opacity:1;fill-rule:evenodd;stroke:none;stroke-width:1.62146"
         id="path44" />
    </g>
  </g>
</svg>
