<svg width="306" height="306" viewBox="0 0 306 306" fill="none" xmlns="http://www.w3.org/2000/svg">
<path d="M229.904 125.403C229.235 130.011 226.197 136.271 222.711 141.713C218.313 148.58 211.334 153.39 203.347 155.061L168.162 162.418C162.507 163.6 157.38 166.56 153.529 170.864L130.46 196.651C126.124 201.497 123.093 200.341 123.093 193.841C123.041 194.082 111.644 223.475 141.848 240.896C153.453 247.59 170.159 245.185 181.764 238.491L243.254 203.023C266.251 189.759 282.487 167.319 287.884 141.344C288.098 140.317 288.262 139.286 288.44 138.255L229.904 125.403Z" fill="url(#paint0_linear_2_234997)"/>
<path d="M213.958 89.9709C225.563 96.6648 230.305 106.631 230.304 120.018C230.304 121.836 230.162 123.632 229.905 125.4L254.681 136.043L288.441 138.252C292.764 113.234 284.292 87.482 269.105 67.0127C257.676 51.6087 242.969 38.2409 225.289 28.0426C210.927 19.7584 196.001 14.3002 181.006 11.3052L164.158 33.1234L158.836 58.1766L213.958 89.9709Z" fill="url(#paint1_linear_2_234997)"/>
<path d="M15.642 108.332C15.6357 108.352 15.6531 108.358 15.6597 108.338C16.9598 104.439 18.59 100.088 20.6252 95.4407C31.2564 71.1637 51.7432 54.9721 76.9471 46.7166C102.151 38.4612 129.67 41.355 152.64 54.6044L158.836 58.1781L181.006 11.3068C110.492 -2.77691 38.4232 38.6506 15.7316 108.061C15.7208 108.094 15.6813 108.21 15.642 108.332Z" fill="url(#paint2_linear_2_234997)"/>
<path d="M179.358 238.489C167.753 245.183 153.455 245.183 141.849 238.489C140.274 237.58 138.789 236.558 137.385 235.452L116.974 249.485L99.3828 277.911C118.909 294.161 144.263 299.385 169.601 296.479C188.668 294.293 207.609 288.252 225.29 278.054C239.652 269.77 251.846 259.586 261.94 248.109L251.451 222.623L234.48 206.694L179.358 238.489Z" fill="url(#paint3_linear_2_234997)"/>
<path d="M137.385 235.453C128.443 228.41 123.095 217.608 123.095 206.037V204.883V108.519C123.095 103.069 124.701 102.143 129.425 104.868C122.149 100.671 105.34 86.2635 84.5865 98.2344C72.9814 104.928 63.4248 119.704 63.4248 133.092V204.028C63.4248 230.557 77.1653 258.23 96.9833 275.887C97.7672 276.585 98.5787 277.243 99.3829 277.913L137.385 235.453Z" fill="url(#paint4_linear_2_234997)"/>
<path d="M260.517 56.5222C260.503 56.5068 260.489 56.5192 260.503 56.5346C263.233 59.6092 266.189 63.1949 269.2 67.2795C284.929 88.6162 290.806 115.64 285.361 141.574C279.915 167.508 263.647 189.871 240.676 203.12L234.48 206.694L261.941 248.109C309.407 194.141 309.529 111.073 260.707 56.7356C260.684 56.7096 260.603 56.6175 260.517 56.5222Z" fill="url(#paint5_linear_2_234997)"/>
<path d="M65.8314 133.089C65.8313 119.701 72.9805 107.33 84.5857 100.636C86.1611 99.7272 87.7892 98.9531 89.4503 98.291L87.4916 73.6159L73.7306 45.3848C49.8822 54.1539 30.5915 72.2765 20.4413 95.6512C12.8029 113.242 8.56845 132.65 8.56836 153.046C8.56836 169.615 11.2995 185.257 16.201 199.729L43.5381 203.397L65.8314 196.677V133.089Z" fill="url(#paint6_linear_2_234997)"/>
<path d="M89.4501 98.2911C100.026 94.0766 112.064 94.8508 122.094 100.636L123.094 101.213L203.393 147.529C209.026 150.778 208.514 153.976 202.147 155.307L206.779 154.338C212.875 153.064 218.443 149.949 222.702 145.409C230.024 137.605 232.712 128.188 232.712 120.017C232.712 106.629 225.563 94.2581 213.958 87.5642L152.467 52.0962C129.471 38.8318 101.901 36.0034 76.6865 44.3216C75.6891 44.6506 74.7127 45.0237 73.7305 45.3849L89.4501 98.2911Z" fill="url(#paint7_linear_2_234997)"/>
<path d="M182.99 294.292C183.01 294.288 183.006 294.27 182.986 294.274C178.955 295.099 174.369 295.863 169.323 296.426C142.963 299.367 116.599 290.94 96.8408 273.261C77.0828 255.582 65.8316 230.326 65.8317 203.827L65.8316 196.679L16.2012 199.73C39.2502 267.782 111.196 309.422 182.709 294.35C182.743 294.343 182.864 294.319 182.99 294.292Z" fill="url(#paint8_linear_2_234997)"/>
<defs>
<linearGradient id="paint0_linear_2_234997" x1="189.649" y1="223.14" x2="218.061" y2="124.176" gradientUnits="userSpaceOnUse">
<stop stop-color="#6C31C9"/>
<stop offset="1" stop-color="#9C6BE9"/>
</linearGradient>
<linearGradient id="paint1_linear_2_234997" x1="255.089" y1="102.45" x2="180.349" y2="27.9726" gradientUnits="userSpaceOnUse">
<stop stop-color="#9C6BE9"/>
<stop offset="1" stop-color="#6C31C8"/>
</linearGradient>
<linearGradient id="paint2_linear_2_234997" x1="154.485" y1="53.8937" x2="41.7364" y2="61.0182" gradientUnits="userSpaceOnUse">
<stop stop-color="#6C31C8"/>
<stop offset="1" stop-color="#A373EE"/>
</linearGradient>
<linearGradient id="paint3_linear_2_234997" x1="146.86" y1="267.305" x2="248.114" y2="239.982" gradientUnits="userSpaceOnUse">
<stop stop-color="#AD7FF5"/>
<stop offset="1" stop-color="#A374EE"/>
</linearGradient>
<linearGradient id="paint4_linear_2_234997" x1="74.1841" y1="150.136" x2="146.072" y2="224.627" gradientUnits="userSpaceOnUse">
<stop stop-color="#6C31C8"/>
<stop offset="1" stop-color="#AC7EF4"/>
</linearGradient>
<linearGradient id="paint5_linear_2_234997" x1="238.31" y1="203.872" x2="288.468" y2="102.76" gradientUnits="userSpaceOnUse">
<stop stop-color="#A374EE"/>
<stop offset="1" stop-color="#6C31C9"/>
</linearGradient>
<linearGradient id="paint6_linear_2_234997" x1="56.9879" y1="90.9896" x2="30.1477" y2="191.871" gradientUnits="userSpaceOnUse">
<stop stop-color="#A373EE"/>
<stop offset="1" stop-color="#844ED9"/>
</linearGradient>
<linearGradient id="paint7_linear_2_234997" x1="194.01" y1="86.1914" x2="95.9282" y2="110.612" gradientUnits="userSpaceOnUse">
<stop stop-color="#6C31C8"/>
<stop offset="1" stop-color="#A474EF"/>
</linearGradient>
<linearGradient id="paint8_linear_2_234997" x1="66.4021" y1="201.353" x2="128.921" y2="295.395" gradientUnits="userSpaceOnUse">
<stop stop-color="#8650DB"/>
<stop offset="1" stop-color="#AB7DF3"/>
</linearGradient>
</defs>
</svg>
