<svg viewBox="0 0 256 105" xmlns="http://www.w3.org/2000/svg"><g fill="#32e6e2"><path d="m58.4705 103.765v-26.3506l.5461-.5461h6.5877l.5462.5461v26.3506l-.5462.546h-6.5877z"/><path d="m58.4705 26.8971v-26.350967l.5461-.546133h6.5877l.5462.546133v26.350967l-.5462.5461h-6.5877z"/><path d="m35.7973 85.2395h-.9045l-4.5312-4.5312v-.9046l8.4906-8.4992 4.7958.0086.64.6314v4.7958z"/><path d="m30.3616 24.7467v-.9131l4.5312-4.5227h.9045l8.4907 8.4907v4.7872l-.64.6485h-4.7958z"/><path d="m.546133 48.3072h37.333367l.5461.5461v6.5963l-.5461.5461h-37.333367l-.546133-.5461v-6.5963z"/><path d="m220.314 48.3157h35.131l.546.5462v6.5877l-.546.5461h-37.879l-.546-.5461 2.739-6.5877.546-.5462z"/></g><g fill="#fff"><path d="m74.6666 65.8859h-6.5877l-.5461-.5462v-15.4197c0-2.7477-1.0752-4.8725-4.3862-4.9408-1.7066-.0427-3.6522 0-5.7344.0853l-.3157.3158v6.2293 13.7216l-.5461.5461h-6.5878l-.5461-.5461v-26.3509l.5461-.5462h14.8224c5.76 0 10.4278 4.6678 10.4278 10.4278v16.4693l-.5462.5461z"/><path d="m106.573 54.3488-.546.5461h-17.0328l-.5462.5462c0 1.1008 1.1008 4.3946 5.4955 4.3946 1.6469 0 3.2939-.5461 3.8485-1.6469l.5462-.5461h6.5878l.546.5461c-.546 3.2939-3.294 8.2432-11.537 8.2432-9.3355 0-13.7302-6.5877-13.7302-14.2848s4.3947-14.2848 13.184-14.2848c8.7892 0 13.1842 6.5877 13.1842 14.2848v2.1931zm-8.2434-5.4955c0-.5461-.5461-4.3946-4.9408-4.3946-4.3946 0-4.9408 3.8485-4.9408 4.3946l.5462.5462h8.7893z"/><path d="m121.95 57.6427c0 1.1008.546 1.6469 1.647 1.6469h4.941l.546.5462v5.4954l-.546.5462h-4.941c-4.941 0-9.336-2.2016-9.336-8.2432v-12.0833l-.546-.5461h-3.848l-.546-.5461v-5.4955l.546-.5461h3.848l.546-.5462v-4.9408l.546-.5461h6.588l.546.5461v4.9408l.546.5462h6.042l.546.5461v5.4955l-.546.5461h-6.042l-.546.5461v12.0833z"/><path d="m142.276 65.8859h-6.588l-.546-.5462v-37.3589l.546-.5461h6.588l.546.5461v37.3504l-.546.5461z"/><path d="m157.107 34.0224h-6.588l-.546-.5461v-5.4955l.546-.5461h6.588l.546.5461v5.4955zm0 31.8635h-6.588l-.546-.5462v-26.368l.546-.5461h6.588l.546.5461v26.368z"/><path d="m182.929 27.9808v5.4955l-.546.5461h-4.941c-1.101 0-1.647.5461-1.647 1.6469v2.2016l.546.5462h5.496l.546.5461v5.4955l-.546.5461h-5.496l-.546.5461v19.7718l-.546.5461h-6.588l-.546-.5461v-19.7718l-.546-.5461h-3.849l-.546-.5461v-5.4955l.546-.5461h3.849l.546-.5462v-2.2016c0-6.0416 4.395-8.2432 9.336-8.2432h4.94l.547.5462z"/><path d="m203.247 66.432c-2.202 5.4955-4.395 8.7893-12.083 8.7893h-2.748l-.546-.5461v-5.4955l.546-.5461h2.748c2.747 0 3.294-.5461 3.848-2.1931v-.5461l-8.789-21.4272v-5.4955l.546-.5461h4.941l.546.5461 6.588 18.6795h.546l6.588-18.6795.546-.5461h4.941l.546.5461v5.4955l-8.79 21.9733z"/></g></svg>