<svg fill="none" viewBox="0 0 111 33" xmlns="http://www.w3.org/2000/svg" xmlns:xlink="http://www.w3.org/1999/xlink"><linearGradient id="a" gradientUnits="userSpaceOnUse" x1="34.5132" x2="27.1574" y1="15.5354" y2="30.4484"><stop offset="0" stop-color="#3f873f"/><stop offset=".3296" stop-color="#3f8b3d"/><stop offset=".6367" stop-color="#3e9638"/><stop offset=".9341" stop-color="#3da92e"/><stop offset="1" stop-color="#3dae2b"/></linearGradient><linearGradient id="b" gradientUnits="userSpaceOnUse" x1="30.0088" x2="50.5328" y1="23.3589" y2="8.28841"><stop offset=".1376" stop-color="#3f873f"/><stop offset=".4016" stop-color="#52a044"/><stop offset=".7129" stop-color="#64b749"/><stop offset=".9081" stop-color="#6abf4b"/></linearGradient><linearGradient id="c" gradientUnits="userSpaceOnUse" x1="21.9168" x2="40.5549" y1="22.2608" y2="22.2608"><stop offset=".0919165" stop-color="#6abf4b"/><stop offset=".2871" stop-color="#64b749"/><stop offset=".5984" stop-color="#52a044"/><stop offset=".8624" stop-color="#3f873f"/></linearGradient><clipPath id="d"><path d="m0 0h111v33h-111z"/></clipPath><g clip-path="url(#d)"><path d="m97.6894 32.7407c-.287 0-.5549-.077-.8036-.2118l-2.5446-1.5208c-.3826-.2118-.1913-.2888-.0765-.3273.5166-.1733.6122-.2118 1.1479-.5198.0574-.0385.134-.0192.1914.0193l1.9515 1.1743c.0765.0385.1721.0385.2295 0l7.634-4.4471c.076-.0385.115-.1155.115-.2117v-8.8749c0-.0962-.039-.1732-.115-.2117l-7.634-4.4278c-.0765-.0385-.1722-.0385-.2295 0l-7.6338 4.4278c-.0766.0385-.1148.1347-.1148.2117v8.8749c0 .077.0382.1732.1148.2117l2.0854 1.2129c1.1288.5775 1.8367-.0963 1.8367-.7701v-8.7593c0-.1155.0956-.231.2296-.231h.9757c.1148 0 .2296.0962.2296.231v8.7593c0 1.5209-.8227 2.4064-2.2576 2.4064-.44 0-.7844 0-1.7602-.4812l-2.0089-1.1551c-.4974-.2888-.8035-.8278-.8035-1.4054v-8.8748c0-.5776.3061-1.1166.8035-1.4054l7.6338-4.447c.4783-.2695 1.1288-.2695 1.6071 0l7.6341 4.447c.497.2888.803.8278.803 1.4054v8.8748c0 .5776-.306 1.1166-.803 1.4054l-7.6341 4.447c-.2296.0963-.5165.1733-.8035.1733z" fill="#5fa04e"/><path d="m100.062 26.6379c-3.3486 0-4.0373-1.5401-4.0373-2.8492 0-.1155.0956-.231.2295-.231h.9949c.1148 0 .2105.077.2105.1925.153 1.0203.5931 1.5209 2.6214 1.5209 1.607 0 2.296-.3658 2.296-1.2321 0-.5005-.192-.8663-2.6981-1.1166-2.0854-.2118-3.3864-.6738-3.3864-2.3487 0-1.5593 1.301-2.4834 3.4821-2.4834 2.4494 0 3.6544.8471 3.8074 2.6952 0 .0578-.019.1155-.057.1733-.039.0385-.096.077-.154.077h-1.014c-.095 0-.191-.077-.21-.1733-.23-1.0588-.823-1.4053-2.3915-1.4053-1.7602 0-1.9707.616-1.9707 1.078 0 .5583.2487.7316 2.6212 1.0396 2.353.308 3.463.7508 3.463 2.4064 0 1.6941-1.397 2.6567-3.807 2.6567z" fill="#5fa04e"/><path d="m111.083 17.3202c0 .8086-.67 1.4824-1.474 1.4824-.803 0-1.473-.6546-1.473-1.4824 0-.847.689-1.4823 1.473-1.4823.785 0 1.474.6545 1.474 1.4823zm-2.717 0c0 .6931.555 1.2514 1.224 1.2514.689 0 1.244-.5776 1.244-1.2514 0-.693-.555-1.232-1.244-1.232-.65 0-1.224.539-1.224 1.232zm.689-.8278h.574c.191 0 .574 0 .574.4428 0 .308-.192.3658-.307.4043.23.0192.249.1733.268.385.019.1348.039.3658.077.4428h-.345c0-.077-.057-.5005-.057-.5198-.019-.0962-.057-.1347-.172-.1347h-.287v.6737h-.325zm.306.7316h.248c.211 0 .249-.154.249-.231 0-.231-.153-.231-.249-.231h-.267v.462z" fill="#5fa04e"/><g clip-rule="evenodd" fill-rule="evenodd"><path d="m18.1565 17.4415c0-.3465-.1913-.6737-.4974-.847l-8.09296-4.7166c-.13393-.077-.28699-.1155-.44005-.1347-.01913 0-.07653 0-.07653 0-.15305 0-.30611.0577-.44004.1347l-8.112081 4.6973c-.306116.1733-.497439.5006-.497439.8663l.0191323 12.6289c0 .1733.0956617.3465.2487197.4235.153058.0963.344381.0963.478307 0l4.821331-2.7722c.30612-.1732.49744-.5005.49744-.847v-5.9102c0-.3465.19132-.6738.49744-.847l2.04715-1.1936c.15306-.0963.32525-.1348.49744-.1348s.34438.0385.47831.1348l2.04713 1.1936c.3061.1732.4975.5005.4975.847v5.9102c0 .3465.1913.6738.4974.847l4.7831 2.7722c.153.0963.3443.0963.4974 0 .1531-.077.2487-.2502.2487-.4235z" fill="#fff"/><path d="m57.1482.0577539c-.1531-.0770052-.3444-.0770052-.4784 0-.153.0962561-.2487.2502671-.2487.4235291v12.513317c0 .1155-.0574.231-.1722.3081-.1148.0577-.2295.0577-.3443 0l-2.0281-1.1744c-.3061-.1732-.6696-.1732-.9757 0l-8.1121 4.7166c-.3061.1733-.4974.5005-.4974.847v9.4139c0 .3466.1913.6738.4974.8471l8.1121 4.7166c.3061.1732.6696.1732.9757 0l8.1121-4.7166c.3061-.1733.4975-.5005.4975-.8471v-23.4673c0-.36578-.1914-.69305-.4975-.86631zm-.7462 23.9486461c0 .0962-.0383.1732-.1148.2117l-2.7742 1.6172c-.0765.0385-.1722.0385-.2487 0l-2.7742-1.6172c-.0765-.0385-.1148-.1347-.1148-.2117v-3.2342c0-.0963.0383-.1733.1148-.2118l2.7742-1.6171c.0765-.0385.1722-.0385.2487 0l2.7742 1.6171c.0765.0385.1148.1348.1148.2118z" fill="#fff"/><path d="m84.1431 20.6951c.3062-.1733.4783-.5005.4783-.8471v-2.2909c0-.3465-.1913-.6738-.4783-.847l-8.0547-4.6973c-.3061-.1733-.6696-.1733-.9757 0l-8.1121 4.7165c-.3061.1733-.4974.5006-.4974.8471v9.4139c0 .3465.1913.6738.4974.847l8.0547 4.6203c.3061.1733.6696.1733.9566 0l4.8787-2.7336c.1531-.077.2488-.2503.2488-.4236 0-.1732-.0957-.3465-.2488-.4235l-8.1503-4.7166c-.1531-.0962-.2487-.2502-.2487-.4235v-2.9454c0-.1733.0956-.3466.2487-.4236l2.5446-1.4631c.1531-.0962.3444-.0962.4974 0l2.5446 1.4631c.1531.0963.2487.2503.2487.4236v2.3101c0 .1733.0957.3465.2488.4235.153.0963.3443.0963.4974 0z" fill="#fff"/><path d="m75.4764 20.2525c.0574-.0385.134-.0385.1914 0l1.5497.9048c.0574.0385.0956.0963.0956.1733v1.8096c0 .077-.0382.1348-.0956.1733l-1.5497.9048c-.0574.0385-.134.0385-.1914 0l-1.5497-.9048c-.0574-.0385-.0956-.0963-.0956-.1733v-1.8096c0-.077.0382-.1348.0956-.1733z" fill="#5fa04e"/></g><path d="m31.7207 12.0513c-.3062-.1732-.6697-.1732-.9758 0l-8.0547 4.6781c-.3061.1733-.4783.5005-.4783.8471v9.3753c0 .3466.1913.6738.4783.8471l8.0547 4.6781c.3061.1732.6696.1732.9758 0l8.0546-4.6781c.3062-.1733.4783-.5005.4783-.8471v-9.3753c0-.3466-.1913-.6738-.4783-.8471z" fill="url(#a)"/><path d="m39.7946 16.7294-8.0929-4.6781c-.0765-.0385-.1722-.077-.2487-.0962l-9.0687 15.6128c.0765.0962.1722.1732.2678.231l8.093 4.6781c.2296.1347.4974.1732.7461.0962l8.5139-15.6705c-.0574-.077-.1339-.1348-.2105-.1733z" fill="url(#b)"/><path d="m39.7947 27.7986c.2296-.1348.4018-.3658.4783-.6161l-8.8583-15.247c-.2295-.0385-.4783-.0193-.6887.1155l-8.0356 4.6588 8.6669 15.9016c.1148-.0193.2488-.0578.3636-.1155z" fill="url(#c)"/></g></svg>