<svg fill="none" height="1000" viewBox="0 0 1000 1000" width="1000" xmlns="http://www.w3.org/2000/svg"><g fill="#fff"><path d="m543.321 553.145-77.992-122.052-.117 102.549-134.413-226.552h-94.559v382.456h93.502l.305-226.269 133.026 216.13z"/><path d="m465.353 405.404h93.383l.212-1.083v-97.231h-93.501l-.118 97.231z"/><path d="m703.065 511.433c-22.371-.424-42.583 13.308-50.452 34.277 13.1-19.613 38.044-27.494 60.016-18.961 10.151 4.14 23.499 10.821 34.073 7.246-10.057-14.13-26.307-22.532-43.637-22.562z"/><path d="m809.021 557.45c0-11.457-6.227-14.116-19.151-18.821-9.588-3.34-20.468-7.104-28.387-17.456-1.551-2.046-2.984-4.352-4.512-6.799-3.421-6.336-8.061-11.933-13.652-16.468-7.543-5.552-17.436-8.257-30.267-8.257-25.744.018-48.938 15.575-58.746 39.405 12.4-17.226 33.008-26.559 54.117-24.51 21.11 2.049 39.543 15.172 48.407 34.462 4.429 7.316 13.163 10.809 21.408 8.563 12.619-2.705 11.749 9.246 30.807 13.292z"/><path d="m850.637 555.003v-.259c-.282-75.847-61.778-140.73-137.585-140.73-46.299-.032-89.502 23.278-114.932 62.013l-.493-.847-38.914-61.166h-93.36l88.707 139.083-86.569 136.449h90.681l39.455-60.673 40.159 60.673h90.705l-82.245-129.579c-1.366-2.525-2.107-5.34-2.162-8.211-.007-18.302 7.253-35.856 20.179-48.797 12.927-12.942 30.461-20.21 48.742-20.203 38.115 0 44.483 22.82 52.708 33.547 16.237 21.173 48.666 11.904 48.666 39.523.096 6.472 3.634 12.401 9.281 15.553 5.646 3.152 12.544 3.049 18.094-.271 5.55-3.319 8.909-9.351 8.813-15.823v-.282z"/><path d="m850.731 574.529c.922 6.451.01 13.03-2.631 18.985-5.17 11.975-13.794 7.976-13.794 7.976s-7.426-3.623-2.914-10.563c5.005-7.74 14.898-6.846 19.339-16.398z"/></g></svg>