<svg xmlns="http://www.w3.org/2000/svg" viewBox="0 0 1517.45 1589.76"><g><circle cx="133.88" cy="339.89" r="70.47" fill="#ff37ad"/><circle cx="1213.11" cy="280.15" r="70.47" fill="#ff37ad"/><circle cx="1270.3" cy="1185.51" r="70.47" fill="#fcc954"/><circle cx="421.69" cy="70.47" r="70.47" fill="#fcc954"/><path d="M838.6 630.31A55 55 0 0 1 785.2 562c2.21-8.82 4-17.69 5.35-26.52a151.1 151.1 0 0 1-51.95 11.33c-32 1.23-60.66-4.17-85.08-16a132.25 132.25 0 0 1-57.2-52.81c-26.26-45.53-24-105.42 5.74-152.59C630.41 280.38 678.42 256 730.49 260c40.09 3.12 75.24 18.15 103.39 43.91q7.7-21.69 14.71-46.42C877.36 156 886.84 54.07 886.93 53.05A55 55 0 0 1 996.48 63c-.41 4.58-10.53 113.23-42.06 224.53-15.93 56.19-34.73 103.68-56.06 141.6q2.37 12.67 3.76 26c4.44 42.91.91 89.09-10.2 133.55a55 55 0 0 1-53.32 41.63ZM718.87 369.56c-5.68 0-15.7 1.66-23.77 14.45-7.73 12.26-9.23 29-3.5 38.94 7.63 13.23 30.07 14.38 42.78 13.9 14.43-.55 29.21-9.59 43.66-26.08a96.7 96.7 0 0 0-8.51-14.4c-11.94-16.59-27.06-25.06-47.59-26.66-.76-.06-1.81-.15-3.07-.15Z" fill="#2890e9"/><path d="M680.43 781C452.3 601.19 213.86 523.27 147.85 607a76 76 0 0 0-13.43 26.81 23.22 23.22 0 0 0-.94 3.65v.14a100.33 100.33 0 0 0-1.98 11.4L2.34 1405.22c-20.68 121.44 99.54 218.68 214 173.09l700.42-279.08c12.35-4.92 42.75-23.7 51.07-34.07a71.58 71.58 0 0 0 6.17-6.85c66-83.75-65.44-297.42-293.57-477.31Z" fill="#f0a420"/><ellipse cx="560.84" cy="932.73" rx="193.16" ry="525.99" transform="rotate(-51.75 560.825 932.709)" fill="#fcc954"/><ellipse cx="569.3" cy="922" rx="158.52" ry="464.51" transform="rotate(-51.75 569.274 921.984)" fill="#f0a420"/><path d="M452.53 1484.19c-85.23.43-154.71-42.24-238.92-108.62-98-77.27-163.08-169.77-168.21-222.45l-27.78 162.6c12.85 46.4 56.65 105.2 120.19 155.29 52.86 41.68 106.17 70.29 161.45 74.25ZM367.27 1189.11C204 1060.37 97.91 912.63 100.91 828.15L73.84 986.58c2.08 75.48 90.28 197.44 215.74 296.35 112.42 88.63 229.57 151 319.27 139l152.28-60.68c-122.68 8.47-252.13-60.37-393.86-172.14Z" fill="#2e6ac9"/><circle cx="705.28" cy="792.57" r="70.47" fill="#2890e9"/><path d="M1035.79 682.76s151.66-176.27 421.66-114" fill="none" stroke="#ff37ad" stroke-linecap="round" stroke-miterlimit="10" stroke-width="120"/><path d="M434.52 257.3a70 70 0 1 0-118.37 74.76c2.54 4.05 54.6 88.41 65.31 203.93 10.89 117.37-23.6 225.26-102.66 322 26.62 33.83 58.66 69 95.24 104.16 50.64-58.51 88.74-121.39 113.76-187.9 30.79-81.86 41.69-168.64 32.4-257.93-14.79-142.03-76.59-244.59-85.68-259.02Z" fill="#ff37ad"/><path d="M1310.4 931.6c35.71 9.24 60.95 19.3 71.87 24a70.47 70.47 0 1 0 59.42-126.81c-33.44-14.84-160.09-64.95-327.52-56.07-112.69 6-221.06 37.22-322.08 92.89C696.44 918.32 607.62 993 527 1088.28a1180.5 1180.5 0 0 0 120 75C783.14 1008.12 940.22 924 1115.26 912.89a629.78 629.78 0 0 1 195.14 18.71Z" fill="#2890e9"/></g></svg>