<svg fill="none" height="108" viewBox="0 0 123 108" width="123" xmlns="http://www.w3.org/2000/svg"><path d="m23.8379 95.5752 29.5369-39.8416-20.112-36.4171c-1.104 1.8142-1.9615 4.2429-2.2815 6.8434l-7.7244 62.7303c-.32 2.5837-.0714 4.9455.581 6.685z" fill="#b0bdc6"/><path d="m121.284 2.71588-42.4825 51.92042 29.9015 50.5267c1.828-2.046 3.206-5.077 3.64-8.5942l10.523-85.4227c.437-3.54048-.223-6.51781-1.582-8.43022z" fill="#b0bdc6"/><path d="m62.6692 73.5374-9.2944-17.806-29.5369 39.8438c.6044 1.5958 1.5477 2.6774 2.732 2.8246l76.4101 9.4012c2.041.256 4.059-.775 5.722-2.638l-29.9005-50.5267z" fill="#cad5dd"/><path d="m116.192.55926-79.5081 15.72184c-1.2199.2454-2.4254 1.3939-3.4223 3.0354l20.1143 36.4149 9.2944 17.806 16.1323-18.9011 42.4824-51.92042c-1.221-1.70612-2.991-2.566979-5.093-2.15662z" fill="#dfe9ef"/><g fill="#18b6f6"><path d="m17.8955 78.9825c1.5823.0368 2.7253 1.3504 2.5424 2.9204l-1.3626 11.693c-.1818 1.5701-1.6147 2.6808-3.1814 2.4644l-12.20934-1.6816c-1.56672-.2163-2.66956-1.6737-2.44877-3.2405l1.35709-9.6334c.22079-1.5667 1.69496-2.8201 3.27506-2.7844z"/><path d="m21.8664 49.7377c1.5767-.1338 2.7074 1.0415 2.5156 2.6116l-1.6035 13.0277c-.194 1.5701-1.6448 2.8547-3.2271 2.8547h-16.3954c-1.58234 0-2.677371-1.279-2.435393-2.8413l1.737333-11.2079c.24198-1.5623 1.72953-2.9506 3.30741-3.0855z"/><path d="m26.0235 18.5526c1.5567-.2832 2.6707.7694 2.4778 2.3395l-1.6181 13.1482c-.194 1.5701-1.6381 2.9952-3.2104 3.1658l-20.31162 2.2191c-1.5723.1706-2.646146-.9646-2.387441-2.5257l1.890101-11.3864c.25871-1.5589 1.74515-3.0676 3.30183-3.352z"/><path d="m74.7547 48.1498-5.1294-6.0963-.0748.0044v-.0579l-9.3011-10.9861 2.1154-2.519-1.2556-8.477-5.493 8.99c-.8665 1.1597-1.0237 2.984-.4048 4.3333l3.3107 7.1255c.532 1.1519 1.5121 1.9247 2.596 2.0406l1.8567.1963z"/></g><path d="m77.799 27.8225-1.1419-2.0652-.5854-1.0381-.2297-.4026-.0246.0268-2.9516-4.9991c-.7104-1.2132-2.015-1.8165-3.3889-1.5868l-2.2826.4282-6.1888.9947c-1.0806.1796-2.0418 1.0092-2.5648 2.1789l-3.1747 8.2429 5.8621-9.6089 9.1383 10.7229-1.7641 1.9693 1.0482 9.3724.0112-.0223v.0235l-.0212-.0023.0212.0257.8341.9735 4.2764 5.0079c.1896.213.4974.0413.3669-.2119l-2.7041-5.9167 4.8161-8.9855.1617-.1874c.0625-.0747.1249-.1505.174-.2252 1.008-1.3839 1.1474-3.2405.3122-4.7147z" fill="#ac7ef4"/><path d="m70.2988 30.6682-9.1707-10.6648 1.1932 8.4391-2.1142 2.5291 9.3223 11.0707-.9234-9.3356z" fill="#fff"/></svg>