  <svg
    version="1.1"
    id="svg9"
    class="h-16 w-16"
    width="507.49432"
    height="536.69727"
    viewBox="0 0 507.49435 536.69726"
    xmlns="http://www.w3.org/2000/svg"
    xmlns:svg="http://www.w3.org/2000/svg"
  >
    <defs id="defs13" />
    <g id="g15" transform="translate(-235.27262,-157.38644)">
      <path
        style="fill:#0000ff;fill-opacity:1;stroke:none"
        d="m 241.80783,270.25242 c 0.73181,-2.93574 2.19559,-8.80793 6.06204,-17.06272 3.86645,-8.2548 10.13531,-18.89136 15.55417,-27.14616 5.41886,-8.2548 9.98733,-14.12722 14.40329,-19.29408 4.41596,-5.16686 8.67906,-9.62774 13.04082,-13.62625 4.36175,-3.99851 8.82176,-7.53431 14.14972,-11.06032 5.32796,-3.52601 11.52333,-7.04194 16.39149,-9.57405 4.86816,-2.53211 8.4087,-4.08024 12.29874,-5.60584 3.89004,-1.52559 8.12923,-3.02855 12.83377,-4.24179 4.70455,-1.21324 9.87392,-2.13674 14.55399,-2.95188 4.68008,-0.81514 8.86976,-1.52174 13.06034,-2.22849 0,0 260.94462,-0.0744 260.94462,-0.0744 5.50053,1.24613 11.00222,2.49253 16.20489,3.73729 5.20268,1.24475 10.10729,2.48805 16.73923,5.46173 6.63195,2.97369 14.99077,7.67717 22.22511,12.75366 7.23434,5.07649 13.34393,10.52541 18.43671,15.88509 5.09279,5.35967 9.16864,10.62957 12.84537,17.07027 3.67674,6.44071 6.95444,14.05166 9.44763,22.20275 2.49319,8.15108 4.20202,16.84184 4.49036,28.65393 0.28834,11.81209 -0.8435,26.74499 -4.32481,41.17476 -3.48131,14.42978 -9.31169,28.35602 -14.07103,38.34296 -4.75934,9.98695 -8.44741,16.03431 -14.27393,24.01551 -5.82652,7.9812 -13.79121,17.89593 -20.89438,25.59385 -7.10317,7.69792 -13.3446,13.17881 -22.43626,20.2949 -9.09166,7.11608 -21.03323,15.86709 -32.97486,24.61815 9.65506,-0.007 19.31112,-0.0133 27.7508,0.88891 8.43969,0.90225 15.66353,2.71303 22.8069,5.35703 7.14338,2.64399 14.20578,6.12071 19.85967,9.09213 5.65388,2.97143 9.89888,5.43726 14.49128,9.43573 4.5924,3.99846 9.53218,9.52896 13.50166,14.92869 3.96948,5.39973 6.96874,10.66828 9.60799,17.57131 2.63926,6.90302 4.91875,15.44013 6.41881,23.99115 1.50006,8.55103 2.22085,17.11556 1.58129,26.51038 -0.63956,9.39482 -2.63915,19.61965 -5.30816,29.38668 -2.669,9.76704 -6.0072,19.07593 -10.67638,28.78774 -4.66918,9.71182 -10.66907,19.82625 -16.86772,28.39035 -6.19865,8.5641 -12.59585,15.57767 -19.60481,22.15432 -7.00896,6.57664 -14.62944,12.71614 -21.18478,17.3944 -6.55533,4.67826 -12.04537,7.89514 -18.17328,10.58221 -6.1279,2.68708 -12.89358,4.84421 -20.1545,6.8075 -7.26093,1.96328 -15.01748,3.73275 -22.77346,5.50209 0,0 -329.78058,0.11182 -329.78058,0.11182 0,0 112.83755,-119.54219 112.83755,-119.54219 69.85126,0.0218 139.70353,0.0436 175.2322,-0.1244 35.52867,-0.168 36.73504,-0.52558 39.58245,-2.18699 2.84742,-1.66141 7.33607,-4.62654 11.1151,-8.23348 3.77904,-3.60694 6.8486,-7.8558 8.69389,-12.03871 1.8453,-4.18291 2.46624,-8.30026 2.27865,-12.65492 -0.18758,-4.35467 -1.18404,-8.9467 -2.99846,-12.91089 -1.81441,-3.9642 -4.44727,-7.30028 -7.32323,-10.09932 -2.87595,-2.79904 -5.99503,-5.06055 -8.25879,-6.33999 -2.26377,-1.27943 -3.67317,-1.57631 -5.08144,-1.87295 -44.44967,-0.58909 -88.89834,-1.17816 -110.63746,-3.66753 -21.73913,-2.48937 -20.76658,-6.87958 -18.8659,-12.57667 1.90067,-5.69709 4.72938,-12.70046 9.96085,-21.62055 5.23147,-8.9201 12.86529,-19.75604 35.52163,-48.96295 22.65633,-29.20691 60.3335,-76.7826 78.02969,-104.16142 17.69619,-27.37881 15.4103,-34.56044 12.93372,-38.5323 -2.47658,-3.97185 -5.14439,-4.73259 -7.83995,-5.18223 -2.69556,-0.44963 -5.41955,-0.58786 -8.14253,-0.72605 0,0 -353.97152,0.53798 -353.97152,0.53798 0,0 0,-1e-5 0.7318,-2.93575 z"
        id="path372"
      />
      <path
        style="fill:#ac7ef4;fill-opacity:1"
        d="m 532.10242,308.99977 c 27.52157,0.22808 28.14588,0.44613 28.28841,1.27834 0.14252,0.83222 -0.19536,2.27823 -46.96151,58.55281 -46.76616,56.27459 -139.95686,167.37381 -233.1495,278.47535 0,0 110.61969,-332.03959 110.61969,-332.03959 0.0505,-1.43808 0.10091,-2.8752 0.90829,-4.03751 0.80738,-1.16231 2.37123,-2.04767 30.36337,-2.37141 27.99214,-0.32375 82.40968,-0.0861 109.93125,0.14201 z"
        id="path376"
      />
      <path
        style="fill:#18b6f6;fill-opacity:1"
        d="m 235.27262,505.70665 72.82901,-194.39096 26.85067,46.81225 0.0261,8.54347 -38.79465,139.18143 z"
        id="path380"
      />
    </g>
  </svg>