<svg fill="none" height="162" viewBox="0 0 162 162" width="162" xmlns="http://www.w3.org/2000/svg" xmlns:xlink="http://www.w3.org/1999/xlink"><linearGradient id="a" gradientUnits="userSpaceOnUse" x1="35.5" x2="141.5" y1="17" y2="136.5"><stop offset="0" stop-color="#ac7ff4"/><stop offset="1" stop-color="#18b6f6"/></linearGradient><mask id="b" height="156" maskUnits="userSpaceOnUse" width="155" x="4" y="3"><path d="m81.2426 158.018c42.6594 0 77.2424-34.543 77.2424-77.1533 0-42.6106-34.583-77.15327-77.2424-77.15327-42.6599 0-77.2426 34.54267-77.2426 77.15327 0 42.6103 34.5827 77.1533 77.2426 77.1533z" fill="#fff"/></mask><circle cx="81" cy="81" fill="url(#a)" r="81"/><g mask="url(#b)"><path d="m190.296 1.63867h-218.1036v14.87363h218.1036z" fill="#fff"/><path d="m190.296 145.217h-218.1036v14.873h218.1036z" fill="#fff"/><path d="m190.296 16.5164h-218.1036v24.4554h218.1036z" fill="#264697"/><path d="m190.296 120.761h-218.1036v24.456h218.1036z" fill="#264697"/><path d="m190.296 40.9678h-218.1036v79.7932h218.1036z" fill="#fff"/><path d="m101.008 80.9827 9.707-16.9424h-19.4756l-10.0277-17.3958-9.9666 17.3958h-19.3574l9.7073 16.8395-9.7073 16.9424h19.4756l10.0277 17.3958 9.9667-17.3958h19.3573zm.797-11.7762-3.8029 6.5643-3.7838-6.5643zm-6.8086 11.7495-6.7741 11.6963h-13.7695l-6.8504-11.7496 6.7742-11.6962h13.7694zm-13.7542-23.5982 3.8944 6.6825h-7.762zm-20.452 11.8487h7.495l-3.7151 6.4843zm.0076 23.4458 3.8028-6.5644 3.7838 6.5644zm20.5626 11.8487-3.8943-6.6826h7.762zm16.676-18.3331 3.7796 6.4844h-7.4947z" fill="#264697"/></g><path d="m148.734 37.1253-6.666-6.6284-.102.0145v-.0727l-14.176-13.9982 3.493-3.3723-2.052-11.77425-9.738 12.06495c-1.659 1.6716-1.964 4.3899-.771 6.3958l6.084 10.0881c.932 1.5553 2.62 2.4856 4.439 2.4711l3.013-.0291z" fill="#18b6f6"/><path d="m152.373 13.1262-1.339-2.4711-.698-1.26465-.277-.49422-.029.02907-3.668-6.35226c-.917-1.598964-2.634-2.5874179-4.497-2.57288185l-3.217.08721285-9.592.029074c-1.819.014536-3.478.973915-4.395 2.529275l-5.837 11.57068 10.436-12.9516 13.682 15.0303-2.431 2.4566 1.456 11.7596.014-.029v.029h-.029l.029.0291 1.135 1.1048 5.517 5.3928c.233.2181.611-.0436.451-.3197l-3.406-6.7012 5.938-10.9747.19-.218c.072-.0873.145-.1745.203-.2617 1.165-1.5844 1.325-3.7067.364-5.4365z" fill="#ac7ef4"/><path d="m142.984 16.2369-13.725-14.9576 1.95 11.7161-3.493 3.3869 14.22 14.1145-1.281-11.7161z" fill="#fff"/></svg>