<svg fill="none" height="162" viewBox="0 0 158 162" width="158" xmlns="http://www.w3.org/2000/svg" xmlns:xlink="http://www.w3.org/1999/xlink"><linearGradient id="a" gradientUnits="userSpaceOnUse" x1="34.6235" x2="140.907" y1="17" y2="133.861"><stop offset="0" stop-color="#ac7ff4"/><stop offset="1" stop-color="#18b6f6"/></linearGradient><mask id="b" height="155" maskUnits="userSpaceOnUse" width="152" x="3" y="4"><path d="m78.6645 158.589c41.7885 0 75.6645-34.493 75.6645-77.0423 0-42.5495-33.876-77.04279-75.6645-77.04279-41.7883 0-75.6645 34.49329-75.6645 77.04279 0 42.5493 33.8762 77.0423 75.6645 77.0423z" fill="#fff"/></mask><ellipse cx="79" cy="81" fill="url(#a)" rx="79" ry="81"/><g mask="url(#b)"><path d="m159.676 4.38574h-162.02268v154.32226h162.02268z" fill="#fff"/><path d="m106.142 60.181 53.534-48.9299v-6.86536h-3.697l-61.0406 55.79526z" fill="#ba1d2c"/><path d="m103.609 106.017 56.067 51.216v-10.241l-44.864-40.975z" fill="#ba1d2c"/><path d="m-2.34668 16.1466 47.95378 44.0342h11.2073l-59.16108-54.29799z" fill="#ba1d2c"/><path d="m54.2811 106.017-56.62778 51.795v.895h10.22273l57.60835-52.69z" fill="#ba1d2c"/><g fill="#2e2a72"><path d="m148.593 4.38574h-56.7287v51.88256z"/><path d="m66.8078 4.38574h-56.4993l56.4993 51.88256z"/><path d="m159.676 60.1809v-35.4011l-38.482 35.4011z"/><path d="m159.676 141.03v-35.013h-38.482z"/><path d="m13.5146 158.708h53.2928v-48.774z"/><path d="m91.8643 158.708h53.4597l-53.4597-48.774z"/><path d="m-2.34668 106.017v36.59l39.82068-36.59z"/><path d="m-2.34668 60.1808h39.82068l-39.82068-36.6508z"/></g><path d="m71.8196 4.38574v64.96556h-74.16628v27.4995h74.16628v61.8572h15.0325v-61.8572h72.8239v-27.4995h-72.8239v-64.96556z" fill="#ba1d2c"/></g><path d="m141.734 38.1253-6.666-6.6284-.102.0145v-.0727l-14.176-13.9982 3.493-3.3723-2.052-11.77425-9.738 12.06495c-1.659 1.6716-1.964 4.3899-.771 6.3958l6.084 10.0881c.932 1.5553 2.62 2.4856 4.439 2.4711l3.013-.0291z" fill="#18b6f6"/><path d="m145.373 14.1262-1.339-2.4711-.698-1.2646-.277-.49427-.029.02907-3.668-6.35226c-.917-1.59896-2.634-2.587418-4.497-2.57288l-3.217.08721-9.592.02907c-1.819.01454-3.478.97392-4.395 2.52928l-5.837 11.57068 10.436-12.9516 13.682 15.0303-2.431 2.4566 1.456 11.7596.014-.029v.029h-.029l.029.0291 1.135 1.1048 5.517 5.3928c.233.2181.611-.0436.451-.3197l-3.406-6.7012 5.938-10.9747.19-.218c.072-.0873.145-.1745.203-.2617 1.165-1.5844 1.325-3.7067.364-5.4365z" fill="#ac7ef4"/><path d="m135.984 17.2369-13.725-14.9576 1.95 11.7161-3.493 3.3869 14.22 14.1145-1.28-11.7161z" fill="#fff"/></svg>