<svg fill="none" height="162" viewBox="0 0 162 162" width="162" xmlns="http://www.w3.org/2000/svg" xmlns:xlink="http://www.w3.org/1999/xlink"><linearGradient id="a" gradientUnits="userSpaceOnUse" x1="35.5" x2="141.5" y1="17" y2="136.5"><stop offset="0" stop-color="#ac7ff4"/><stop offset="1" stop-color="#18b6f6"/></linearGradient><clipPath id="b"><path d="m-145.7155-36.021805c-5.729-16.176597-16.539-29.564395-30.251-38.631795-5.26001-3.4746-10.94301-6.3168-16.93501-8.43885v145.764745c6.003-2.103 11.687-4.926 16.93501-8.389 13.754-9.071 24.526-22.516 30.281-38.826 2.907-8.2372996 4.383-16.8855996 4.383-25.6978-.004-8.8465-1.488-17.5215-4.413-25.7813zm-47.18601-47.070515v145.764615c-6.9076 2.419-14.2424 3.882-21.829 4.263-1.3083.065-2.6318.1-3.9363.1s-2.628-.035-3.9363-.1c-2.7806-.14-5.5803-.43-8.3151-.864-4.6496-.739-9.1695-1.89-13.5178-3.418v-145.787515c4.3483-1.52775 8.8682-2.67834 13.5178-3.41745 4.024-.64005 8.1434-.96388 12.2514-.96388 8.9444 0 17.6333 1.5468 25.7653 4.42323zm-69.3588 8.96462c-13.3576 9.0903-23.7705 22.310498-29.36221 38.106095-2.92553 8.2636-4.40928 16.9348-4.40928 25.7812 0 8.8160004 1.47231 17.4606004 4.38259 25.6977 5.5879 15.834 16.0123 29.084 29.3927 38.19 5.4887 3.733 11.46951 6.77 17.824 9.002v-145.783495c-6.35449 2.2326-12.3391 5.2728-17.8278 9.0065z"/></clipPath><circle cx="81" cy="81" fill="url(#a)" r="81"/><g clip-path="url(#b)" stroke-width="26.1841" transform="translate(299.66715 91.339425)"><path d="m-329.24683-88.493011h238.3477v155.32971h-238.3477z" fill="#21468b"/><path d="m-329.24683-88.493011h238.3477v103.55314h-238.3477z" fill="#fff"/><path d="m-329.24683-88.493011h238.3477v51.776566h-238.3477z" fill="#ae1c28"/></g><path d="m149.734 37.1253-6.666-6.6284-.102.0145v-.0727l-14.176-13.9982 3.493-3.3723-2.052-11.77425-9.738 12.06495c-1.659 1.6716-1.964 4.3899-.771 6.3958l6.084 10.0881c.932 1.5553 2.62 2.4856 4.439 2.4711l3.013-.0291z" fill="#18b6f6"/><path d="m153.373 13.1262-1.339-2.4711-.698-1.26465-.277-.49422-.029.02907-3.668-6.35226c-.917-1.598964-2.634-2.5874179-4.497-2.57288185l-3.217.08721285-9.592.029074c-1.819.014536-3.478.973915-4.395 2.529275l-5.837 11.57068 10.436-12.9516 13.682 15.0303-2.431 2.4566 1.456 11.7596.014-.029v.029h-.029l.029.0291 1.135 1.1048 5.517 5.3928c.233.2181.611-.0436.451-.3197l-3.406-6.7012 5.938-10.9747.19-.218c.072-.0873.145-.1745.203-.2617 1.165-1.5844 1.325-3.7067.364-5.4365z" fill="#ac7ef4"/><path d="m143.984 16.2369-13.725-14.9576 1.95 11.7161-3.493 3.3869 14.22 14.1145-1.281-11.7161z" fill="#fff"/></svg>