<svg fill="none" height="162" viewBox="0 0 162 162" width="162" xmlns="http://www.w3.org/2000/svg" xmlns:xlink="http://www.w3.org/1999/xlink">
    <linearGradient id="a" gradientUnits="userSpaceOnUse" x1="35.5" x2="141.5" y1="17" y2="136.5">
        <stop offset="0" stop-color="#ac7ff4"/>
        <stop offset="1" stop-color="#18b6f6"/>
    </linearGradient>
    <circle cx="81" cy="81" fill="url(#a)" r="81"/>
    
    <circle cx="81" cy="81" r="77"  fill="red" />
    <path fill="none" stroke="#006233" stroke-width="7" d="m81 40 30 92-78-57h96L51 132z"/>

    
    <path d="m149.734 37.1253-6.666-6.6284-.102.0145v-.0727l-14.176-13.9982 3.493-3.3723-2.052-11.77425-9.738 12.06495c-1.659 1.6716-1.964 4.3899-.771 6.3958l6.084 10.0881c.932 1.5553 2.62 2.4856 4.439 2.4711l3.013-.0291z" fill="#18b6f6"/>
    <path d="m153.373 13.1262-1.339-2.4711-.698-1.26465-.277-.49422-.029.02907-3.668-6.35226c-.917-1.598964-2.634-2.5874179-4.497-2.57288185l-3.217.08721285-9.592.029074c-1.819.014536-3.478.973915-4.395 2.529275l-5.837 11.57068 10.436-12.9516 13.682 15.0303-2.431 2.4566 1.456 11.7596.014-.029v.029h-.029l.029.0291 1.135 1.1048 5.517 5.3928c.233.2181.611-.0436.451-.3197l-3.406-6.7012 5.938-10.9747.19-.218c.072-.0873.145-.1745.203-.2617 1.165-1.5844 1.325-3.7067.364-5.4365z" fill="#ac7ef4"/>
    <path d="m143.984 16.2369-13.725-14.9576 1.95 11.7161-3.493 3.3869 14.22 14.1145-1.281-11.7161z" fill="#fff"/>
</svg>

