<svg height="256" viewBox="0 0 256 256" width="256" xmlns="http://www.w3.org/2000/svg"><g fill="none" stroke-miterlimit="10" stroke-width="0" transform="matrix(2.81 0 0 2.81 1.406593 1.406593)"><circle cx="45" cy="45" fill="#ff4500" r="45"/><path d="m75.011 45c-.134-3.624-3.177-6.454-6.812-6.331-1.611.056-3.143.716-4.306 1.823-5.123-3.49-11.141-5.403-17.327-5.537l2.919-14.038 9.631 2.025c.268 2.472 2.483 4.262 4.955 3.993 2.472-.268 4.262-2.483 3.993-4.955s-2.483-4.262-4.955-3.993c-1.421.145-2.696.973-3.4 2.204l-11.029-2.204c-.749-.168-1.499.302-1.667 1.063v.022l-3.322 15.615c-6.264.101-12.36 2.025-17.55 5.537-2.64-2.483-6.801-2.36-9.284.291-2.483 2.64-2.36 6.801.291 9.284.515.481 1.107.895 1.767 1.186-.045.66-.045 1.32 0 1.98 0 10.078 11.745 18.277 26.23 18.277s26.23-8.188 26.23-18.277c.045-.66.045-1.32 0-1.98 2.26-1.13 3.681-3.457 3.636-5.985zm-45 4.508c0-2.483 2.025-4.508 4.508-4.508s4.508 2.025 4.508 4.508-2.025 4.508-4.508 4.508c-2.494-.023-4.508-2.025-4.508-4.508zm26.141 12.55v-.179c-3.199 2.405-7.114 3.635-11.119 3.468-4.005.168-7.919-1.063-11.119-3.468-.425-.515-.347-1.286.168-1.711.447-.369 1.085-.369 1.544 0 2.707 1.98 6.007 2.987 9.362 2.83 3.356.179 6.667-.783 9.407-2.74.492-.481 1.297-.47 1.779.022.481.492.47 1.297-.022 1.778zm-.615-7.718c-.078 0-.145 0-.224 0l.034-.168c-2.483 0-4.508-2.025-4.508-4.508s2.025-4.508 4.508-4.508 4.508 2.025 4.508 4.508c.1 2.484-1.835 4.575-4.318 4.676z" fill="#fff"/></g></svg>