<svg height="32" viewBox="0 0 32 32" width="32" xmlns="http://www.w3.org/2000/svg" xmlns:xlink="http://www.w3.org/1999/xlink"><radialGradient id="a" cx="0" cy="0" gradientTransform="matrix(7.52114 -2.73117 .46436 1.27875 2.398 17.063)" gradientUnits="userSpaceOnUse" r="1"><stop offset=".164" stop-color="#ff8db0"/><stop offset="1" stop-color="#ff8db0" stop-opacity="0"/></radialGradient><radialGradient id="b" cx="0" cy="0" gradientTransform="matrix(.46874945 7.62467471 -6.57364903 .40413454 14.579523 22.202632)" gradientUnits="userSpaceOnUse" r="1"><stop offset=".757" stop-color="#e76cbe" stop-opacity="0"/><stop offset=".951" stop-color="#e76cbe"/></radialGradient><radialGradient id="c" cx="0" cy="0" gradientTransform="matrix(2.84378 -4.43748 1.94916 1.24913 13.454 26.234)" gradientUnits="userSpaceOnUse" r="1"><stop offset="0" stop-color="#ff5898"/><stop offset="1" stop-color="#ff5898" stop-opacity="0"/></radialGradient><radialGradient id="d" cx="0" cy="0" gradientTransform="matrix(-13.22128 -10.16449 19.10663 -24.85262 23.97 21.577)" gradientUnits="userSpaceOnUse" r="1"><stop offset=".811" stop-color="#e7e5e5" stop-opacity="0"/><stop offset="1" stop-color="#e7e5e5"/></radialGradient><radialGradient id="e" cx="0" cy="0" gradientTransform="matrix(5.34972 -8.21554 3.86123 2.51432 9.181 21.31)" gradientUnits="userSpaceOnUse" r="1"><stop offset=".281" stop-color="#b5a3a5"/><stop offset="1" stop-color="#b5a3a5" stop-opacity="0"/></radialGradient><radialGradient id="f" cx="0" cy="0" gradientTransform="matrix(2.45024506 -8.33864994 1.41296298 .41518778 6.344321 20.090773)" gradientUnits="userSpaceOnUse" r="1"><stop offset=".208" stop-color="#b28f96"/><stop offset="1" stop-color="#b28f96" stop-opacity="0"/></radialGradient><radialGradient id="g" cx="0" cy="0" gradientTransform="matrix(-9.68 8.93746 -2.77498 -3.00553 27.11 7.11)" gradientUnits="userSpaceOnUse" r="1"><stop offset="0" stop-color="#faecf1"/><stop offset="1" stop-color="#faecf1" stop-opacity="0"/></radialGradient><radialGradient id="h" cx="0" cy="0" gradientTransform="matrix(0 3.35938 -3.35938 0 21.142 11.062)" gradientUnits="userSpaceOnUse" r="1"><stop offset=".587" stop-color="#93859b"/><stop offset="1" stop-color="#93859b" stop-opacity="0"/></radialGradient><radialGradient id="i" cx="0" cy="0" gradientTransform="matrix(0 -4.84559 4.45626 0 21.14 13.388)" gradientUnits="userSpaceOnUse" r="1"><stop offset="0" stop-color="#72cdff"/><stop offset=".738" stop-color="#66acff"/><stop offset="1" stop-color="#3b57f4"/></radialGradient><radialGradient id="j" cx="0" cy="0" gradientTransform="matrix(-4.10578 4.10578 -3.22724 -3.22724 8.191 24.247)" gradientUnits="userSpaceOnUse" r="1"><stop offset="0" stop-color="#d46213"/><stop offset="1" stop-color="#ff9542"/></radialGradient><radialGradient id="k" cx="0" cy="0" gradientTransform="matrix(-4.72447 -5.39938 5.69005 -4.9788 8.304 28.97)" gradientUnits="userSpaceOnUse" r="1"><stop offset=".871" stop-color="#ffc484" stop-opacity="0"/><stop offset="1" stop-color="#ffc484"/></radialGradient><radialGradient id="l" cx="0" cy="0" gradientTransform="matrix(.34375 1.59375 -1.40812 .30371 6.83 21.453)" gradientUnits="userSpaceOnUse" r="1"><stop offset="0" stop-color="#8e839a"/><stop offset="1" stop-color="#8e839a" stop-opacity="0"/></radialGradient><radialGradient id="m" cx="0" cy="0" gradientTransform="matrix(4.16202 4.61197 -2.4175 2.18165 7.207 22.418)" gradientUnits="userSpaceOnUse" r="1"><stop offset=".86" stop-color="#6175b9" stop-opacity="0"/><stop offset="1" stop-color="#6175b9"/></radialGradient><radialGradient id="n" cx="0" cy="0" gradientTransform="matrix(-5.83134699 5.83134699 -1.39985929 -1.39985929 28.738971 4.347928)" gradientUnits="userSpaceOnUse" r="1"><stop offset=".189" stop-color="#ff5971"/><stop offset="1" stop-color="#ff5971" stop-opacity="0"/></radialGradient><radialGradient id="o" cx="0" cy="0" gradientTransform="matrix(6.96875 -2.65623 .69538 1.82436 6.236 19.422)" gradientUnits="userSpaceOnUse" r="1"><stop offset="0" stop-color="#ff95af"/><stop offset="1" stop-color="#ff95af" stop-opacity="0"/></radialGradient><radialGradient id="p" cx="0" cy="0" gradientTransform="matrix(3.27669 3.24305 -.95797 .9679 5.398 20.308)" gradientUnits="userSpaceOnUse" r="1"><stop offset=".382" stop-color="#e14678"/><stop offset="1" stop-color="#e14678" stop-opacity="0"/></radialGradient><radialGradient id="q" cx="0" cy="0" gradientTransform="matrix(.6875 7.375 -7.85914 .73263 11.58 19.14)" gradientUnits="userSpaceOnUse" r="1"><stop offset=".832" stop-color="#e67bc7" stop-opacity="0"/><stop offset="1" stop-color="#e67bc7"/></radialGradient><linearGradient id="r" gradientUnits="userSpaceOnUse" x1="8.111" x2="3.111" y1="17.308" y2="16.484"><stop offset="0" stop-color="#ee2452"/><stop offset="1" stop-color="#f63e7a"/></linearGradient><linearGradient id="s" gradientUnits="userSpaceOnUse" x1="4.905" x2="5.72" y1="19.733" y2="18.938"><stop offset=".491" stop-color="#dd467c"/><stop offset="1" stop-color="#dd467c" stop-opacity="0"/></linearGradient><linearGradient id="t" gradientUnits="userSpaceOnUse" x1="17.892" x2="11.674" y1="21.672" y2="26.551"><stop offset="0" stop-color="#f83267"/><stop offset="1" stop-color="#ff3190"/></linearGradient><linearGradient id="u" gradientUnits="userSpaceOnUse" x1="13.486" x2="22.298" y1="8.672" y2="17.547"><stop offset="0" stop-color="#ccbbc0"/><stop offset="1" stop-color="#ead2ec"/></linearGradient><linearGradient id="v" gradientUnits="userSpaceOnUse" x1="17.781" x2="24.5" y1="10.491" y2="11.062"><stop offset="0" stop-color="#a796a0"/><stop offset="1" stop-color="#a5959f"/></linearGradient><linearGradient id="w" gradientUnits="userSpaceOnUse" x1="5.798" x2="11.298" y1="21.953" y2="27.359"><stop offset="0" stop-color="#452860"/><stop offset="1" stop-color="#51509f"/></linearGradient><linearGradient id="x" gradientUnits="userSpaceOnUse" x1="29.177" x2="25.501" y1="2.876" y2="6.552"><stop offset="0" stop-color="#ff3745"/><stop offset="1" stop-color="#ed224b"/></linearGradient><linearGradient id="y" gradientUnits="userSpaceOnUse" x1="25.822" x2="26.189" y1="6.797" y2="6.414"><stop offset="0" stop-color="#d2575e"/><stop offset="1" stop-color="#f93251" stop-opacity="0"/></linearGradient><linearGradient id="z" gradientUnits="userSpaceOnUse" x1="15.16" x2="8.674" y1="17.065" y2="23.551"><stop offset="0" stop-color="#ff2644"/><stop offset="1" stop-color="#ff2982"/></linearGradient><linearGradient id="A" gradientUnits="userSpaceOnUse" x1="13.986" x2="9.861" y1="18.109" y2="22.422"><stop offset="0" stop-color="#ff5970"/><stop offset="1" stop-color="#ff5794"/></linearGradient><filter id="B" color-interpolation-filters="sRGB" filterUnits="userSpaceOnUse" height="22.659" width="22.396" x="6.095" y="3.04"><feFlood flood-opacity="0" result="BackgroundImageFix"/><feBlend in="SourceGraphic" in2="BackgroundImageFix" result="shape"/><feColorMatrix in="SourceAlpha" result="hardAlpha" values="0 0 0 0 0 0 0 0 0 0 0 0 0 0 0 0 0 0 127 0"/><feOffset dx="-.25" dy="-.5"/><feGaussianBlur stdDeviation=".75"/><feComposite in2="hardAlpha" k2="-1" k3="1" operator="arithmetic"/><feColorMatrix values="0 0 0 0 0.745098 0 0 0 0 0.772549 0 0 0 0 0.952941 0 0 0 1 0"/><feBlend in2="shape" result="effect1_innerShadow_18_13076"/></filter><filter id="C" color-interpolation-filters="sRGB" filterUnits="userSpaceOnUse" height="8.719" width="8.719" x="16.781" y="6.953"><feFlood flood-opacity="0" result="BackgroundImageFix"/><feColorMatrix in="SourceAlpha" result="hardAlpha" values="0 0 0 0 0 0 0 0 0 0 0 0 0 0 0 0 0 0 127 0"/><feOffset dy=".25"/><feGaussianBlur stdDeviation=".5"/><feComposite in2="hardAlpha" operator="out"/><feColorMatrix values="0 0 0 0 0.866667 0 0 0 0 0.764706 0 0 0 0 0.847059 0 0 0 1 0"/><feBlend in2="BackgroundImageFix" result="effect1_dropShadow_18_13076"/><feBlend in="SourceGraphic" in2="effect1_dropShadow_18_13076" result="shape"/><feColorMatrix in="SourceAlpha" result="hardAlpha" values="0 0 0 0 0 0 0 0 0 0 0 0 0 0 0 0 0 0 127 0"/><feOffset dx="-.1" dy=".1"/><feGaussianBlur stdDeviation=".05"/><feComposite in2="hardAlpha" k2="-1" k3="1" operator="arithmetic"/><feColorMatrix values="0 0 0 0 0.721569 0 0 0 0 0.690196 0 0 0 0 0.701961 0 0 0 1 0"/><feBlend in2="shape" result="effect2_innerShadow_18_13076"/><feColorMatrix in="SourceAlpha" result="hardAlpha" values="0 0 0 0 0 0 0 0 0 0 0 0 0 0 0 0 0 0 127 0"/><feOffset dx=".1" dy="-.1"/><feGaussianBlur stdDeviation=".05"/><feComposite in2="hardAlpha" k2="-1" k3="1" operator="arithmetic"/><feColorMatrix values="0 0 0 0 0.615686 0 0 0 0 0.560784 0 0 0 0 0.65098 0 0 0 1 0"/><feBlend in2="effect2_innerShadow_18_13076" result="effect3_innerShadow_18_13076"/></filter><filter id="D" color-interpolation-filters="sRGB" filterUnits="userSpaceOnUse" height="7.217" width="7.574" x="2.088" y="22.413"><feFlood flood-opacity="0" result="BackgroundImageFix"/><feBlend in="SourceGraphic" in2="BackgroundImageFix" result="shape"/><feColorMatrix in="SourceAlpha" result="hardAlpha" values="0 0 0 0 0 0 0 0 0 0 0 0 0 0 0 0 0 0 127 0"/><feOffset dy="-.2"/><feGaussianBlur stdDeviation=".2"/><feComposite in2="hardAlpha" k2="-1" k3="1" operator="arithmetic"/><feColorMatrix values="0 0 0 0 0.847059 0 0 0 0 0.505882 0 0 0 0 0.360784 0 0 0 1 0"/><feBlend in2="shape" result="effect1_innerShadow_18_13076"/></filter><filter id="E" color-interpolation-filters="sRGB" filterUnits="userSpaceOnUse" height="8.438" width="7.625" x="8.205" y="16.64"><feFlood flood-opacity="0" result="BackgroundImageFix"/><feBlend in="SourceGraphic" in2="BackgroundImageFix" result="shape"/><feGaussianBlur result="effect1_foregroundBlur_18_13076" stdDeviation=".5"/></filter><clipPath id="F"><path d="m0 0h32v32h-32z"/></clipPath><g clip-path="url(#F)" fill="none"><path d="m10.582 13.718c1.2-.442 2.367.725 1.925 1.926l-2.617 7.114a1 1 0 0 1 -1.646.362l-5.138-5.138a1 1 0 0 1 .362-1.645l7.114-2.62z" fill="url(#r)"/><path d="m10.582 13.718c1.2-.442 2.367.725 1.925 1.926l-2.617 7.114a1 1 0 0 1 -1.646.362l-5.138-5.138a1 1 0 0 1 .362-1.645l7.114-2.62z" fill="url(#a)"/><path d="m10.582 13.718c1.2-.442 2.367.725 1.925 1.926l-2.617 7.114a1 1 0 0 1 -1.646.362l-5.138-5.138a1 1 0 0 1 .362-1.645l7.114-2.62z" fill="url(#s)"/><path d="m16.581 19.718c1.201-.442 2.368.725 1.926 1.926l-2.619 7.114a1 1 0 0 1 -1.645.362l-5.138-5.138a1 1 0 0 1 .362-1.645l7.114-2.62z" fill="url(#t)"/><path d="m16.581 19.718c1.201-.442 2.368.725 1.926 1.926l-2.619 7.114a1 1 0 0 1 -1.645.362l-5.138-5.138a1 1 0 0 1 .362-1.645l7.114-2.62z" fill="url(#b)"/><path d="m16.581 19.718c1.201-.442 2.368.725 1.926 1.926l-2.619 7.114a1 1 0 0 1 -1.645.362l-5.138-5.138a1 1 0 0 1 .362-1.645l7.114-2.62z" fill="url(#c)"/><g filter="url(#B)"><path d="m22.4 3.55a.15.15 0 0 1 .162.034l5.885 5.93a.15.15 0 0 1 .033.162c-1.41 3.46-3.353 7.14-5.954 9.742-2.534 2.534-6.82 4.693-10.69 6.281l-5.491-5.492c1.588-3.87 3.747-8.155 6.281-10.689 2.61-2.61 6.304-4.557 9.773-5.967z" fill="url(#u)"/><path d="m22.4 3.55a.15.15 0 0 1 .162.034l5.885 5.93a.15.15 0 0 1 .033.162c-1.41 3.46-3.353 7.14-5.954 9.742-2.534 2.534-6.82 4.693-10.69 6.281l-5.491-5.492c1.588-3.87 3.747-8.155 6.281-10.689 2.61-2.61 6.304-4.557 9.773-5.967z" fill="url(#d)"/><path d="m22.4 3.55a.15.15 0 0 1 .162.034l5.885 5.93a.15.15 0 0 1 .033.162c-1.41 3.46-3.353 7.14-5.954 9.742-2.534 2.534-6.82 4.693-10.69 6.281l-5.491-5.492c1.588-3.87 3.747-8.155 6.281-10.689 2.61-2.61 6.304-4.557 9.773-5.967z" fill="url(#e)"/><path d="m22.4 3.55a.15.15 0 0 1 .162.034l5.885 5.93a.15.15 0 0 1 .033.162c-1.41 3.46-3.353 7.14-5.954 9.742-2.534 2.534-6.82 4.693-10.69 6.281l-5.491-5.492c1.588-3.87 3.747-8.155 6.281-10.689 2.61-2.61 6.304-4.557 9.773-5.967z" fill="url(#f)"/><path d="m22.4 3.55a.15.15 0 0 1 .162.034l5.885 5.93a.15.15 0 0 1 .033.162c-1.41 3.46-3.353 7.14-5.954 9.742-2.534 2.534-6.82 4.693-10.69 6.281l-5.491-5.492c1.588-3.87 3.747-8.155 6.281-10.689 2.61-2.61 6.304-4.557 9.773-5.967z" fill="url(#g)"/></g><g filter="url(#C)"><path d="m24.5 11.062a3.36 3.36 0 1 1 -6.719 0 3.36 3.36 0 0 1 6.719 0z" fill="url(#v)"/><path d="m24.5 11.062a3.36 3.36 0 1 1 -6.719 0 3.36 3.36 0 0 1 6.719 0z" fill="url(#h)"/></g><path d="m23.466 11.062a2.326 2.326 0 1 1 -4.651 0 2.326 2.326 0 0 1 4.651 0z" fill="url(#i)"/><g filter="url(#D)"><path d="m2.423 29.533c-.707-.707-.423-5.611 2.077-6.611 0 0 2.5-1 4.111.6s.889 3.4.889 3.4c-.707 2.121-3.717 2.964-4.071 2.61-.195-.195.156-.55 0-.706-.156-.157-.398.022-1.06.353-.472.236-1.663.637-1.946.354z" fill="url(#j)"/><path d="m2.423 29.533c-.707-.707-.423-5.611 2.077-6.611 0 0 2.5-1 4.111.6s.889 3.4.889 3.4c-.707 2.121-3.717 2.964-4.071 2.61-.195-.195.156-.55 0-.706-.156-.157-.398.022-1.06.353-.472.236-1.663.637-1.946.354z" fill="url(#k)"/></g><path d="m6.06 20.982a1.5 1.5 0 0 1 2.122 0l3.535 3.536a1.5 1.5 0 0 1 -2.12 2.121l-3.537-3.535a1.5 1.5 0 0 1 0-2.122z" fill="url(#w)"/><path d="m6.06 20.982a1.5 1.5 0 0 1 2.122 0l3.535 3.536a1.5 1.5 0 0 1 -2.12 2.121l-3.537-3.535a1.5 1.5 0 0 1 0-2.122z" fill="url(#l)"/><path d="m6.06 20.982a1.5 1.5 0 0 1 2.122 0l3.535 3.536a1.5 1.5 0 0 1 -2.12 2.121l-3.537-3.535a1.5 1.5 0 0 1 0-2.122z" fill="url(#m)"/><path d="m29.172 2.871c-.947-.947-2.608-.84-3.818-.424a57.55 57.55 0 0 0 -2.714 1.007.1.1 0 0 0 -.034.163l5.81 5.849a.1.1 0 0 0 .162-.033 57.54 57.54 0 0 0 1.019-2.743c.41-1.194.74-2.654-.425-3.819z" fill="url(#x)"/><path d="m29.172 2.871c-.947-.947-2.608-.84-3.818-.424a57.55 57.55 0 0 0 -2.714 1.007.1.1 0 0 0 -.034.163l5.81 5.849a.1.1 0 0 0 .162-.033 57.54 57.54 0 0 0 1.019-2.743c.41-1.194.74-2.654-.425-3.819z" fill="url(#n)"/><path d="m29.172 2.871c-.947-.947-2.608-.84-3.818-.424a57.55 57.55 0 0 0 -2.714 1.007.1.1 0 0 0 -.034.163l5.81 5.849a.1.1 0 0 0 .162-.033 57.54 57.54 0 0 0 1.019-2.743c.41-1.194.74-2.654-.425-3.819z" fill="url(#y)"/><path d="m13.582 16.718c1.2-.442 2.367.725 1.925 1.926l-2.618 7.114a1 1 0 0 1 -1.646.362l-5.138-5.138a1 1 0 0 1 .362-1.645l7.115-2.62z" fill="url(#z)"/><path d="m13.582 16.718c1.2-.442 2.367.725 1.925 1.926l-2.618 7.114a1 1 0 0 1 -1.646.362l-5.138-5.138a1 1 0 0 1 .362-1.645l7.115-2.62z" fill="url(#o)"/><path d="m13.582 16.718c1.2-.442 2.367.725 1.925 1.926l-2.618 7.114a1 1 0 0 1 -1.646.362l-5.138-5.138a1 1 0 0 1 .362-1.645l7.115-2.62z" fill="url(#p)"/><path d="m13.582 16.718c1.2-.442 2.367.725 1.925 1.926l-2.618 7.114a1 1 0 0 1 -1.646.362l-5.138-5.138a1 1 0 0 1 .362-1.645l7.115-2.62z" fill="url(#q)"/><g filter="url(#E)"><path d="m9.205 22.047 5.625-4.407-3.625 6.438z" fill="url(#A)"/></g></g></svg>