<svg height="32" viewBox="0 0 64 64" width="32" xmlns="http://www.w3.org/2000/svg"><path d="m38.478 42.632c-4.644-1.466-3.322-2.633 1.11-4.298 2.123-.799.832-2.484.89-3.832.026-.617 2.452-.494 2.276-2.874-.124-1.676-3.816-4.064-4.822-5.083-.581-.588 1.184-2.197-.059-3.612-1.697-1.934-1.965-5.299-2.992-7.181 0 0 .783-1.196.183-1.876-5.176-5.859-24.491-5.321-29.427 3.302-5.541 9.68-5.615 23.059 5.906 30.267 5.124 3.205-1.439 14.555-1.439 14.555h20.319c0-1.938-2.266-8.89 1.7-8.578 3.446.271 7.666.122 7.292-3.77-.113-1.174-.246-2.231.574-3.204.82-.972 2.007-2.706-1.511-3.816m4.651-1.827 18.871 2.472v-4.943zm15.331 16.276 2.024-4.281-17.355-9.368zm2.024-28.315-2.024-4.282-15.331 13.651z" fill="#fff"/></svg>