<svg preserveAspectRatio="xMidYMid meet" viewBox="10 0 108 128" xmlns="http://www.w3.org/2000/svg" xmlns:xlink="http://www.w3.org/1999/xlink"><radialGradient id="a" cx="63.667" cy="67.667" gradientTransform="matrix(0 1 -1.5658 0 169.62 4)" gradientUnits="userSpaceOnUse" r="26.685"><stop offset="0" stop-color="#be5d23"/><stop offset=".158" stop-color="#b65b25"/><stop offset=".407" stop-color="#9f552a"/><stop offset=".715" stop-color="#7a4c33"/><stop offset=".999" stop-color="#52423c"/></radialGradient><linearGradient id="b" gradientUnits="userSpaceOnUse" x1="22.114" x2="102.08" y1="61.979" y2="61.979"><stop offset="0" stop-color="#ff85ae"/><stop offset=".317" stop-color="#ff7da9"/><stop offset=".816" stop-color="#ff669a"/><stop offset="1" stop-color="#ff5c93"/></linearGradient><linearGradient id="c" gradientUnits="userSpaceOnUse" x1="21.117" x2="99.384" y1="47.691" y2="47.691"><stop offset=".003" stop-color="#ffb0cb"/><stop offset=".792" stop-color="#f383a9"/><stop offset="1" stop-color="#f0769f"/></linearGradient><linearGradient id="d" gradientUnits="userSpaceOnUse" x1="55.086" x2="87.012" y1="24.14" y2="24.14"><stop offset="0" stop-color="#f697b7"/><stop offset=".335" stop-color="#f78fb2"/><stop offset=".862" stop-color="#f878a3"/><stop offset="1" stop-color="#f9719f"/></linearGradient><linearGradient id="e" gradientUnits="userSpaceOnUse" x1="23.961" x2="95.222" y1="40.522" y2="40.522"><stop offset="0" stop-color="#f78fb2"/><stop offset=".272" stop-color="#f887ad"/><stop offset=".703" stop-color="#fc709f"/><stop offset="1" stop-color="#ff5c93"/></linearGradient><linearGradient id="f" gradientUnits="userSpaceOnUse" x1="64" x2="64" y1="83" y2="119.62"><stop offset="0" stop-color="#4fe8ff"/><stop offset=".497" stop-color="#4bddf3"/><stop offset="1" stop-color="#45cee3"/></linearGradient><path d="m109.94 69.11c-.23.11-.46.25-.69.39-.01-1.46-.78-2.17-1.32-2.94-2.6-3.72-7.62-2.31-9.1 1.11-.2.47 3.06 4.72 2.92 5.18-2.16.97-4.24 3.2-4.66 5.15.43-2.01-1.07-2.95-3.34-2.2s-4.42 2.91-4.73 4.91c.32-2-1.3-3.09-3.62-2.53s-4.39 2.55-4.6 4.54c.21-1.99-1.53-3.24-3.87-2.89s-4.34 2.17-4.44 4.15c.09-1.99-1.75-3.4-4.11-3.27s-4.27 1.77-4.25 3.76c-.02-1.98-1.96-3.58-4.32-3.66s-4.18 1.37-4.05 3.36c-.13-1.99-2.17-3.76-4.51-4.06-2.35-.3-4.06.98-3.82 2.97-.24-1.99-2.36-3.94-4.68-4.45s-3.92.61-3.57 2.61c-.35-1.99-2.54-4.11-4.83-4.82-2.29-.7-3.77.27-3.3 2.27-.46-2-5.51-10.45-6.06-11.7-1.48-3.42-4.33-4.5-6.77-2.28-1 .91-1.62 2.56-1.11 4.99-1.59-.44-2.38.33-1.8 2.02 3.17 9.26 6.3 18.68 8.9 28.15 1.11 4.05 2.26 9.3 5.52 12.32 2.34 2.16 5.26 3.66 8.07 4.87 8.39 3.6 17.7 4.7 26.37 4.76 9.28.06 21.08-2.18 29.29-6.85 3.11-1.76 6.07-3.81 7.46-7.26 2.29-5.72 3.95-11.72 5.7-17.46 1.99-6.52 3.49-13.44 6.07-19.53.64-2-.58-2.69-2.75-1.61z" fill="#48a2ad"/><ellipse cx="63.86" cy="77.31" fill="url(#a)" rx="45.01" ry="18.09"/><path d="m102.08 51.48c-.84-.85-1.87-1.65-3.1-2.35 0 0-28.68 9.33-48.64 8.32s-17.02-3.19-27.16 3.27c0 0-2.77 3.96.61 6.37 4.42 3.15 10 5.75 16.12 7.73.74-.54 1.48-.88 2.11-.88 19.03-6.61 56.05 1.77 60.06-22.46z" fill="url(#b)"/><path d="m102.08 51.48c-4.01 24.23-41.03 15.85-60.05 22.46-.63 0-1.37.33-2.11.88 15.35 4.96 34.13 5.97 46.67 1.8 15.75-5.22 22.86-17.67 15.49-25.14z" fill="#eb5e8e"/><path d="m93.95 33.63s5.43 3.22 5.43 11.55-6.93 19.13-37.68 16.04c-30.48-3.07-38.35-.47-38.35-.47s-9.34-12.68 10.18-12.61c17.47.06 43.45 2.12 49.57-1.76 9.11-5.8 9.45-5.96 10.85-12.75z" fill="url(#c)"/><path d="m58.45 27.44c9.46-5.91 8.95-14.5 4.44-21.81-.49.28-.78.87-.53 1.48.99 2.38 1.87 5.74.27 8-2.71 3.82-7.73 4.79-15.94 9.37-7.83 4.36-10.84 8.52-11.39 13.74-.05.49.23.96.69 1.19.88.44 2.56 1.16 5.1 1.82 2.76-6.83 11.07-10.65 17.36-13.79z" fill="#f77ca5"/><path d="m79.09 16.45c-4.23-4.56-9.23-8.28-15.02-10.88-.42-.19-.85-.13-1.19.06 4.51 7.3 5.02 15.89-4.44 21.81-6.28 3.14-14.59 6.96-17.36 13.79 2.76.72 6.54 1.37 11.46 1.52 12.06.36 28.31-.3 31.07-5.03 2.77-4.72.46-15.9-4.52-21.27z" fill="url(#d)"/><path d="m93.1 32c.23-.58.4-1.18.52-1.78-3.24-4.96-10.82-6.48-10.82-6.48 8.22 17.5-34.56 13.69-46.68 14.41-5.16.31-8.12 2.58-9.83 5.1 2.53-1.32 5.49-2.05 8.46-3.04 19.14-4.56 50.14 14.59 58.35-8.21z" fill="#f79ebc"/><path d="m94.82 32.96a8.561 8.561 0 0 0 -1.2-2.74c-.12.61-.29 1.2-.52 1.78-8.21 22.8-39.21 3.65-58.36 8.21-2.96.99-5.93 1.71-8.46 3.04-2.31 3.39-2.32 7.21-2.32 7.21 12.47-3.78 21.67.02 45.64.37 23.97.33 26.94-10.71 25.22-17.87z" fill="url(#e)"/><path d="m109.96 76.04c-2.19 1.02-4.48 3.36-5.05 5.31.58-1.95-.77-2.78-3.01-1.95-2.25.83-4.49 2.98-4.96 4.89.47-1.91-1.01-2.86-3.3-2.22s-4.48 2.61-4.83 4.49c.36-1.88-1.24-2.96-3.56-2.51s-4.44 2.25-4.68 4.11c.25-1.86-1.47-3.08-3.81-2.82-2.35.26-4.38 1.9-4.51 3.74.13-1.84-1.68-3.21-4.04-3.14s-4.3 1.55-4.32 3.39c.02-1.84-1.89-3.36-4.25-3.48-2.35-.12-4.2 1.21-4.1 3.06-.09-1.85-2.09-3.52-4.44-3.83-2.34-.31-4.08.88-3.87 2.74-.21-1.86-2.28-3.71-4.6-4.2s-3.93.55-3.62 2.44c-.32-1.89-2.46-3.9-4.74-4.59s-3.77.24-3.34 2.16c-.43-1.92-2.63-4.12-4.86-4.99s-3.59-.07-3.05 1.89c-.54-1.96-2.78-4.35-4.95-5.41s-3.39-.37-2.75 1.64c2.58 6.06 4.09 12.85 6.08 19.13 1.76 5.53 3.42 11.26 5.72 16.59 1.39 3.22 4.33 4.92 7.47 6.34 8.99 4.05 19.49 5.1 29.23 5.19 8.8.09 17.92-.68 26.31-3.47 2.82-.94 5.74-2.11 8.08-3.98 3.27-2.61 4.42-7.6 5.54-11.46 2.67-9.24 5.82-18.25 8.92-27.35.68-2.02-.52-2.73-2.71-1.71z" fill="url(#f)"/><circle cx="36.75" cy="49.25" fill="#b8eb96" r="2"/><circle cx="49.75" cy="56.5" fill="#ebd3db" r="2"/><circle cx="37.25" cy="64" fill="#eb5e8e" r="2"/><circle cx="52" cy="34.5" fill="#3dc2eb" r="2"/><circle cx="62.75" cy="48.25" fill="#ffa600" r="2"/><circle cx="95.5" cy="63.25" fill="#79eb2d" r="2"/><circle cx="71" cy="27.25" fill="#fff000" r="2"/><circle cx="81.5" cy="50.5" fill="#8052ff" r="2"/><circle cx="86.5" cy="35.5" fill="#5eebb3" r="2"/><circle cx="72.25" cy="65.75" fill="#a45eeb" r="2"/><g style="fill:none;stroke:#49a5b0;stroke-linecap:round;stroke-linejoin:round;stroke-miterlimit:10;stroke-width:3"><g><path d="m28.5 85.5 6 25.75" opacity=".56"/><path d="m99.5 85.58-6 25.92" opacity=".56"/></g><g><path d="m40.96 89.58 3.5 25.5" opacity=".56"/><path d="m87.04 88.67-3.5 25.5" opacity=".56"/></g><g><path d="m51.83 91 2.34 26.17" opacity=".56"/><path d="m76.17 90.08-2.34 26.17" opacity=".56"/></g><path d="m64.17 92.67.33 25.16" opacity=".56"/></g><path d="m66.35 10.09c3.86 2.2 7.4 5.01 10.54 8.41 1.38 1.49 2.65 3.74 3.55 6.34.33.96 1.13 1.68 2.11 1.92 1.04.26 6.35 1.72 8.56 5.1.38.59.64 1.18.79 1.8.09.39.17.82.23 1.26.09.7.43 1.35.95 1.83 1.23 1.13 3.3 3.73 3.31 8.43 0 1.1-.15 2.16-.45 3.16-.31 1.07-.02 2.22.78 2.99.39.38.86.64 1.37.77.7.45 1.33.95 1.86 1.5 3.13 3.17 2.12 6.83.72 9.35-.55.98-.5 2.19.13 3.12.56.84 1.5 1.33 2.49 1.33.11 0 .23-.01.35-.02.08-.01.17-.01.25-.01.64 0 1.16.3 1.59.91.12.17.24.33.37.5.41.54.41.58.42.76.01 1.08.61 2.08 1.56 2.6.31.17.64.28.98.33-.26.73-.53 1.5-.8 2.31-.35 1.05-.09 2.21.68 3.01.19.2.4.37.63.51l-.68 1.99c-2.66 7.8-5.42 15.86-7.77 23.97-.11.36-.21.74-.32 1.12-.94 3.31-2 7.07-4.21 8.83-2.07 1.65-4.78 2.68-7.15 3.47-6.73 2.24-14.59 3.32-24.03 3.32-.43 0-.87 0-1.3-.01-11.93-.12-20.84-1.69-28.03-4.93-2.89-1.3-5.01-2.62-5.95-4.79-1.85-4.27-3.3-8.92-4.71-13.43-.3-.96-.6-1.93-.91-2.88-.65-2.04-1.26-4.2-1.86-6.28-1.14-4-2.31-8.12-3.88-12.03.09-.09.17-.19.24-.3.56-.78.7-1.79.39-2.7l-.39-1.14c-.03-.08-.05-.16-.08-.24.18-.11.35-.24.5-.38a3.03 3.03 0 0 0 .88-2.81c-.24-1.14-.08-1.9.2-2.15.3-.27.53-.37.64-.37.01 0 .05 0 .11.03a2.982 2.982 0 0 0 2.75-.26c.82-.53 1.33-1.42 1.37-2.4.02-.45.23-.95.39-1.26.36-.4.61-.89.72-1.43.16-.8-.01-1.64-.49-2.31-.81-1.16-1.9-3.41-1.57-4.9.09-.42.32-.97 1.3-1.53.86-.49 1.42-1.37 1.5-2.36.07-.89.39-3.18 1.78-5.22 1.45-2.13 3.76-3.38 6.85-3.71a2.987 2.987 0 0 0 2.67-2.72v-.06c.37-3.25 1.86-6.88 9.86-11.34 2.78-1.55 5.18-2.67 7.3-3.66 4.14-1.93 7.41-3.46 9.63-6.59 1.28-1.79 1.7-4.08 1.28-6.75m-2.81-4.64c-.24 0-.46.07-.66.18-.49.28-.78.87-.53 1.48.99 2.38 1.87 5.74.27 8-2.71 3.82-7.73 4.79-15.94 9.37-7.82 4.36-10.83 8.52-11.38 13.74v.02c-4.65.49-7.4 2.63-9.02 5.01-1.78 2.62-2.19 5.49-2.29 6.66-5.7 3.27-1.23 9.99-.7 10.75-.04.02-.07.05-.11.07 0 0-.99 1.42-1.06 3.08-.4-.16-.81-.24-1.23-.24-.89 0-1.8.37-2.66 1.16-1 .91-1.62 2.56-1.11 4.99-.3-.08-.56-.12-.8-.12-1.04 0-1.47.76-1 2.14.33.96.65 1.93.98 2.89-1 .01-1.43.75-1 2.12 2.58 6.06 4.09 12.85 6.08 19.13 1.76 5.53 3.42 11.26 5.72 16.59 1.39 3.22 4.33 4.92 7.47 6.34 8.99 4.05 19.49 5.1 29.23 5.19.44 0 .89.01 1.33.01 8.38 0 17.01-.83 24.98-3.47 2.82-.94 5.74-2.11 8.08-3.98 3.27-2.61 4.42-7.6 5.54-11.46 2.67-9.24 5.82-18.25 8.92-27.35.47-1.38.03-2.15-1.01-2.15-.24 0-.51.04-.81.12.56-1.7 1.16-3.36 1.84-4.97.44-1.38.01-2.14-1-2.14-.47 0-1.06.16-1.74.5-.23.11-.46.25-.69.39-.01-1.46-.78-2.17-1.32-2.94-1.08-1.54-2.57-2.19-4.05-2.19-.2 0-.4.01-.6.03 2.53-4.55 2.35-9.31-1.2-12.91-.84-.85-1.87-1.65-3.1-2.35l-.17.05c.4-1.36.57-2.71.57-4.01 0-5.86-2.69-9.18-4.28-10.64-.07-.54-.16-1.07-.29-1.58a8.561 8.561 0 0 0 -1.2-2.74c-2.76-4.22-8.65-5.95-10.34-6.37-.99-2.83-2.41-5.48-4.18-7.39-4.23-4.56-9.23-8.28-15.02-10.88-.16-.09-.34-.13-.52-.13z" fill="#424242" opacity=".2"/></svg>