<svg fill="none" height="113" viewBox="0 0 109 113" width="109" xmlns="http://www.w3.org/2000/svg" xmlns:xlink="http://www.w3.org/1999/xlink"><linearGradient id="a" gradientUnits="userSpaceOnUse" x1="53.9738" x2="94.1635" y1="54.974" y2="71.8295"><stop offset="0" stop-color="#249361"/><stop offset="1" stop-color="#3ecf8e"/></linearGradient><linearGradient id="b" gradientUnits="userSpaceOnUse" x1="36.1558" x2="54.4844" y1="30.578" y2="65.0806"><stop offset="0"/><stop offset="1" stop-opacity="0"/></linearGradient><path d="m63.7076 110.284c-2.8595 3.601-8.6574 1.628-8.7263-2.97l-1.0075-67.2513h45.2197c8.1905 0 12.7585 9.4601 7.6655 15.8747z" fill="url(#a)"/><path d="m63.7076 110.284c-2.8595 3.601-8.6574 1.628-8.7263-2.97l-1.0075-67.2513h45.2197c8.1905 0 12.7585 9.4601 7.6655 15.8747z" fill="url(#b)" fill-opacity=".2"/><path d="m45.317 2.07103c2.8595-3.6014 8.6575-1.628093 8.7264 2.96997l.4415 67.2512h-44.65377c-8.19075 0-12.75888-9.4601-7.66563-15.8747z" fill="#3ecf8e"/></svg>