<svg fill="none" height="1000" viewBox="0 0 1000 1000" width="1000" xmlns="http://www.w3.org/2000/svg"><g fill="#07b6d5"><path d="m489.5 226.499c-161.5 5.133-209.5 120.5-220.5 183 14.333-23.167 59.5-73.999 126-73.999 77.5 0 136.5 86.5 172.5 113.5 43.737 32.803 131.623 76.115 247 41 92-28 134.667-125.668 144-172.001-44.5 60.5-112 96.839-195.5 54-57.5-29.5-100.5-150.999-273.5-145.5z"/><path d="m261 500.999c-161.5 5.133-209.5 120.5-220.5 183 14.3333-23.167 59.5-73.999 126-73.999 77.5 0 136.5 86.5 172.5 113.5 43.737 32.803 131.623 76.115 247 41 92-28 134.667-125.668 144-172.001-44.5 60.5-112 96.839-195.5 54-57.5-29.5-100.5-150.999-273.5-145.5z"/></g></svg>