<svg height="1000" viewBox="0 0 1000 1000" width="1000" xmlns="http://www.w3.org/2000/svg" xmlns:xlink="http://www.w3.org/1999/xlink"><linearGradient id="a" x1="50%" x2="50%" y1="0%" y2="99.25834%"><stop offset="0" stop-color="#2aabee"/><stop offset="1" stop-color="#229ed9"/></linearGradient><g fill="none" fill-rule="evenodd"><circle cx="500" cy="500" fill="url(#a)" r="500"/><path d="m226.328419 494.722069c145.760154-63.505384 242.95642-105.37202 291.588797-125.599908 138.855319-57.754731 167.708265-67.787346 186.514211-68.118629 4.136194-.072862 13.384412.952211 19.375019 5.813175 5.058351 4.104503 6.450106 9.649103 7.116105 13.540622.666 3.891519 1.495328 12.756499.836075 19.683337-7.524619 79.06182-40.083522 270.924008-56.647644 359.474601-7.008902 37.469075-20.809646 50.032265-34.170364 51.261739-29.035934 2.671932-51.084503-19.188971-79.207225-37.623769-44.006507-28.846821-68.867384-46.804056-111.583319-74.953224-49.365654-32.531233-17.363955-50.410965 10.769388-79.63145 7.362629-7.64714 135.295618-124.012084 137.771765-134.568208.309683-1.32022.597085-6.241374-2.326487-8.839924s-7.238511-1.709947-10.352292-1.003233c-4.41369 1.001745-74.714655 47.468076-210.902895 139.398991-19.954695 13.702434-38.029038 20.378719-54.223029 20.028857-17.852576-.385695-52.19377-10.094118-77.722918-18.392638-31.312539-10.178472-56.199122-15.559904-54.032059-32.846099 1.12874-9.00372 13.527697-18.2118 37.196872-27.62424z" fill="#fff"/></g></svg>