<svg fill="none" viewBox="0 0 165 165" xmlns="http://www.w3.org/2000/svg"><path d="m120.831 57.2543-36.138 52.2507c-.3831.554-.9372.969-1.5782 1.182s-1.3339.211-1.9736-.003c-.6397-.215-1.1912-.632-1.571-1.187-.3797-.556-.567-1.22-.5332-1.891l1.4463-28.8478-23.349-4.9518c-.499-.1057-.9639-.3324-1.3536-.6599-.3897-.3274-.6922-.7456-.8806-1.2175s-.2569-.9829-.1995-1.4878c.0574-.5048.2389-.988.5285-1.4067l36.1384-52.2508c.3832-.5543.9373-.9692 1.5783-1.1819.6411-.2127 1.334-.2116 1.9738.0033.6397.2148 1.1913.6316 1.571 1.1872.3797.5555.5669 1.2194.533 1.891l-1.4463 28.8481 23.3487 4.9514c.499.1057.964.3324 1.354.6598.39.3275.692.7457.88 1.2176.189.4719.257.9829.2 1.4877-.057.5049-.239.9881-.529 1.4068z" fill="#fcc72b"/><g fill="#729b1b"><path d="m82.9866 153.343c-.9612.001-1.9131-.187-2.8011-.555s-1.6946-.908-2.3733-1.588l-34.1464-34.144c-1.366-1.373-2.1317-3.232-2.1292-5.169.0026-1.937.7732-3.795 2.143-5.164 1.3697-1.37 3.2268-2.141 5.1639-2.144 1.9372-.002 3.7964.763 5.1699 2.129l28.9732 28.97 63.1184-63.1154c1.376-1.3538 3.231-2.109 5.161-2.1011 1.931.0078 3.78.7781 5.144 2.143 1.365 1.365 2.136 3.2139 2.144 5.1442.007 1.9303-.748 3.7855-2.102 5.1614l-68.2923 68.2899c-.6786.681-1.485 1.22-2.3728 1.588-.8877.368-1.8394.556-2.8003.555z"/><path d="m82.9572 153.343c.9612.001 1.9131-.187 2.8011-.555s1.6945-.908 2.3733-1.588l34.1464-34.144c1.366-1.373 2.132-3.232 2.129-5.169-.002-1.937-.773-3.795-2.143-5.164-1.37-1.37-3.227-2.141-5.164-2.144-1.937-.002-3.796.763-5.17 2.129l-28.9728 28.97-63.1183-63.1154c-1.376-1.3538-3.2312-2.109-5.1614-2.1011-1.9303.0078-3.7793.7781-5.14419 2.143-1.36492 1.365-2.1352 3.2139-2.14306 5.1442s.74734 3.7855 2.1011 5.1614l68.29265 68.2899c.6787.681 1.4851 1.22 2.3728 1.588.8878.368 1.8395.556 2.8004.555z" fill-opacity=".5"/></g></svg>