<svg viewBox="0 0 195 232" fill="none"
    xmlns="http://www.w3.org/2000/svg">
    <path d="M90.6624 1.19474L11.6717 31.3849C8.22722 32.7353 5.27043 35.0937 3.18802 38.1517C1.1056 41.2098 -0.0054997 44.8251 2.04695e-05 48.5248V124.529L36.3017 103.667V60.9317L97.1415 37.5883V0C94.9275 0.00476869 92.7325 0.409516 90.6624 1.19474Z" fill="#7CC7BA"/>
    <path d="M36.945 171.4L97.1415 136.707V94.7988L4.13564 148.424C2.88367 149.158 1.84407 150.204 1.11898 151.461C0.393889 152.718 0.00826548 154.142 0 155.593V183.669C0.0312619 187.337 1.1595 190.912 3.23954 193.934C5.31958 196.956 8.25625 199.286 11.6717 200.625L90.6623 230.815C92.7325 231.6 94.9275 232.005 97.1415 232.01V194.422L36.945 171.4Z" fill="#7CC7BA"/>
    <path d="M190.422 82.8505C191.609 82.1708 192.593 81.1861 193.272 79.9985C193.95 78.8108 194.299 77.4634 194.282 76.0956V48.5248C194.288 44.825 193.177 41.2097 191.094 38.1517C189.012 35.0937 186.055 32.7353 182.61 31.3849L103.574 1.19474C101.518 0.414938 99.3392 0.0102819 97.1406 0V37.5883L156.878 60.564L97.1406 94.9817V136.889L190.422 82.8505Z" fill="#6DAEA3"/>
    <path d="M103.574 230.815L182.61 200.625C186.026 199.286 188.963 196.956 191.043 193.934C193.123 190.912 194.251 187.337 194.282 183.669V106.884L157.98 127.838V171.17L97.1406 194.421V232.01C99.3392 232 101.518 231.595 103.574 230.815Z" fill="#6DAEA3"/>
</svg>
