<svg viewBox="0 0 72 72" xmlns="http://www.w3.org/2000/svg"><g fill="none" fill-rule="evenodd"><path d="m36 72c19.882251 0 36-16.117749 36-36 0-19.882251-16.117749-36-36-36-19.882251 0-36 16.117749-36 36 0 19.882251 16.117749 36 36 36z" fill="#007ebb"/><path d="m59 57h-9.040625v-15.3982105c0-4.2217667-1.6041667-6.5810314-4.9457031-6.5810314-3.6351563 0-5.534375 2.4551814-5.534375 6.5810314v15.3982105h-8.7126302v-29.3333333h8.7126302v3.9511957s2.6196614-4.8473727 8.844401-4.8473727c6.221875 0 10.6763021 3.7994469 10.6763021 11.6574589zm-38.627474-33.1742964c-2.9677083 0-5.372526-2.4236864-5.372526-5.4128518s2.4048177-5.4128518 5.372526-5.4128518c2.9677084 0 5.3710938 2.4236864 5.3710938 5.4128518s-2.4033854 5.4128518-5.3710938 5.4128518zm-4.4988281 33.1742964h9.0850261v-29.3333333h-9.0850261z" fill="#fff"/></g></svg>